<svg width="16.000000" height="16.000000" viewBox="0 0 16 16" fill="none" xmlns="http://www.w3.org/2000/svg">
	<desc>
			Created with Pixso.
	</desc>
	<defs>
		<clipPath id="clip144_7">
			<rect id="KV.svg" width="16.000000" height="16.000000" fill="white" fill-opacity="0"/>
		</clipPath>
	</defs>
	<g clip-path="url(#clip144_7)">
		<path id="path" d="M11.15 1.53L4.87 1.53C3.33 1.53 2.07 2.78 2.07 4.33L2.07 11.7C2.07 13.24 3.33 14.5 4.87 14.5L11.15 14.5C12.7 14.5 13.95 13.24 13.95 11.7L13.95 4.33C13.95 2.78 12.7 1.53 11.15 1.53ZM11.15 13.22L4.87 13.22C3.95 13.22 3.21 12.48 3.21 11.56L3.21 4.47C3.21 3.55 3.95 2.81 4.87 2.81L11.15 2.81C12.07 2.81 12.81 3.55 12.81 4.47L12.81 11.56C12.81 12.48 12.07 13.22 11.15 13.22Z" fill="#6E6E6E" fill-opacity="1.000000" fill-rule="nonzero"/>
		<path id="path" d="M4.87 1.53C3.33 1.53 2.07 2.78 2.07 4.33L2.07 11.7C2.07 13.24 3.33 14.5 4.87 14.5L11.15 14.5C12.7 14.5 13.95 13.24 13.95 11.7L13.95 4.33C13.95 2.78 12.7 1.53 11.15 1.53L4.87 1.53ZM4.87 13.22C3.95 13.22 3.21 12.48 3.21 11.56L3.21 4.47C3.21 3.55 3.95 2.81 4.87 2.81L11.15 2.81C12.07 2.81 12.81 3.55 12.81 4.47L12.81 11.56C12.81 12.48 12.07 13.22 11.15 13.22L4.87 13.22Z" stroke="#6E6E6E" stroke-opacity="1.000000" stroke-width="0.400000"/>
		<path id="path" d="M7.42 9.42L6.08 8.33L7.36 7.23C7.47 7.13 7.52 6.98 7.5 6.84C7.52 6.72 7.49 6.59 7.4 6.49C7.25 6.31 6.98 6.29 6.8 6.45L5.66 7.44L5.66 6.38C5.66 6.15 5.46 5.96 5.23 5.96C4.99 5.96 4.8 6.15 4.8 6.38L4.8 10.33C4.8 10.56 4.99 10.75 5.23 10.75C5.46 10.75 5.66 10.56 5.66 10.33L5.66 9.23L6.89 10.23C6.97 10.29 7.06 10.32 7.16 10.32C7.28 10.32 7.4 10.27 7.49 10.16C7.57 10.07 7.59 9.94 7.57 9.82C7.6 9.68 7.55 9.52 7.42 9.42ZM11.14 6.15C10.92 6.07 10.68 6.19 10.6 6.41L9.66 9.03L8.67 6.49C8.58 6.27 8.34 6.16 8.12 6.25C7.92 6.32 7.82 6.52 7.85 6.72C7.84 6.79 7.85 6.87 7.88 6.94L9.29 10.55C9.29 10.55 9.29 10.56 9.29 10.56C9.3 10.57 9.3 10.58 9.3 10.59C9.31 10.6 9.32 10.62 9.33 10.63C9.34 10.64 9.34 10.65 9.34 10.65C9.36 10.67 9.37 10.69 9.39 10.7C9.39 10.71 9.39 10.71 9.39 10.71C9.41 10.72 9.43 10.74 9.45 10.75C9.46 10.76 9.47 10.76 9.47 10.76C9.49 10.77 9.51 10.78 9.53 10.79C9.53 10.79 9.53 10.79 9.54 10.79C9.54 10.8 9.54 10.8 9.55 10.8C9.56 10.8 9.58 10.81 9.59 10.81C9.6 10.81 9.61 10.81 9.61 10.81C9.64 10.82 9.66 10.82 9.68 10.82C9.71 10.82 9.73 10.82 9.75 10.81C9.76 10.81 9.77 10.81 9.77 10.81C9.79 10.8 9.81 10.8 9.83 10.79C9.83 10.79 9.83 10.79 9.84 10.79C9.84 10.79 9.84 10.79 9.85 10.78C9.87 10.78 9.88 10.77 9.9 10.76C9.91 10.75 9.91 10.75 9.92 10.75C9.94 10.73 9.96 10.72 9.98 10.7C9.98 10.7 9.98 10.69 9.99 10.69C10 10.68 10.01 10.66 10.03 10.64C10.03 10.64 10.04 10.63 10.04 10.62C10.05 10.61 10.06 10.59 10.06 10.58C10.07 10.57 10.07 10.56 10.08 10.55C10.08 10.55 10.08 10.54 10.08 10.54L11.4 6.84C11.42 6.77 11.43 6.7 11.42 6.63C11.45 6.43 11.34 6.22 11.14 6.15Z" fill="#6E6E6E" fill-opacity="1.000000" fill-rule="nonzero"/>
		<path id="path" d="M6.08 8.33L7.36 7.23C7.47 7.13 7.52 6.98 7.5 6.84C7.52 6.72 7.49 6.59 7.4 6.49C7.25 6.31 6.98 6.29 6.8 6.45L5.66 7.44L5.66 6.38C5.66 6.15 5.46 5.96 5.23 5.96C4.99 5.96 4.8 6.15 4.8 6.38L4.8 10.33C4.8 10.56 4.99 10.75 5.23 10.75C5.46 10.75 5.66 10.56 5.66 10.33L5.66 9.23L6.89 10.23C6.97 10.29 7.06 10.32 7.16 10.32C7.28 10.32 7.4 10.27 7.49 10.16C7.57 10.07 7.59 9.94 7.57 9.82C7.6 9.68 7.55 9.52 7.42 9.42L6.08 8.33ZM10.6 6.41L9.66 9.03L8.67 6.49C8.58 6.27 8.34 6.16 8.12 6.25C7.92 6.32 7.82 6.52 7.85 6.72C7.84 6.79 7.85 6.87 7.88 6.94L9.29 10.55C9.29 10.55 9.29 10.56 9.29 10.56C9.3 10.57 9.3 10.58 9.3 10.59C9.31 10.6 9.32 10.62 9.33 10.63C9.34 10.64 9.34 10.65 9.34 10.65C9.36 10.67 9.37 10.69 9.39 10.7C9.39 10.71 9.39 10.71 9.39 10.71C9.41 10.72 9.43 10.74 9.45 10.75C9.46 10.76 9.47 10.76 9.47 10.76C9.49 10.77 9.51 10.78 9.53 10.79C9.53 10.79 9.53 10.79 9.54 10.79C9.54 10.8 9.54 10.8 9.55 10.8C9.56 10.8 9.58 10.81 9.59 10.81C9.6 10.81 9.61 10.81 9.61 10.81C9.64 10.82 9.66 10.82 9.68 10.82C9.71 10.82 9.73 10.82 9.75 10.81C9.76 10.81 9.77 10.81 9.77 10.81C9.79 10.8 9.81 10.8 9.83 10.79C9.83 10.79 9.83 10.79 9.84 10.79C9.84 10.79 9.84 10.79 9.85 10.78C9.87 10.78 9.88 10.77 9.9 10.76C9.91 10.75 9.91 10.75 9.92 10.75C9.94 10.73 9.96 10.72 9.98 10.7C9.98 10.7 9.98 10.69 9.99 10.69C10 10.68 10.01 10.66 10.03 10.64C10.03 10.64 10.04 10.63 10.04 10.62C10.05 10.61 10.06 10.59 10.06 10.58C10.07 10.57 10.07 10.56 10.08 10.55C10.08 10.55 10.08 10.54 10.08 10.54L11.4 6.84C11.42 6.77 11.43 6.7 11.42 6.63C11.45 6.43 11.34 6.22 11.14 6.15C10.92 6.07 10.68 6.19 10.6 6.41Z" stroke="#6E6E6E" stroke-opacity="1.000000" stroke-width="0.200000"/>
	</g>
</svg>
