<svg width="16.000000" height="16.000000" viewBox="0 0 16 16" fill="none" xmlns="http://www.w3.org/2000/svg">
	<desc>
			Created with Pixso.
	</desc>
	<defs>
		<clipPath id="clip144_4">
			<rect id="url" rx="0.000000" width="15.000000" height="15.000000" transform="translate(0.500000 0.500000)" fill="white" fill-opacity="0"/>
		</clipPath>
	</defs>
	<g clip-path="url(#clip144_4)">
		<path id="path" d="M9.03 10.55C8.98 10.5 8.89 10.5 8.84 10.55L6.9 12.49C6.01 13.38 4.49 13.48 3.5 12.49C2.51 11.5 2.61 9.98 3.5 9.09L5.44 7.15C5.49 7.1 5.49 7.02 5.44 6.96L4.78 6.3C4.72 6.25 4.64 6.25 4.59 6.3L2.65 8.24C1.24 9.65 1.24 11.93 2.65 13.34C4.06 14.75 6.34 14.75 7.75 13.34L9.69 11.4C9.74 11.35 9.74 11.26 9.69 11.21L9.03 10.55ZM13.34 2.65C11.93 1.24 9.65 1.24 8.24 2.65L6.3 4.59C6.25 4.64 6.25 4.72 6.3 4.78L6.96 5.44C7.01 5.49 7.1 5.49 7.15 5.44L9.09 3.5C9.98 2.6 11.5 2.51 12.49 3.5C13.48 4.49 13.38 6.01 12.49 6.9L10.55 8.84C10.5 8.89 10.5 8.97 10.55 9.03L11.21 9.69C11.27 9.74 11.35 9.74 11.4 9.69L13.34 7.75C14.75 6.34 14.75 4.06 13.34 2.65Z" fill="#6E6E6E" fill-opacity="1.000000" fill-rule="nonzero"/>
		<path id="path" d="M8.84 10.55L6.9 12.49C6.01 13.38 4.49 13.48 3.5 12.49C2.51 11.5 2.61 9.98 3.5 9.09L5.44 7.15C5.49 7.1 5.49 7.02 5.44 6.96L4.78 6.3C4.72 6.25 4.64 6.25 4.59 6.3L2.65 8.24C1.24 9.65 1.24 11.93 2.65 13.34C4.06 14.75 6.34 14.75 7.75 13.34L9.69 11.4C9.74 11.35 9.74 11.26 9.69 11.21L9.03 10.55C8.98 10.5 8.89 10.5 8.84 10.55ZM8.24 2.65L6.3 4.59C6.25 4.64 6.25 4.72 6.3 4.78L6.96 5.44C7.01 5.49 7.1 5.49 7.15 5.44L9.09 3.5C9.98 2.6 11.5 2.51 12.49 3.5C13.48 4.49 13.38 6.01 12.49 6.9L10.55 8.84C10.5 8.89 10.5 8.97 10.55 9.03L11.21 9.69C11.27 9.74 11.35 9.74 11.4 9.69L13.34 7.75C14.75 6.34 14.75 4.06 13.34 2.65C11.93 1.24 9.65 1.24 8.24 2.65Z" stroke="#6E6E6E" stroke-opacity="1.000000" stroke-width="0.500000"/>
		<path id="path" d="M9.63 5.67C9.58 5.61 9.49 5.61 9.44 5.67L5.67 9.44C5.61 9.49 5.61 9.58 5.67 9.63L6.33 10.29C6.38 10.34 6.46 10.34 6.51 10.29L10.29 6.51C10.34 6.46 10.34 6.38 10.29 6.33L9.63 5.67Z" fill="#6E6E6E" fill-opacity="1.000000" fill-rule="nonzero"/>
		<path id="path" d="M9.44 5.67L5.67 9.44C5.61 9.49 5.61 9.58 5.67 9.63L6.33 10.29C6.38 10.34 6.46 10.34 6.51 10.29L10.29 6.51C10.34 6.46 10.34 6.38 10.29 6.33L9.63 5.67C9.58 5.61 9.49 5.61 9.44 5.67Z" stroke="#6E6E6E" stroke-opacity="1.000000" stroke-width="0.500000"/>
	</g>
	<rect id="url" rx="0.000000" width="15.000000" height="15.000000" transform="translate(0.500000 0.500000)" stroke="#000000" stroke-opacity="0" stroke-width="1.000000"/>
</svg>
