<svg width="19.000000" height="19.000000" viewBox="0 0 19 19" fill="none" xmlns="http://www.w3.org/2000/svg">
	<desc>
			Created with Pixso.
	</desc>
	<defs>
		<clipPath id="clip155_31">
			<rect id="delete.svg" width="19.000000" height="19.000000" fill="white" fill-opacity="0"/>
		</clipPath>
	</defs>
	<g clip-path="url(#clip155_31)">
		<path id="path" d="M8.88 2.51L11.12 2.51C11.74 2.51 12.24 3.01 12.24 3.62L7.77 3.62C7.77 3.01 8.27 2.51 8.88 2.51ZM6.65 3.62C6.65 2.39 7.65 1.38 8.88 1.38L11.12 1.38C12.35 1.38 13.35 2.39 13.35 3.62L15.59 3.62C16.2 3.62 16.7 4.12 16.7 4.75L16.7 5.86L16.7 6.97L15.59 6.97L15.59 14.8C15.59 16.03 14.59 17.03 13.35 17.03L6.65 17.03C5.41 17.03 4.41 16.03 4.41 14.8L4.41 6.97L3.3 6.97L3.3 5.86L3.3 4.75C3.3 4.12 3.8 3.62 4.41 3.62L6.65 3.62ZM13.35 4.75L12.24 4.75L7.77 4.75L6.65 4.75L4.41 4.75L4.41 5.86L5.53 5.86L14.47 5.86L15.59 5.86L15.59 4.75L13.35 4.75ZM5.53 6.97L14.47 6.97L14.47 14.8C14.47 15.41 13.97 15.91 13.35 15.91L6.65 15.91C6.03 15.91 5.53 15.41 5.53 14.8L5.53 6.97ZM8.32 8.09C8.02 8.09 7.77 8.34 7.77 8.65L7.77 13.12C7.77 13.43 8.02 13.68 8.32 13.68C8.63 13.68 8.88 13.43 8.88 13.12L8.88 8.65C8.88 8.34 8.63 8.09 8.32 8.09ZM11.12 8.65C11.12 8.34 11.37 8.09 11.67 8.09C11.99 8.09 12.24 8.34 12.24 8.65L12.24 13.12C12.24 13.43 11.99 13.68 11.67 13.68C11.37 13.68 11.12 13.43 11.12 13.12L11.12 8.65Z" fill="#6C707E" fill-opacity="1.000000" fill-rule="evenodd"/>
		<path id="path" d="M11.12 2.51C11.74 2.51 12.24 3.01 12.24 3.62L7.77 3.62C7.77 3.01 8.27 2.51 8.88 2.51L11.12 2.51ZM8.88 1.38L11.12 1.38C12.35 1.38 13.35 2.39 13.35 3.62L15.59 3.62C16.2 3.62 16.7 4.12 16.7 4.75L16.7 5.86L16.7 6.97L15.59 6.97L15.59 14.8C15.59 16.03 14.59 17.03 13.35 17.03L6.65 17.03C5.41 17.03 4.41 16.03 4.41 14.8L4.41 6.97L3.3 6.97L3.3 5.86L3.3 4.75C3.3 4.12 3.8 3.62 4.41 3.62L6.65 3.62C6.65 2.39 7.65 1.38 8.88 1.38ZM12.24 4.75L7.77 4.75L6.65 4.75L4.41 4.75L4.41 5.86L5.53 5.86L14.47 5.86L15.59 5.86L15.59 4.75L13.35 4.75L12.24 4.75ZM14.47 6.97L14.47 14.8C14.47 15.41 13.97 15.91 13.35 15.91L6.65 15.91C6.03 15.91 5.53 15.41 5.53 14.8L5.53 6.97L14.47 6.97ZM7.77 8.65L7.77 13.12C7.77 13.43 8.02 13.68 8.32 13.68C8.63 13.68 8.88 13.43 8.88 13.12L8.88 8.65C8.88 8.34 8.63 8.09 8.32 8.09C8.02 8.09 7.77 8.34 7.77 8.65ZM11.67 8.09C11.99 8.09 12.24 8.34 12.24 8.65L12.24 13.12C12.24 13.43 11.99 13.68 11.67 13.68C11.37 13.68 11.12 13.43 11.12 13.12L11.12 8.65C11.12 8.34 11.37 8.09 11.67 8.09Z" stroke="#6C707E" stroke-opacity="1.000000" stroke-width="0.140000"/>
	</g>
</svg>
