<svg width="18.000000" height="18.000000" viewBox="0 0 18 18" fill="none" xmlns="http://www.w3.org/2000/svg">
	<desc>
			Created with Pixso.
	</desc>
	<defs>
		<clipPath id="clip133_1">
			<rect id="logo.svg" width="18.000000" height="18.000000" fill="white" fill-opacity="0"/>
		</clipPath>
	</defs>
	<g clip-path="url(#clip133_1)">
		<circle id="circle" cx="10.846191" cy="16.384766" r="0.615385" fill="#6C707E" fill-opacity="1.000000"/>
		<circle id="circle" cx="10.846191" cy="16.384766" r="0.615385" stroke="#6C707E" stroke-opacity="1.000000" stroke-width="0.200000"/>
		<path id="path" d="M12.69 17L12.69 15.76C14.38 15.76 15.76 14.38 15.76 12.69L15.76 5.3C15.76 3.6 14.38 2.23 12.69 2.23L9 2.23L9 1L12.69 1C15.06 1 17 2.93 17 5.3L17 12.69C17 15.06 15.06 17 12.69 17Z" fill="#6C707E" fill-opacity="1.000000" fill-rule="nonzero"/>
		<path id="path" d="M12.69 15.76C14.38 15.76 15.76 14.38 15.76 12.69L15.76 5.3C15.76 3.6 14.38 2.23 12.69 2.23L9 2.23L9 1L12.69 1C15.06 1 17 2.93 17 5.3L17 12.69C17 15.06 15.06 17 12.69 17L12.69 15.76Z" stroke="#6C707E" stroke-opacity="1.000000" stroke-width="0.200000"/>
		<circle id="circle" cx="7.154053" cy="1.615479" r="0.615385" fill="#6C707E" fill-opacity="1.000000"/>
		<circle id="circle" cx="7.154053" cy="1.615479" r="0.615385" stroke="#6C707E" stroke-opacity="1.000000" stroke-width="0.200000"/>
		<path id="path" d="M9 17L5.3 17C2.93 17 1 15.06 1 12.69L1 5.3C1 2.93 2.93 1 5.3 1L5.3 2.23C3.6 2.23 2.23 3.6 2.23 5.3L2.23 12.69C2.23 14.38 3.6 15.76 5.3 15.76L9 15.76L9 17Z" fill="#6C707E" fill-opacity="1.000000" fill-rule="nonzero"/>
		<path id="path" d="M5.3 17C2.93 17 1 15.06 1 12.69L1 5.3C1 2.93 2.93 1 5.3 1L5.3 2.23C3.6 2.23 2.23 3.6 2.23 5.3L2.23 12.69C2.23 14.38 3.6 15.76 5.3 15.76L9 15.76L9 17L5.3 17Z" stroke="#6C707E" stroke-opacity="1.000000" stroke-width="0.200000"/>
		<path id="[" d="M7.52 5.91L5.28 5.91L5.28 12.68L7.52 12.68L7.52 11.63L6.37 11.63L6.37 6.97L7.52 6.97L7.52 5.91Z" fill="#6C707E" fill-opacity="1.000000" fill-rule="evenodd"/>
		<path id="[" d="M5.28 5.91L5.28 12.68L7.52 12.68L7.52 11.63L6.37 11.63L6.37 6.97L7.52 6.97L7.52 5.91L5.28 5.91Z" stroke="#6C707E" stroke-opacity="1.000000" stroke-width="0.200000"/>
		<path id="]" d="M10.73 12.68L12.97 12.68L12.97 5.91L10.73 5.91L10.73 6.97L11.88 6.97L11.88 11.63L10.73 11.63L10.73 12.68Z" fill="#6C707E" fill-opacity="1.000000" fill-rule="evenodd"/>
		<path id="]" d="M12.97 12.68L12.97 5.91L10.73 5.91L10.73 6.97L11.88 6.97L11.88 11.63L10.73 11.63L10.73 12.68L12.97 12.68Z" stroke="#6C707E" stroke-opacity="1.000000" stroke-width="0.200000"/>
	</g>
</svg>
