<svg width="16.000000" height="16.000000" viewBox="0 0 16 16" fill="none" xmlns="http://www.w3.org/2000/svg">
	<desc>
			Created with Pixso.
	</desc>
	<defs>
		<clipPath id="clip176_6">
			<rect id="scrollDown" width="16.000000" height="16.000000" fill="white" fill-opacity="0"/>
		</clipPath>
	</defs>
	<g clip-path="url(#clip176_6)">
		<path id="path" d="M1.52 4.22L1.5 4.25C1.08 4.25 0.75 3.91 0.75 3.5C0.75 3.08 1.08 2.75 1.5 2.75L1.52 2.77L1.52 4.22ZM5.47 2.77L5.5 2.75C5.91 2.75 6.25 3.08 6.25 3.5C6.25 3.91 5.91 4.25 5.5 4.25L5.47 4.22L5.47 2.77ZM1.52 8.72L1.5 8.75C1.08 8.75 0.75 8.41 0.75 8C0.75 7.58 1.08 7.25 1.5 7.25L1.52 7.27L1.52 8.72ZM5.47 7.27L5.5 7.25C5.91 7.25 6.25 7.58 6.25 8C6.25 8.41 5.91 8.75 5.5 8.75L5.47 8.72L5.47 7.27ZM1.52 13.23L1.5 13.25C1.08 13.25 0.75 12.91 0.75 12.5C0.75 12.08 1.08 11.75 1.5 11.75L1.52 11.77L1.52 13.23ZM14.48 11.77L14.5 11.75C14.91 11.75 15.25 12.08 15.25 12.5C15.25 12.91 14.91 13.25 14.5 13.25L14.48 13.23L14.48 11.77Z" fill="#000000" fill-opacity="0" fill-rule="nonzero"/>
		<path id="path" d="M1.5 3.5L5.5 3.5M1.5 8L5.5 8M1.5 12.5L14.5 12.5" stroke="#CED0D6" stroke-opacity="1.000000" stroke-width="1.500000" stroke-linejoin="round" stroke-linecap="round"/>
		<path id="path" d="M11.5 2.1C11.77 2.1 12 2.32 12 2.6L12 8.39L14.14 6.24C14.34 6.05 14.65 6.05 14.85 6.24C15.04 6.44 15.04 6.75 14.85 6.95L11.85 9.95C11.65 10.14 11.34 10.14 11.14 9.95L8.14 6.95C7.95 6.75 7.95 6.44 8.14 6.24C8.34 6.05 8.65 6.05 8.85 6.24L11 8.39L11 2.6C11 2.32 11.22 2.1 11.5 2.1Z" fill="#CED0D6" fill-opacity="1.000000" fill-rule="evenodd"/>
		<path id="path" d="M12 2.6L12 8.39L14.14 6.24C14.34 6.05 14.65 6.05 14.85 6.24C15.04 6.44 15.04 6.75 14.85 6.95L11.85 9.95C11.65 10.14 11.34 10.14 11.14 9.95L8.14 6.95C7.95 6.75 7.95 6.44 8.14 6.24C8.34 6.05 8.65 6.05 8.85 6.24L11 8.39L11 2.6C11 2.32 11.22 2.1 11.5 2.1C11.77 2.1 12 2.32 12 2.6Z" stroke="#CED0D6" stroke-opacity="1.000000" stroke-width="0.500000"/>
	</g>
</svg>
