<svg width="19.000000" height="19.000000" viewBox="0 0 19 19" fill="none" xmlns="http://www.w3.org/2000/svg">
	<desc>
			Created with Pixso.
	</desc>
	<defs>
		<clipPath id="clip157_52">
			<rect id="search.svg" width="19.000000" height="19.000000" fill="white" fill-opacity="0"/>
		</clipPath>
	</defs>
	<g clip-path="url(#clip157_52)">
		<path id="path" d="M13.45 13.09L17.2 16.83L16.42 17.6L12.66 13.86C12.23 14.2 11.78 14.49 11.29 14.72C10.79 14.95 10.27 15.11 9.74 15.21C9.2 15.3 8.66 15.34 8.12 15.29C7.57 15.26 7.04 15.14 6.52 14.97C6 14.8 5.52 14.56 5.07 14.26C4.61 13.96 4.2 13.6 3.83 13.2C3.48 12.8 3.17 12.35 2.91 11.87C2.66 11.39 2.47 10.89 2.36 10.36C2.23 9.83 2.19 9.29 2.2 8.75C2.22 8.21 2.3 7.68 2.46 7.16C2.61 6.64 2.83 6.15 3.11 5.68C3.4 5.22 3.73 4.8 4.11 4.42C4.5 4.03 4.94 3.71 5.42 3.44C5.89 3.17 6.38 2.96 6.92 2.82C7.43 2.68 7.98 2.61 8.52 2.6C9.06 2.6 9.6 2.65 10.13 2.79C10.67 2.92 11.16 3.11 11.65 3.36C12.12 3.63 12.57 3.95 12.96 4.32C13.36 4.68 13.7 5.1 14 5.55C14.29 6.01 14.52 6.51 14.68 7.02C14.85 7.54 14.95 8.07 14.98 8.6C15 9.14 14.97 9.68 14.85 10.22C14.75 10.75 14.58 11.25 14.33 11.75C14.09 12.23 13.8 12.69 13.45 13.09ZM13.9 8.95C13.9 8.25 13.76 7.58 13.49 6.94C13.21 6.29 12.83 5.72 12.34 5.22C11.84 4.72 11.26 4.35 10.62 4.09C9.97 3.82 9.29 3.68 8.59 3.68C7.88 3.68 7.22 3.82 6.57 4.09C5.91 4.35 5.35 4.72 4.85 5.22C4.35 5.72 3.96 6.29 3.7 6.94C3.43 7.58 3.29 8.25 3.29 8.95C3.29 9.65 3.43 10.32 3.7 10.97C3.96 11.61 4.35 12.18 4.85 12.68C5.35 13.17 5.91 13.55 6.57 13.81C7.22 14.09 7.88 14.21 8.59 14.21C9.29 14.21 9.97 14.09 10.62 13.81C11.26 13.55 11.84 13.17 12.34 12.68C12.83 12.18 13.21 11.61 13.49 10.97C13.76 10.32 13.88 9.65 13.9 8.95Z" fill="#6C707E" fill-opacity="1.000000" fill-rule="evenodd"/>
		<path id="path" d="M17.2 16.83L16.42 17.6L12.66 13.86C12.23 14.2 11.78 14.49 11.29 14.72C10.79 14.95 10.27 15.11 9.74 15.21C9.2 15.3 8.66 15.34 8.12 15.29C7.57 15.26 7.04 15.14 6.52 14.97C6 14.8 5.52 14.56 5.07 14.26C4.61 13.96 4.2 13.6 3.83 13.2C3.48 12.8 3.17 12.35 2.91 11.87C2.66 11.39 2.47 10.89 2.36 10.36C2.23 9.83 2.19 9.29 2.2 8.75C2.22 8.21 2.3 7.68 2.46 7.16C2.61 6.64 2.83 6.15 3.11 5.68C3.4 5.22 3.73 4.8 4.11 4.42C4.5 4.03 4.94 3.71 5.42 3.44C5.89 3.17 6.38 2.96 6.92 2.82C7.43 2.68 7.98 2.61 8.52 2.6C9.06 2.6 9.6 2.65 10.13 2.79C10.67 2.92 11.16 3.11 11.65 3.36C12.12 3.63 12.57 3.95 12.96 4.32C13.36 4.68 13.7 5.1 14 5.55C14.29 6.01 14.52 6.51 14.68 7.02C14.85 7.54 14.95 8.07 14.98 8.6C15 9.14 14.97 9.68 14.85 10.22C14.75 10.75 14.58 11.25 14.33 11.75C14.09 12.23 13.8 12.69 13.45 13.09L17.2 16.83ZM13.49 6.94C13.21 6.29 12.83 5.72 12.34 5.22C11.84 4.72 11.26 4.35 10.62 4.09C9.97 3.82 9.29 3.68 8.59 3.68C7.88 3.68 7.22 3.82 6.57 4.09C5.91 4.35 5.35 4.72 4.85 5.22C4.35 5.72 3.96 6.29 3.7 6.94C3.43 7.58 3.29 8.25 3.29 8.95C3.29 9.65 3.43 10.32 3.7 10.97C3.96 11.61 4.35 12.18 4.85 12.68C5.35 13.17 5.91 13.55 6.57 13.81C7.22 14.09 7.88 14.21 8.59 14.21C9.29 14.21 9.97 14.09 10.62 13.81C11.26 13.55 11.84 13.17 12.34 12.68C12.83 12.18 13.21 11.61 13.49 10.97C13.76 10.32 13.88 9.65 13.9 8.95C13.9 8.25 13.76 7.58 13.49 6.94Z" fill="#000000" fill-opacity="0" fill-rule="nonzero"/>
		<path id="path" d="M16.42 17.6L12.66 13.86C12.23 14.2 11.78 14.49 11.29 14.72C10.79 14.95 10.27 15.11 9.74 15.21C9.2 15.3 8.66 15.34 8.12 15.29C7.57 15.26 7.04 15.14 6.52 14.97C6 14.8 5.52 14.56 5.07 14.26C4.61 13.96 4.2 13.6 3.83 13.2C3.48 12.8 3.17 12.35 2.91 11.87C2.66 11.39 2.47 10.89 2.36 10.36C2.23 9.83 2.19 9.29 2.2 8.75C2.22 8.21 2.3 7.68 2.46 7.16C2.61 6.64 2.83 6.15 3.11 5.68C3.4 5.22 3.73 4.8 4.11 4.42C4.5 4.03 4.94 3.71 5.42 3.44C5.89 3.17 6.38 2.96 6.92 2.82C7.43 2.68 7.98 2.61 8.52 2.6C9.06 2.6 9.6 2.65 10.13 2.79C10.67 2.92 11.16 3.11 11.65 3.36C12.12 3.63 12.57 3.95 12.96 4.32C13.36 4.68 13.7 5.1 14 5.55C14.29 6.01 14.52 6.51 14.68 7.02C14.85 7.54 14.95 8.07 14.98 8.6C15 9.14 14.97 9.68 14.85 10.22C14.75 10.75 14.58 11.25 14.33 11.75C14.09 12.23 13.8 12.69 13.45 13.09L17.2 16.83L16.42 17.6ZM12.34 5.22C11.84 4.72 11.26 4.35 10.62 4.09C9.97 3.82 9.29 3.68 8.59 3.68C7.88 3.68 7.22 3.82 6.57 4.09C5.91 4.35 5.35 4.72 4.85 5.22C4.35 5.72 3.96 6.29 3.7 6.94C3.43 7.58 3.29 8.25 3.29 8.95C3.29 9.65 3.43 10.32 3.7 10.97C3.96 11.61 4.35 12.18 4.85 12.68C5.35 13.17 5.91 13.55 6.57 13.81C7.22 14.09 7.88 14.21 8.59 14.21C9.29 14.21 9.97 14.09 10.62 13.81C11.26 13.55 11.84 13.17 12.34 12.68C12.83 12.18 13.21 11.61 13.49 10.97C13.76 10.32 13.88 9.65 13.9 8.95C13.9 8.25 13.76 7.58 13.49 6.94C13.21 6.29 12.83 5.72 12.34 5.22Z" fill="#000000" fill-opacity="0" fill-rule="nonzero"/>
		<path id="path" d="M12.66 13.86C12.23 14.2 11.78 14.49 11.29 14.72C10.79 14.95 10.27 15.11 9.74 15.21C9.2 15.3 8.66 15.34 8.12 15.29C7.57 15.26 7.04 15.14 6.52 14.97C6 14.8 5.52 14.56 5.07 14.26C4.61 13.96 4.2 13.6 3.83 13.2C3.48 12.8 3.17 12.35 2.91 11.87C2.66 11.39 2.47 10.89 2.36 10.36C2.23 9.83 2.19 9.29 2.2 8.75C2.22 8.21 2.3 7.68 2.46 7.16C2.61 6.64 2.83 6.15 3.11 5.68C3.4 5.22 3.73 4.8 4.11 4.42C4.5 4.03 4.94 3.71 5.42 3.44C5.89 3.17 6.38 2.96 6.92 2.82C7.43 2.68 7.98 2.61 8.52 2.6C9.06 2.6 9.6 2.65 10.13 2.79C10.67 2.92 11.16 3.11 11.65 3.36C12.12 3.63 12.57 3.95 12.96 4.32C13.36 4.68 13.7 5.1 14 5.55C14.29 6.01 14.52 6.51 14.68 7.02C14.85 7.54 14.95 8.07 14.98 8.6C15 9.14 14.97 9.68 14.85 10.22C14.75 10.75 14.58 11.25 14.33 11.75C14.09 12.23 13.8 12.69 13.45 13.09L17.2 16.83L16.42 17.6L12.66 13.86ZM10.62 4.09C9.97 3.82 9.29 3.68 8.59 3.68C7.88 3.68 7.22 3.82 6.57 4.09C5.91 4.35 5.35 4.72 4.85 5.22C4.35 5.72 3.96 6.29 3.7 6.94C3.43 7.58 3.29 8.25 3.29 8.95C3.29 9.65 3.43 10.32 3.7 10.97C3.96 11.61 4.35 12.18 4.85 12.68C5.35 13.17 5.91 13.55 6.57 13.81C7.22 14.09 7.88 14.21 8.59 14.21C9.29 14.21 9.97 14.09 10.62 13.81C11.26 13.55 11.84 13.17 12.34 12.68C12.83 12.18 13.21 11.61 13.49 10.97C13.76 10.32 13.88 9.65 13.9 8.95C13.9 8.25 13.76 7.58 13.49 6.94C13.21 6.29 12.83 5.72 12.34 5.22C11.84 4.72 11.26 4.35 10.62 4.09Z" fill="#000000" fill-opacity="0" fill-rule="nonzero"/>
		<path id="path" d="M11.29 14.72C10.79 14.95 10.27 15.11 9.74 15.21C9.2 15.3 8.66 15.34 8.12 15.29C7.57 15.26 7.04 15.14 6.52 14.97C6 14.8 5.52 14.56 5.07 14.26C4.61 13.96 4.2 13.6 3.83 13.2C3.48 12.8 3.17 12.35 2.91 11.87C2.66 11.39 2.47 10.89 2.36 10.36C2.23 9.83 2.19 9.29 2.2 8.75C2.22 8.21 2.3 7.68 2.46 7.16C2.61 6.64 2.83 6.15 3.11 5.68C3.4 5.22 3.73 4.8 4.11 4.42C4.5 4.03 4.94 3.71 5.42 3.44C5.89 3.17 6.38 2.96 6.92 2.82C7.43 2.68 7.98 2.61 8.52 2.6C9.06 2.6 9.6 2.65 10.13 2.79C10.67 2.92 11.16 3.11 11.65 3.36C12.12 3.63 12.57 3.95 12.96 4.32C13.36 4.68 13.7 5.1 14 5.55C14.29 6.01 14.52 6.51 14.68 7.02C14.85 7.54 14.95 8.07 14.98 8.6C15 9.14 14.97 9.68 14.85 10.22C14.75 10.75 14.58 11.25 14.33 11.75C14.09 12.23 13.8 12.69 13.45 13.09L17.2 16.83L16.42 17.6L12.66 13.86C12.23 14.2 11.78 14.49 11.29 14.72ZM8.59 3.68C7.88 3.68 7.22 3.82 6.57 4.09C5.91 4.35 5.35 4.72 4.85 5.22C4.35 5.72 3.96 6.29 3.7 6.94C3.43 7.58 3.29 8.25 3.29 8.95C3.29 9.65 3.43 10.32 3.7 10.97C3.96 11.61 4.35 12.18 4.85 12.68C5.35 13.17 5.91 13.55 6.57 13.81C7.22 14.09 7.88 14.21 8.59 14.21C9.29 14.21 9.97 14.09 10.62 13.81C11.26 13.55 11.84 13.17 12.34 12.68C12.83 12.18 13.21 11.61 13.49 10.97C13.76 10.32 13.88 9.65 13.9 8.95C13.9 8.25 13.76 7.58 13.49 6.94C13.21 6.29 12.83 5.72 12.34 5.22C11.84 4.72 11.26 4.35 10.62 4.09C9.97 3.82 9.29 3.68 8.59 3.68Z" stroke="#6C707E" stroke-opacity="1.000000" stroke-width="0.600000"/>
	</g>
</svg>
