<svg width="18.000000" height="18.000000" viewBox="0 0 18 18" fill="none" xmlns="http://www.w3.org/2000/svg">
	<desc>
			Created with Pixso.
	</desc>
	<defs>
		<clipPath id="clip172_25">
			<rect id="svg" width="18.000000" height="18.000000" fill="white" fill-opacity="0"/>
		</clipPath>
	</defs>
	<g clip-path="url(#clip172_25)">
		<path id="path" d="M4.12 3.37C3.81 3.37 3.54 3.48 3.32 3.7C3.1 3.92 3 4.18 3 4.5C3 4.81 3.1 5.07 3.32 5.29C3.54 5.51 3.81 5.62 4.12 5.62C4.43 5.62 4.7 5.51 4.92 5.29C5.14 5.07 5.25 4.81 5.25 4.5C5.25 4.18 5.14 3.92 4.92 3.7C4.7 3.48 4.43 3.37 4.12 3.37ZM1.5 4.5C1.5 3.83 1.72 3.25 2.16 2.75C2.61 2.25 3.16 1.96 3.82 1.89C4.49 1.81 5.09 1.97 5.64 2.35C6.18 2.74 6.53 3.26 6.68 3.91C6.83 4.56 6.74 5.17 6.42 5.76C6.1 6.34 5.62 6.75 5 6.97C5.26 7.57 5.72 7.87 6.37 7.87L11.62 7.87C12.45 7.87 13.16 8.16 13.74 8.75C14.33 9.33 14.62 10.04 14.62 10.87L14.62 10.98C15.24 11.17 15.73 11.53 16.08 12.08C16.43 12.63 16.56 13.23 16.46 13.87C16.37 14.52 16.07 15.05 15.58 15.48C15.09 15.9 14.52 16.12 13.87 16.12C13.22 16.12 12.65 15.91 12.15 15.48C11.66 15.06 11.36 14.52 11.27 13.87C11.18 13.23 11.3 12.63 11.66 12.08C12.01 11.53 12.5 11.16 13.12 10.98L13.12 10.87C13.12 10.46 12.97 10.1 12.68 9.81C12.39 9.52 12.03 9.37 11.62 9.37L6.37 9.37C5.83 9.37 5.33 9.24 4.87 8.97L4.87 10.98C5.49 11.17 5.98 11.53 6.33 12.08C6.68 12.63 6.81 13.23 6.71 13.87C6.62 14.52 6.32 15.05 5.83 15.48C5.34 15.9 4.77 16.12 4.12 16.12C3.47 16.12 2.9 15.91 2.4 15.48C1.91 15.06 1.61 14.52 1.52 13.87C1.43 13.23 1.55 12.63 1.91 12.08C2.26 11.53 2.75 11.16 3.37 10.98L3.37 7.01C2.81 6.85 2.36 6.53 2.02 6.06C1.67 5.6 1.5 5.08 1.5 4.5ZM13.87 12.37C13.56 12.37 13.29 12.48 13.07 12.7C12.85 12.92 12.75 13.18 12.75 13.5C12.75 13.81 12.85 14.07 13.07 14.29C13.29 14.51 13.56 14.62 13.87 14.62C14.18 14.62 14.45 14.51 14.67 14.29C14.89 14.07 15 13.81 15 13.5C15 13.18 14.89 12.92 14.67 12.7C14.45 12.48 14.18 12.37 13.87 12.37ZM4.12 12.37C3.81 12.37 3.54 12.48 3.32 12.7C3.1 12.92 3 13.18 3 13.5C3 13.81 3.1 14.07 3.32 14.29C3.54 14.51 3.81 14.62 4.12 14.62C4.43 14.62 4.7 14.51 4.92 14.29C5.14 14.07 5.25 13.81 5.25 13.5C5.25 13.18 5.14 12.92 4.92 12.7C4.7 12.48 4.43 12.37 4.12 12.37Z" fill="#CED0D6" fill-opacity="1.000000" fill-rule="nonzero"/>
	</g>
</svg>
