<svg width="20.000000" height="20.000000" viewBox="0 0 20 20" fill="none" xmlns="http://www.w3.org/2000/svg">
	<desc>
			Created with Pixso.
	</desc>
	<defs>
		<clipPath id="clip170_64">
			<rect id="structure_logo" width="20.000000" height="20.000000" fill="white" fill-opacity="0"/>
		</clipPath>
	</defs>
	<g clip-path="url(#clip170_64)">
		<path id="path" d="M7.35 5.38C7.35 5.96 7.12 6.47 6.71 6.89C6.29 7.3 5.79 7.52 5.21 7.52C4.62 7.52 4.1 7.3 3.68 6.89C3.26 6.47 3.05 5.96 3.05 5.38C3.05 4.78 3.26 4.27 3.68 3.85C4.1 3.43 4.62 3.23 5.21 3.23C5.79 3.23 6.29 3.43 6.71 3.85C7.12 4.27 7.35 4.78 7.35 5.38ZM17.34 5.38C17.34 5.96 17.14 6.47 16.71 6.89C16.3 7.3 15.78 7.52 15.2 7.52C14.61 7.52 14.1 7.3 13.69 6.89C13.27 6.47 13.05 5.96 13.05 5.38C13.05 4.78 13.27 4.27 13.69 3.85C14.1 3.43 14.61 3.23 15.2 3.23C15.78 3.23 16.3 3.43 16.71 3.85C17.14 4.27 17.34 4.78 17.34 5.38ZM7.35 15.38C7.35 15.96 7.12 16.48 6.71 16.9C6.29 17.31 5.79 17.52 5.21 17.52C4.62 17.52 4.1 17.31 3.68 16.9C3.26 16.48 3.05 15.96 3.05 15.38C3.05 14.78 3.26 14.28 3.68 13.86C4.1 13.44 4.62 13.23 5.21 13.23C5.79 13.23 6.29 13.44 6.71 13.86C7.12 14.28 7.35 14.78 7.35 15.38ZM17.34 15.38C17.34 15.96 17.14 16.48 16.71 16.9C16.3 17.31 15.78 17.52 15.2 17.52C14.61 17.52 14.1 17.31 13.69 16.9C13.27 16.48 13.05 15.96 13.05 15.38C13.05 14.78 13.27 14.28 13.69 13.86C14.1 13.44 14.61 13.23 15.2 13.23C15.78 13.23 16.3 13.44 16.71 13.86C17.14 14.28 17.34 14.78 17.34 15.38Z" fill="#000000" fill-opacity="0" fill-rule="nonzero"/>
		<path id="path" d="M6.71 6.89C6.29 7.3 5.79 7.52 5.21 7.52C4.62 7.52 4.1 7.3 3.68 6.89C3.26 6.47 3.05 5.96 3.05 5.38C3.05 4.78 3.26 4.27 3.68 3.85C4.1 3.43 4.62 3.23 5.21 3.23C5.79 3.23 6.29 3.43 6.71 3.85C7.12 4.27 7.35 4.78 7.35 5.38C7.35 5.96 7.12 6.47 6.71 6.89ZM16.71 6.89C16.3 7.3 15.78 7.52 15.2 7.52C14.61 7.52 14.1 7.3 13.69 6.89C13.27 6.47 13.05 5.96 13.05 5.38C13.05 4.78 13.27 4.27 13.69 3.85C14.1 3.43 14.61 3.23 15.2 3.23C15.78 3.23 16.3 3.43 16.71 3.85C17.14 4.27 17.34 4.78 17.34 5.38C17.34 5.96 17.14 6.47 16.71 6.89ZM6.71 16.9C6.29 17.31 5.79 17.52 5.21 17.52C4.62 17.52 4.1 17.31 3.68 16.9C3.26 16.48 3.05 15.96 3.05 15.38C3.05 14.78 3.26 14.28 3.68 13.86C4.1 13.44 4.62 13.23 5.21 13.23C5.79 13.23 6.29 13.44 6.71 13.86C7.12 14.28 7.35 14.78 7.35 15.38C7.35 15.96 7.12 16.48 6.71 16.9ZM16.71 16.9C16.3 17.31 15.78 17.52 15.2 17.52C14.61 17.52 14.1 17.31 13.69 16.9C13.27 16.48 13.05 15.96 13.05 15.38C13.05 14.78 13.27 14.28 13.69 13.86C14.1 13.44 14.61 13.23 15.2 13.23C15.78 13.23 16.3 13.44 16.71 13.86C17.14 14.28 17.34 14.78 17.34 15.38C17.34 15.96 17.14 16.48 16.71 16.9Z" fill="#000000" fill-opacity="0" fill-rule="nonzero"/>
		<path id="path" d="M5.21 7.52C4.62 7.52 4.1 7.3 3.68 6.89C3.26 6.47 3.05 5.96 3.05 5.38C3.05 4.78 3.26 4.27 3.68 3.85C4.1 3.43 4.62 3.23 5.21 3.23C5.79 3.23 6.29 3.43 6.71 3.85C7.12 4.27 7.35 4.78 7.35 5.38C7.35 5.96 7.12 6.47 6.71 6.89C6.29 7.3 5.79 7.52 5.21 7.52ZM15.2 7.52C14.61 7.52 14.1 7.3 13.69 6.89C13.27 6.47 13.05 5.96 13.05 5.38C13.05 4.78 13.27 4.27 13.69 3.85C14.1 3.43 14.61 3.23 15.2 3.23C15.78 3.23 16.3 3.43 16.71 3.85C17.14 4.27 17.34 4.78 17.34 5.38C17.34 5.96 17.14 6.47 16.71 6.89C16.3 7.3 15.78 7.52 15.2 7.52ZM5.21 17.52C4.62 17.52 4.1 17.31 3.68 16.9C3.26 16.48 3.05 15.96 3.05 15.38C3.05 14.78 3.26 14.28 3.68 13.86C4.1 13.44 4.62 13.23 5.21 13.23C5.79 13.23 6.29 13.44 6.71 13.86C7.12 14.28 7.35 14.78 7.35 15.38C7.35 15.96 7.12 16.48 6.71 16.9C6.29 17.31 5.79 17.52 5.21 17.52ZM15.2 17.52C14.61 17.52 14.1 17.31 13.69 16.9C13.27 16.48 13.05 15.96 13.05 15.38C13.05 14.78 13.27 14.28 13.69 13.86C14.1 13.44 14.61 13.23 15.2 13.23C15.78 13.23 16.3 13.44 16.71 13.86C17.14 14.28 17.34 14.78 17.34 15.38C17.34 15.96 17.14 16.48 16.71 16.9C16.3 17.31 15.78 17.52 15.2 17.52Z" fill="#000000" fill-opacity="0" fill-rule="nonzero"/>
		<path id="path" d="M3.68 6.89C3.26 6.47 3.05 5.96 3.05 5.38C3.05 4.78 3.26 4.27 3.68 3.85C4.1 3.43 4.62 3.23 5.21 3.23C5.79 3.23 6.29 3.43 6.71 3.85C7.12 4.27 7.35 4.78 7.35 5.38C7.35 5.96 7.12 6.47 6.71 6.89C6.29 7.3 5.79 7.52 5.21 7.52C4.62 7.52 4.1 7.3 3.68 6.89ZM13.69 6.89C13.27 6.47 13.05 5.96 13.05 5.38C13.05 4.78 13.27 4.27 13.69 3.85C14.1 3.43 14.61 3.23 15.2 3.23C15.78 3.23 16.3 3.43 16.71 3.85C17.14 4.27 17.34 4.78 17.34 5.38C17.34 5.96 17.14 6.47 16.71 6.89C16.3 7.3 15.78 7.52 15.2 7.52C14.61 7.52 14.1 7.3 13.69 6.89ZM3.68 16.9C3.26 16.48 3.05 15.96 3.05 15.38C3.05 14.78 3.26 14.28 3.68 13.86C4.1 13.44 4.62 13.23 5.21 13.23C5.79 13.23 6.29 13.44 6.71 13.86C7.12 14.28 7.35 14.78 7.35 15.38C7.35 15.96 7.12 16.48 6.71 16.9C6.29 17.31 5.79 17.52 5.21 17.52C4.62 17.52 4.1 17.31 3.68 16.9ZM13.69 16.9C13.27 16.48 13.05 15.96 13.05 15.38C13.05 14.78 13.27 14.28 13.69 13.86C14.1 13.44 14.61 13.23 15.2 13.23C15.78 13.23 16.3 13.44 16.71 13.86C17.14 14.28 17.34 14.78 17.34 15.38C17.34 15.96 17.14 16.48 16.71 16.9C16.3 17.31 15.78 17.52 15.2 17.52C14.61 17.52 14.1 17.31 13.69 16.9Z" stroke="#CED0D6" stroke-opacity="1.000000" stroke-width="1.700000"/>
		<path id="path" d="M7.37 6.13C6.92 6.13 6.56 5.81 6.56 5.38C6.56 4.93 6.9 4.58 7.35 4.58L7.37 6.13ZM13.03 4.61C13.48 4.61 13.84 4.93 13.84 5.38C13.84 5.81 13.49 6.16 13.05 6.16L13.03 4.61ZM15.97 13.21C15.97 13.65 15.63 14.03 15.2 14.03C14.76 14.03 14.42 13.66 14.42 13.23L15.97 13.21ZM14.43 11.1C14.43 10.67 14.76 10.3 15.2 10.3C15.63 10.3 15.98 10.65 15.98 11.08L14.43 11.1ZM14.43 7.54C14.43 7.1 14.76 6.74 15.2 6.74C15.63 6.74 15.98 7.08 15.98 7.52L14.43 7.54ZM15.97 8.22C15.97 8.65 15.63 9.02 15.2 9.02C14.76 9.02 14.42 8.67 14.42 8.24L15.97 8.22ZM13.03 14.61C13.48 14.61 13.84 14.93 13.84 15.38C13.84 15.82 13.49 16.17 13.05 16.17L13.03 14.61ZM10.94 16.14C10.49 16.14 10.12 15.82 10.12 15.38C10.12 14.93 10.48 14.6 10.91 14.6L10.94 16.14ZM8.75 14.61C9.18 14.61 9.56 14.93 9.56 15.38C9.56 15.82 9.21 16.17 8.77 16.17L8.75 14.61ZM7.37 16.14C6.92 16.14 6.56 15.82 6.56 15.38C6.56 14.93 6.9 14.6 7.35 14.6L7.37 16.14ZM5.96 13.21C5.96 13.65 5.64 14.03 5.21 14.03C4.76 14.03 4.42 13.66 4.42 13.23L5.96 13.21ZM4.44 7.54C4.44 7.1 4.76 6.74 5.21 6.74C5.64 6.74 5.98 7.08 5.98 7.52L4.44 7.54Z" fill="#000000" fill-opacity="0" fill-rule="nonzero"/>
		<path id="path" d="" fill="#000000" fill-opacity="0" fill-rule="nonzero"/>
		<path id="path" d="M7.35 5.38L13.05 5.38M15.2 13.23L15.2 11.08M15.2 7.52L15.2 8.24M13.05 15.38L10.91 15.38M8.77 15.38L7.35 15.38M5.21 13.23L5.21 7.52" stroke="#CED0D6" stroke-opacity="1.000000" stroke-width="1.700000"/>
	</g>
</svg>
