<svg width="21.000000" height="21.000000" viewBox="0 0 21 21" fill="none" xmlns="http://www.w3.org/2000/svg">
	<desc>
			Created with Pixso.
	</desc>
	<defs>
		<clipPath id="clip170_53">
			<rect id="structure_logo" width="21.000000" height="21.000000" fill="white" fill-opacity="0"/>
		</clipPath>
	</defs>
	<g clip-path="url(#clip170_53)">
		<path id="path" d="M7.71 5.64C7.71 6.26 7.48 6.79 7.05 7.23C6.6 7.66 6.08 7.89 5.47 7.89C4.85 7.89 4.3 7.66 3.86 7.23C3.43 6.79 3.2 6.26 3.2 5.64C3.2 5.02 3.43 4.48 3.86 4.04C4.3 3.6 4.85 3.39 5.47 3.39C6.08 3.39 6.6 3.6 7.05 4.04C7.48 4.48 7.71 5.02 7.71 5.64ZM18.2 5.64C18.2 6.26 18 6.79 17.55 7.23C17.12 7.66 16.57 7.89 15.96 7.89C15.34 7.89 14.81 7.66 14.37 7.23C13.93 6.79 13.71 6.26 13.71 5.64C13.71 5.02 13.93 4.48 14.37 4.04C14.81 3.6 15.34 3.39 15.96 3.39C16.57 3.39 17.12 3.6 17.55 4.04C18 4.48 18.2 5.02 18.2 5.64ZM7.71 16.15C7.71 16.76 7.48 17.31 7.05 17.75C6.6 18.17 6.08 18.39 5.47 18.39C4.85 18.39 4.3 18.17 3.86 17.75C3.43 17.31 3.2 16.76 3.2 16.15C3.2 15.52 3.43 15 3.86 14.56C4.3 14.12 4.85 13.9 5.47 13.9C6.08 13.9 6.6 14.12 7.05 14.56C7.48 15 7.71 15.52 7.71 16.15ZM18.2 16.15C18.2 16.76 18 17.31 17.55 17.75C17.12 18.17 16.57 18.39 15.96 18.39C15.34 18.39 14.81 18.17 14.37 17.75C13.93 17.31 13.71 16.76 13.71 16.15C13.71 15.52 13.93 15 14.37 14.56C14.81 14.12 15.34 13.9 15.96 13.9C16.57 13.9 17.12 14.12 17.55 14.56C18 15 18.2 15.52 18.2 16.15Z" fill="#000000" fill-opacity="0" fill-rule="nonzero"/>
		<path id="path" d="M7.05 7.23C6.6 7.66 6.08 7.89 5.47 7.89C4.85 7.89 4.3 7.66 3.86 7.23C3.43 6.79 3.2 6.26 3.2 5.64C3.2 5.02 3.43 4.48 3.86 4.04C4.3 3.6 4.85 3.39 5.47 3.39C6.08 3.39 6.6 3.6 7.05 4.04C7.48 4.48 7.71 5.02 7.71 5.64C7.71 6.26 7.48 6.79 7.05 7.23ZM17.55 7.23C17.12 7.66 16.57 7.89 15.96 7.89C15.34 7.89 14.81 7.66 14.37 7.23C13.93 6.79 13.71 6.26 13.71 5.64C13.71 5.02 13.93 4.48 14.37 4.04C14.81 3.6 15.34 3.39 15.96 3.39C16.57 3.39 17.12 3.6 17.55 4.04C18 4.48 18.2 5.02 18.2 5.64C18.2 6.26 18 6.79 17.55 7.23ZM7.05 17.75C6.6 18.17 6.08 18.39 5.47 18.39C4.85 18.39 4.3 18.17 3.86 17.75C3.43 17.31 3.2 16.76 3.2 16.15C3.2 15.52 3.43 15 3.86 14.56C4.3 14.12 4.85 13.9 5.47 13.9C6.08 13.9 6.6 14.12 7.05 14.56C7.48 15 7.71 15.52 7.71 16.15C7.71 16.76 7.48 17.31 7.05 17.75ZM17.55 17.75C17.12 18.17 16.57 18.39 15.96 18.39C15.34 18.39 14.81 18.17 14.37 17.75C13.93 17.31 13.71 16.76 13.71 16.15C13.71 15.52 13.93 15 14.37 14.56C14.81 14.12 15.34 13.9 15.96 13.9C16.57 13.9 17.12 14.12 17.55 14.56C18 15 18.2 15.52 18.2 16.15C18.2 16.76 18 17.31 17.55 17.75Z" fill="#000000" fill-opacity="0" fill-rule="nonzero"/>
		<path id="path" d="M5.47 7.89C4.85 7.89 4.3 7.66 3.86 7.23C3.43 6.79 3.2 6.26 3.2 5.64C3.2 5.02 3.43 4.48 3.86 4.04C4.3 3.6 4.85 3.39 5.47 3.39C6.08 3.39 6.6 3.6 7.05 4.04C7.48 4.48 7.71 5.02 7.71 5.64C7.71 6.26 7.48 6.79 7.05 7.23C6.6 7.66 6.08 7.89 5.47 7.89ZM15.96 7.89C15.34 7.89 14.81 7.66 14.37 7.23C13.93 6.79 13.71 6.26 13.71 5.64C13.71 5.02 13.93 4.48 14.37 4.04C14.81 3.6 15.34 3.39 15.96 3.39C16.57 3.39 17.12 3.6 17.55 4.04C18 4.48 18.2 5.02 18.2 5.64C18.2 6.26 18 6.79 17.55 7.23C17.12 7.66 16.57 7.89 15.96 7.89ZM5.47 18.39C4.85 18.39 4.3 18.17 3.86 17.75C3.43 17.31 3.2 16.76 3.2 16.15C3.2 15.52 3.43 15 3.86 14.56C4.3 14.12 4.85 13.9 5.47 13.9C6.08 13.9 6.6 14.12 7.05 14.56C7.48 15 7.71 15.52 7.71 16.15C7.71 16.76 7.48 17.31 7.05 17.75C6.6 18.17 6.08 18.39 5.47 18.39ZM15.96 18.39C15.34 18.39 14.81 18.17 14.37 17.75C13.93 17.31 13.71 16.76 13.71 16.15C13.71 15.52 13.93 15 14.37 14.56C14.81 14.12 15.34 13.9 15.96 13.9C16.57 13.9 17.12 14.12 17.55 14.56C18 15 18.2 15.52 18.2 16.15C18.2 16.76 18 17.31 17.55 17.75C17.12 18.17 16.57 18.39 15.96 18.39Z" fill="#000000" fill-opacity="0" fill-rule="nonzero"/>
		<path id="path" d="M3.86 7.23C3.43 6.79 3.2 6.26 3.2 5.64C3.2 5.02 3.43 4.48 3.86 4.04C4.3 3.6 4.85 3.39 5.47 3.39C6.08 3.39 6.6 3.6 7.05 4.04C7.48 4.48 7.71 5.02 7.71 5.64C7.71 6.26 7.48 6.79 7.05 7.23C6.6 7.66 6.08 7.89 5.47 7.89C4.85 7.89 4.3 7.66 3.86 7.23ZM14.37 7.23C13.93 6.79 13.71 6.26 13.71 5.64C13.71 5.02 13.93 4.48 14.37 4.04C14.81 3.6 15.34 3.39 15.96 3.39C16.57 3.39 17.12 3.6 17.55 4.04C18 4.48 18.2 5.02 18.2 5.64C18.2 6.26 18 6.79 17.55 7.23C17.12 7.66 16.57 7.89 15.96 7.89C15.34 7.89 14.81 7.66 14.37 7.23ZM3.86 17.75C3.43 17.31 3.2 16.76 3.2 16.15C3.2 15.52 3.43 15 3.86 14.56C4.3 14.12 4.85 13.9 5.47 13.9C6.08 13.9 6.6 14.12 7.05 14.56C7.48 15 7.71 15.52 7.71 16.15C7.71 16.76 7.48 17.31 7.05 17.75C6.6 18.17 6.08 18.39 5.47 18.39C4.85 18.39 4.3 18.17 3.86 17.75ZM14.37 17.75C13.93 17.31 13.71 16.76 13.71 16.15C13.71 15.52 13.93 15 14.37 14.56C14.81 14.12 15.34 13.9 15.96 13.9C16.57 13.9 17.12 14.12 17.55 14.56C18 15 18.2 15.52 18.2 16.15C18.2 16.76 18 17.31 17.55 17.75C17.12 18.17 16.57 18.39 15.96 18.39C15.34 18.39 14.81 18.17 14.37 17.75Z" stroke="#6C707E" stroke-opacity="1.000000" stroke-width="1.375000"/>
		<path id="path" d="M7.74 6.44C7.27 6.44 6.89 6.1 6.89 5.64C6.89 5.18 7.25 4.81 7.71 4.81L7.74 6.44ZM13.68 4.84C14.15 4.84 14.54 5.18 14.54 5.64C14.54 6.1 14.16 6.46 13.71 6.46L13.68 4.84ZM16.77 13.87C16.77 14.34 16.41 14.73 15.96 14.73C15.5 14.73 15.14 14.35 15.14 13.9L16.77 13.87ZM15.15 11.66C15.15 11.21 15.5 10.82 15.96 10.82C16.41 10.82 16.78 11.18 16.78 11.63L15.15 11.66ZM15.15 7.92C15.15 7.45 15.5 7.07 15.96 7.07C16.41 7.07 16.78 7.43 16.78 7.89L15.15 7.92ZM16.77 8.63C16.77 9.08 16.41 9.47 15.96 9.47C15.5 9.47 15.14 9.1 15.14 8.65L16.77 8.63ZM13.68 15.34C14.15 15.34 14.54 15.68 14.54 16.15C14.54 16.61 14.16 16.98 13.71 16.98L13.68 15.34ZM11.48 16.95C11.01 16.95 10.63 16.61 10.63 16.15C10.63 15.68 11 15.33 11.46 15.33L11.48 16.95ZM9.19 15.34C9.64 15.34 10.04 15.68 10.04 16.15C10.04 16.61 9.67 16.98 9.21 16.98L9.19 15.34ZM7.74 16.95C7.27 16.95 6.89 16.61 6.89 16.15C6.89 15.68 7.25 15.33 7.71 15.33L7.74 16.95ZM6.26 13.87C6.26 14.34 5.92 14.73 5.47 14.73C5 14.73 4.64 14.35 4.64 13.9L6.26 13.87ZM4.66 7.92C4.66 7.45 5 7.07 5.47 7.07C5.92 7.07 6.28 7.43 6.28 7.89L4.66 7.92Z" fill="#000000" fill-opacity="0" fill-rule="nonzero"/>
		<path id="path" d="" fill="#000000" fill-opacity="0" fill-rule="nonzero"/>
		<path id="path" d="M7.71 5.64L13.71 5.64M15.96 13.9L15.96 11.63M15.96 7.89L15.96 8.65M13.71 16.15L11.46 16.15M9.21 16.15L7.71 16.15M5.47 13.9L5.47 7.89" stroke="#6C707E" stroke-opacity="1.000000" stroke-width="1.375000"/>
	</g>
</svg>
