<svg width="18.000000" height="18.000000" viewBox="0 0 18 18" fill="none" xmlns="http://www.w3.org/2000/svg">
	<desc>
			Created with Pixso.
	</desc>
	<defs>
		<clipPath id="clip181_39">
			<rect id="SlidersHorizontal" width="18.000000" height="18.000000" fill="white" fill-opacity="0"/>
		</clipPath>
	</defs>
	<g clip-path="url(#clip181_39)">
		<path id="path" d="M2.81 6.47L5.13 6.47C5.19 6.71 5.29 6.94 5.43 7.15C5.56 7.35 5.73 7.54 5.93 7.69C6.13 7.84 6.34 7.96 6.58 8.04C6.81 8.12 7.06 8.16 7.31 8.16C7.56 8.16 7.8 8.12 8.04 8.04C8.27 7.96 8.49 7.84 8.69 7.69C8.88 7.54 9.05 7.35 9.19 7.15C9.33 6.94 9.43 6.71 9.49 6.47L15.18 6.47C15.26 6.47 15.33 6.45 15.4 6.43C15.47 6.4 15.53 6.36 15.58 6.3C15.63 6.25 15.67 6.19 15.7 6.12C15.73 6.05 15.75 5.98 15.75 5.91C15.75 5.83 15.73 5.76 15.7 5.69C15.67 5.62 15.63 5.56 15.58 5.51C15.53 5.46 15.47 5.42 15.4 5.39C15.33 5.36 15.26 5.34 15.18 5.34L9.49 5.34C9.43 5.1 9.33 4.88 9.19 4.67C9.05 4.46 8.88 4.28 8.69 4.12C8.49 3.97 8.27 3.85 8.04 3.77C7.8 3.69 7.56 3.65 7.31 3.65C7.06 3.65 6.81 3.69 6.58 3.77C6.34 3.85 6.13 3.97 5.93 4.12C5.73 4.28 5.56 4.46 5.43 4.67C5.29 4.88 5.19 5.1 5.13 5.34L2.81 5.34C2.73 5.34 2.66 5.36 2.59 5.39C2.52 5.42 2.46 5.46 2.41 5.51C2.36 5.56 2.32 5.62 2.29 5.69C2.26 5.76 2.25 5.83 2.25 5.91C2.25 5.98 2.26 6.05 2.29 6.12C2.32 6.19 2.36 6.25 2.41 6.3C2.46 6.36 2.52 6.4 2.59 6.43C2.66 6.45 2.73 6.47 2.81 6.47ZM7.31 4.78C7.46 4.78 7.6 4.81 7.74 4.87C7.88 4.92 8 5.01 8.1 5.11C8.21 5.22 8.29 5.34 8.35 5.48C8.4 5.61 8.43 5.76 8.43 5.91C8.43 6.06 8.4 6.2 8.35 6.34C8.29 6.47 8.21 6.6 8.1 6.7C8 6.81 7.88 6.89 7.74 6.95C7.6 7 7.46 7.03 7.31 7.03C7.16 7.03 7.01 7 6.88 6.95C6.74 6.89 6.62 6.81 6.51 6.7C6.41 6.6 6.33 6.47 6.27 6.34C6.21 6.2 6.18 6.06 6.18 5.91C6.18 5.76 6.21 5.61 6.27 5.48C6.33 5.34 6.41 5.22 6.51 5.11C6.62 5.01 6.74 4.92 6.88 4.87C7.01 4.81 7.16 4.78 7.31 4.78ZM15.18 12.09L13.99 12.09C13.93 11.85 13.83 11.63 13.69 11.42C13.55 11.21 13.38 11.03 13.19 10.87C12.99 10.72 12.77 10.6 12.54 10.52C12.3 10.44 12.06 10.4 11.81 10.4C11.56 10.4 11.31 10.44 11.08 10.52C10.84 10.6 10.63 10.72 10.43 10.87C10.23 11.03 10.06 11.21 9.93 11.42C9.79 11.63 9.69 11.85 9.63 12.09L2.81 12.09C2.73 12.09 2.66 12.11 2.59 12.14C2.52 12.17 2.46 12.21 2.41 12.26C2.36 12.31 2.32 12.37 2.29 12.44C2.26 12.51 2.25 12.58 2.25 12.66C2.25 12.73 2.26 12.8 2.29 12.87C2.32 12.94 2.36 13 2.41 13.05C2.46 13.11 2.52 13.15 2.59 13.18C2.66 13.2 2.73 13.22 2.81 13.22L9.63 13.22C9.69 13.46 9.79 13.69 9.93 13.9C10.06 14.1 10.23 14.29 10.43 14.44C10.63 14.59 10.84 14.71 11.08 14.79C11.31 14.87 11.56 14.91 11.81 14.91C12.06 14.91 12.3 14.87 12.54 14.79C12.77 14.71 12.99 14.59 13.19 14.44C13.38 14.29 13.55 14.1 13.69 13.9C13.83 13.69 13.93 13.46 13.99 13.22L15.18 13.22C15.26 13.22 15.33 13.2 15.4 13.18C15.47 13.15 15.53 13.11 15.58 13.05C15.63 13 15.67 12.94 15.7 12.87C15.73 12.8 15.75 12.73 15.75 12.66C15.75 12.58 15.73 12.51 15.7 12.44C15.67 12.37 15.63 12.31 15.58 12.26C15.53 12.21 15.47 12.17 15.4 12.14C15.33 12.11 15.26 12.09 15.18 12.09ZM11.81 13.78C11.66 13.78 11.51 13.75 11.38 13.7C11.24 13.64 11.12 13.56 11.01 13.45C10.91 13.35 10.83 13.22 10.77 13.09C10.71 12.95 10.68 12.81 10.68 12.66C10.68 12.51 10.71 12.36 10.77 12.23C10.83 12.09 10.91 11.97 11.01 11.86C11.12 11.76 11.24 11.67 11.38 11.62C11.51 11.56 11.66 11.53 11.81 11.53C11.96 11.53 12.1 11.56 12.24 11.62C12.38 11.67 12.5 11.76 12.6 11.86C12.71 11.97 12.79 12.09 12.85 12.23C12.9 12.36 12.93 12.51 12.93 12.66C12.93 12.81 12.9 12.95 12.85 13.09C12.79 13.22 12.71 13.35 12.6 13.45C12.5 13.56 12.38 13.64 12.24 13.7C12.1 13.75 11.96 13.78 11.81 13.78Z" fill="#CED0D6" fill-opacity="1.000000" fill-rule="nonzero"/>
		<path id="path" d="M5.13 6.47C5.19 6.71 5.29 6.94 5.43 7.15C5.56 7.35 5.73 7.54 5.93 7.69C6.13 7.84 6.34 7.96 6.58 8.04C6.81 8.12 7.06 8.16 7.31 8.16C7.56 8.16 7.8 8.12 8.04 8.04C8.27 7.96 8.49 7.84 8.69 7.69C8.88 7.54 9.05 7.35 9.19 7.15C9.33 6.94 9.43 6.71 9.49 6.47L15.18 6.47C15.26 6.47 15.33 6.45 15.4 6.43C15.47 6.4 15.53 6.36 15.58 6.3C15.63 6.25 15.67 6.19 15.7 6.12C15.73 6.05 15.75 5.98 15.75 5.91C15.75 5.83 15.73 5.76 15.7 5.69C15.67 5.62 15.63 5.56 15.58 5.51C15.53 5.46 15.47 5.42 15.4 5.39C15.33 5.36 15.26 5.34 15.18 5.34L9.49 5.34C9.43 5.1 9.33 4.88 9.19 4.67C9.05 4.46 8.88 4.28 8.69 4.12C8.49 3.97 8.27 3.85 8.04 3.77C7.8 3.69 7.56 3.65 7.31 3.65C7.06 3.65 6.81 3.69 6.58 3.77C6.34 3.85 6.13 3.97 5.93 4.12C5.73 4.28 5.56 4.46 5.43 4.67C5.29 4.88 5.19 5.1 5.13 5.34L2.81 5.34C2.73 5.34 2.66 5.36 2.59 5.39C2.52 5.42 2.46 5.46 2.41 5.51C2.36 5.56 2.32 5.62 2.29 5.69C2.26 5.76 2.25 5.83 2.25 5.91C2.25 5.98 2.26 6.05 2.29 6.12C2.32 6.19 2.36 6.25 2.41 6.3C2.46 6.36 2.52 6.4 2.59 6.43C2.66 6.45 2.73 6.47 2.81 6.47L5.13 6.47ZM7.74 4.87C7.88 4.92 8 5.01 8.1 5.11C8.21 5.22 8.29 5.34 8.35 5.48C8.4 5.61 8.43 5.76 8.43 5.91C8.43 6.06 8.4 6.2 8.35 6.34C8.29 6.47 8.21 6.6 8.1 6.7C8 6.81 7.88 6.89 7.74 6.95C7.6 7 7.46 7.03 7.31 7.03C7.16 7.03 7.01 7 6.88 6.95C6.74 6.89 6.62 6.81 6.51 6.7C6.41 6.6 6.33 6.47 6.27 6.34C6.21 6.2 6.18 6.06 6.18 5.91C6.18 5.76 6.21 5.61 6.27 5.48C6.33 5.34 6.41 5.22 6.51 5.11C6.62 5.01 6.74 4.92 6.88 4.87C7.01 4.81 7.16 4.78 7.31 4.78C7.46 4.78 7.6 4.81 7.74 4.87ZM13.99 12.09C13.93 11.85 13.83 11.63 13.69 11.42C13.55 11.21 13.38 11.03 13.19 10.87C12.99 10.72 12.77 10.6 12.54 10.52C12.3 10.44 12.06 10.4 11.81 10.4C11.56 10.4 11.31 10.44 11.08 10.52C10.84 10.6 10.63 10.72 10.43 10.87C10.23 11.03 10.06 11.21 9.93 11.42C9.79 11.63 9.69 11.85 9.63 12.09L2.81 12.09C2.73 12.09 2.66 12.11 2.59 12.14C2.52 12.17 2.46 12.21 2.41 12.26C2.36 12.31 2.32 12.37 2.29 12.44C2.26 12.51 2.25 12.58 2.25 12.66C2.25 12.73 2.26 12.8 2.29 12.87C2.32 12.94 2.36 13 2.41 13.05C2.46 13.11 2.52 13.15 2.59 13.18C2.66 13.2 2.73 13.22 2.81 13.22L9.63 13.22C9.69 13.46 9.79 13.69 9.93 13.9C10.06 14.1 10.23 14.29 10.43 14.44C10.63 14.59 10.84 14.71 11.08 14.79C11.31 14.87 11.56 14.91 11.81 14.91C12.06 14.91 12.3 14.87 12.54 14.79C12.77 14.71 12.99 14.59 13.19 14.44C13.38 14.29 13.55 14.1 13.69 13.9C13.83 13.69 13.93 13.46 13.99 13.22L15.18 13.22C15.26 13.22 15.33 13.2 15.4 13.18C15.47 13.15 15.53 13.11 15.58 13.05C15.63 13 15.67 12.94 15.7 12.87C15.73 12.8 15.75 12.73 15.75 12.66C15.75 12.58 15.73 12.51 15.7 12.44C15.67 12.37 15.63 12.31 15.58 12.26C15.53 12.21 15.47 12.17 15.4 12.14C15.33 12.11 15.26 12.09 15.18 12.09L13.99 12.09ZM11.38 13.7C11.24 13.64 11.12 13.56 11.01 13.45C10.91 13.35 10.83 13.22 10.77 13.09C10.71 12.95 10.68 12.81 10.68 12.66C10.68 12.51 10.71 12.36 10.77 12.23C10.83 12.09 10.91 11.97 11.01 11.86C11.12 11.76 11.24 11.67 11.38 11.62C11.51 11.56 11.66 11.53 11.81 11.53C11.96 11.53 12.1 11.56 12.24 11.62C12.38 11.67 12.5 11.76 12.6 11.86C12.71 11.97 12.79 12.09 12.85 12.23C12.9 12.36 12.93 12.51 12.93 12.66C12.93 12.81 12.9 12.95 12.85 13.09C12.79 13.22 12.71 13.35 12.6 13.45C12.5 13.56 12.38 13.64 12.24 13.7C12.1 13.75 11.96 13.78 11.81 13.78C11.66 13.78 11.51 13.75 11.38 13.7Z" stroke="#CED0D6" stroke-opacity="1.000000" stroke-width="0.500000"/>
	</g>
</svg>
