<svg width="18.000000" height="18.000000" viewBox="0 0 18 18" fill="none" xmlns="http://www.w3.org/2000/svg">
	<desc>
			Created with Pixso.
	</desc>
	<defs>
		<clipPath id="clip200_6">
			<rect id="svg" width="18.000000" height="18.000000" fill="white" fill-opacity="0"/>
		</clipPath>
	</defs>
	<g clip-path="url(#clip200_6)">
		<path id="path" d="M11.27 9.97L11.25 10C10.68 10 10.25 9.56 10.25 9C10.25 8.43 10.68 8 11.25 8L11.27 8.02L11.27 9.97ZM15.73 8.02L15.75 8C16.31 8 16.75 8.43 16.75 9C16.75 9.56 16.31 10 15.75 10L15.73 9.97L15.73 8.02ZM11.27 5.47L11.25 5.5C10.68 5.5 10.25 5.06 10.25 4.5C10.25 3.93 10.68 3.5 11.25 3.5L11.27 3.52L11.27 5.47ZM15.73 3.52L15.75 3.5C16.31 3.5 16.75 3.93 16.75 4.5C16.75 5.06 16.31 5.5 15.75 5.5L15.73 5.47L15.73 3.52ZM3.14 10.14L3.15 10.16C2.92 10.67 2.34 10.89 1.83 10.65C1.32 10.42 1.1 9.84 1.34 9.33L1.36 9.32L3.14 10.14ZM9.13 9.32L9.15 9.33C9.39 9.84 9.17 10.42 8.66 10.65C8.15 10.89 7.57 10.67 7.34 10.16L7.35 10.14L9.13 9.32ZM2.27 14.48L2.25 14.5C1.68 14.5 1.25 14.06 1.25 13.5C1.25 12.93 1.68 12.5 2.25 12.5L2.27 12.52L2.27 14.48ZM15.73 12.52L15.75 12.5C16.31 12.5 16.75 12.93 16.75 13.5C16.75 14.06 16.31 14.5 15.75 14.5L15.73 14.48L15.73 12.52ZM3.02 9.22L3 9.25C2.43 9.25 2 8.81 2 8.25C2 7.68 2.43 7.25 3 7.25L3.02 7.27L3.02 9.22ZM7.47 7.27L7.5 7.25C8.06 7.25 8.5 7.68 8.5 8.25C8.5 8.81 8.06 9.25 7.5 9.25L7.47 9.22L7.47 7.27Z" fill="#000000" fill-opacity="0" fill-rule="nonzero"/>
		<path id="path" d="M11.25 9L15.75 9M11.25 4.5L15.75 4.5M2.25 9.75L4.91 3.95C4.98 3.81 5.09 3.75 5.25 3.75C5.4 3.75 5.51 3.81 5.58 3.95L8.25 9.75M2.25 13.5L15.75 13.5M3 8.25L7.5 8.25" stroke="#CED0D6" stroke-opacity="1.000000" stroke-width="2.000000" stroke-linejoin="round" stroke-linecap="round"/>
	</g>
</svg>
