<svg viewBox="0 0 16 16" xmlns="http://www.w3.org/2000/svg" width="16.000000" height="16.000000" fill="none">
	<rect id="json5Node" width="16.000000" height="16.000000" x="0.000000" y="0.000000" />
	<path id="减去顶层" d="M14.5 8C14.5 4.41015 11.5899 1.5 8 1.5C4.41015 1.5 1.5 4.41015 1.5 8C1.5 11.5899 4.41015 14.5 8 14.5C8.43814 14.5 8.86616 14.4566 9.28 14.374C9.09976 13.9522 9 13.4877 9 13C9 11.067 10.567 9.5 12.5 9.5C13.1189 9.5 13.7003 9.66065 14.2048 9.94252C14.3966 9.32912 14.5 8.67663 14.5 8Z" fill="rgb(37,50,77)" fill-rule="evenodd" />
	<path id="减去顶层" d="M14.5 8C14.5 4.41015 11.5899 1.5 8 1.5C4.41015 1.5 1.5 4.41015 1.5 8C1.5 11.5899 4.41015 14.5 8 14.5C8.43814 14.5 8.86616 14.4566 9.28 14.374C9.09976 13.9522 9 13.4877 9 13C9 11.067 10.567 9.5 12.5 9.5C13.1189 9.5 13.7003 9.66065 14.2048 9.94252C14.3966 9.32912 14.5 8.67663 14.5 8Z" fill-rule="evenodd" stroke="rgb(53,116,240)" stroke-width="1.000000" />
	<path id="" d="M10.0258 4.67346L9.23281 8.36096C9.21979 8.387 9.20937 8.42997 9.20156 8.48987C9.03229 9.27893 8.76536 9.81083 8.40078 10.0856C8.0362 10.3603 7.50755 10.4977 6.81484 10.4977C6.5362 10.4977 6.28099 10.4853 6.04922 10.4606C5.81745 10.4358 5.58372 10.3727 5.34805 10.2711C5.11237 10.1696 4.91836 10.0061 4.76601 9.78088C4.61367 9.55562 4.5375 9.25549 4.5375 8.88049C4.5375 8.77372 4.55052 8.63961 4.57656 8.47815L6.24844 8.28674L6.24844 8.35315C6.23802 8.42607 6.23281 8.50028 6.23281 8.57581L6.23281 8.6969C6.23281 9.012 6.40599 9.16956 6.75234 9.16956C6.91901 9.16956 7.04922 9.12789 7.14297 9.04456C7.23672 8.96122 7.30638 8.85445 7.35195 8.72424C7.39752 8.59403 7.44505 8.40914 7.49453 8.16956L8.24844 4.67346L10.0258 4.67346Z" fill="rgb(53,116,240)" fill-rule="nonzero" />
	<path id="" d="M14.4895 11.5051L14.2902 12.4162L12.4475 12.4162L12.2453 13.1105C12.466 13.0285 12.632 12.9724 12.7434 12.9421C12.8547 12.9118 12.9719 12.8967 13.0949 12.8967C13.4367 12.8967 13.7185 12.9968 13.9401 13.197C14.1618 13.3972 14.2727 13.6965 14.2727 14.0949C14.2727 14.4074 14.2048 14.6896 14.069 14.9416C13.9333 15.1935 13.718 15.4118 13.423 15.5964C13.1281 15.7809 12.7209 15.8732 12.2014 15.8732C11.7131 15.8732 11.3479 15.7761 11.1057 15.5817C10.8635 15.3874 10.715 15.0744 10.6604 14.6428L11.841 14.5051L11.841 14.5226C11.841 14.7199 11.8884 14.8713 11.9831 14.9767C12.0778 15.0822 12.2072 15.1349 12.3713 15.1349C12.5783 15.1349 12.7526 15.0422 12.8942 14.8566C13.0358 14.6711 13.1066 14.4494 13.1066 14.1916L13.1066 14.1799C13.1066 13.8166 12.9514 13.6349 12.6408 13.6349C12.4201 13.6349 12.2277 13.7287 12.0637 13.9162L10.965 13.7492L11.6066 11.5051L14.4895 11.5051Z" fill="rgb(206,208,214)" fill-rule="nonzero" />
</svg>
