<svg width="54.000000" height="54.000000" viewBox="0 0 54 54" fill="none" xmlns="http://www.w3.org/2000/svg" xmlns:xlink="http://www.w3.org/1999/xlink">
	<desc>
			Created with Pixso.
	</desc>
	<defs>
		<clipPath id="clip4_7">
			<rect id="pluginIcon_dark" width="54.000000" height="54.000000" fill="white" fill-opacity="0"/>
		</clipPath>
	</defs>
	<rect id="pluginIcon_dark" width="54.000000" height="54.000000" fill="#FFFFFF" fill-opacity="0"/>
	<g clip-path="url(#clip4_7)">
		<path id="JSON" d="M15.5 29.66Q15.2 29.71 14.89 29.71Q14.5 29.71 14.15 29.64Q13.8 29.57 13.51 29.46Q13.22 29.36 12.98 29.23Q12.75 29.1 12.61 29.01L11.83 30.39Q11.98 30.51 12.25 30.65Q12.53 30.79 12.9 30.91Q13.28 31.04 13.77 31.12Q14.25 31.2 14.83 31.2Q15.69 31.2 16.42 31.01Q17.15 30.81 17.68 30.43Q17.95 30.23 18.16 29.98Q18.36 29.74 18.51 29.45Q18.8 28.87 18.8 28.08Q18.8 27.52 18.63 27.13Q18.5 26.84 18.32 26.61Q18.24 26.51 18.16 26.42Q17.86 26.11 17.48 25.87Q17.09 25.63 16.66 25.4Q16.37 25.23 16.11 25.1Q15.86 24.96 15.67 24.8Q15.5 24.65 15.39 24.46Q15.39 24.44 15.38 24.43Q15.27 24.22 15.27 23.9Q15.27 23.55 15.42 23.29Q15.48 23.18 15.56 23.09Q15.67 22.96 15.83 22.87Q16.09 22.71 16.43 22.63Q16.77 22.55 17.15 22.55Q17.78 22.55 18.3 22.72Q18.83 22.89 19.12 23.13L19.89 21.78Q19.74 21.67 19.47 21.54Q19.21 21.42 18.85 21.32Q18.51 21.21 18.11 21.14Q17.71 21.07 17.28 21.07Q16.34 21.07 15.63 21.29Q14.92 21.52 14.44 21.91Q14.1 22.18 13.88 22.53Q13.78 22.68 13.71 22.84Q13.7 22.87 13.69 22.89Q13.47 23.41 13.47 24.02Q13.47 24.56 13.62 24.95Q13.76 25.34 14.01 25.63Q14.26 25.93 14.59 26.16Q14.92 26.39 15.29 26.57Q15.62 26.75 15.92 26.91Q16.23 27.07 16.46 27.26Q16.7 27.44 16.84 27.67Q16.98 27.9 16.98 28.22Q16.98 28.66 16.8 28.94Q16.72 29.07 16.61 29.18Q16.48 29.31 16.32 29.4Q16.01 29.57 15.64 29.64Q15.57 29.65 15.5 29.66ZM22.61 30.95Q23.29 31.2 24.11 31.2Q25.45 31.2 26.49 30.65Q27.29 30.23 27.89 29.61Q28.07 29.42 28.24 29.21Q28.36 29.05 28.48 28.88Q29 28.12 29.3 27.2Q29.66 26.08 29.66 24.96Q29.66 24.02 29.39 23.29Q29.12 22.57 28.63 22.08Q28.53 21.98 28.42 21.89Q28 21.53 27.45 21.33Q26.77 21.07 25.96 21.07Q24.61 21.07 23.57 21.62Q22.85 22.01 22.28 22.57Q22.04 22.8 21.83 23.07Q21.7 23.23 21.58 23.41Q21.06 24.16 20.76 25.08Q20.41 26.16 20.4 27.25Q20.4 27.28 20.4 27.31Q20.4 28.25 20.67 28.98Q20.94 29.71 21.44 30.2Q21.58 30.33 21.73 30.45Q22.12 30.76 22.61 30.95ZM10.55 29.27Q10.79 28.67 10.96 27.97L12.56 21.29L10.78 21.29L9.25 27.69Q9.13 28.24 8.96 28.62Q8.79 28.99 8.56 29.23Q8.46 29.33 8.36 29.4Q8.2 29.51 8.01 29.58Q7.69 29.68 7.25 29.68Q6.62 29.68 6.2 29.46Q5.78 29.25 5.5 29.01L4.69 30.34Q5.05 30.66 5.71 30.93Q6.37 31.2 7.22 31.2Q8.19 31.2 8.82 30.96Q9.46 30.71 9.88 30.29Q9.91 30.26 9.93 30.24Q10.32 29.83 10.55 29.27ZM35.97 29.25Q36.32 30.18 36.58 31L37.99 31L40.32 21.29L38.57 21.29L37.01 27.92Q36.73 27.12 36.35 26.22Q35.98 25.32 35.57 24.44Q35.17 23.55 34.74 22.74Q34.31 21.92 33.92 21.29L32.51 21.29L30.18 31L31.92 31L33.61 23.91Q34.03 24.65 34.45 25.54Q34.86 26.43 35.24 27.37Q35.63 28.31 35.97 29.25ZM24.82 22.75Q25.27 22.59 25.77 22.59Q26.61 22.59 27.1 23.01Q27.24 23.13 27.35 23.28Q27.85 23.97 27.85 25.12Q27.85 25.29 27.83 25.47Q27.79 26.13 27.59 26.77Q27.33 27.59 26.87 28.24Q26.56 28.66 26.17 28.98Q25.97 29.15 25.74 29.28Q25.51 29.42 25.26 29.51Q24.8 29.68 24.29 29.68Q23.45 29.68 22.97 29.27Q22.83 29.15 22.72 29Q22.23 28.31 22.23 27.16Q22.23 26.91 22.25 26.67Q22.31 26.08 22.49 25.5Q22.75 24.68 23.21 24.04Q23.56 23.55 24.01 23.21Q24.16 23.09 24.32 22.99Q24.56 22.85 24.82 22.75Z" fill="#C6C6C6" fill-opacity="1.000000" fill-rule="evenodd"/>
		<path id="path" d="M49.88 22.32C49.88 22.66 49.85 22.93 49.52 22.93L46.85 22.93L46.85 25.59C46.85 25.93 46.58 25.96 46.25 25.96C45.91 25.96 45.64 25.93 45.64 25.59L45.64 22.93L42.97 22.93C42.64 22.93 42.61 22.66 42.61 22.32C42.61 21.99 42.64 21.72 42.97 21.72L45.64 21.72L45.64 19.05C45.64 18.72 45.91 18.69 46.25 18.69C46.58 18.69 46.85 18.72 46.85 19.05L46.85 21.72L49.52 21.72C49.85 21.72 49.88 21.99 49.88 22.32Z" fill="#C6C6C6" fill-opacity="1.000000" fill-rule="nonzero"/>
		<circle id="椭圆 1" cx="27.000000" cy="27.000000" r="26.000000" fill="#C4C4C4" fill-opacity="0"/>
		<circle id="椭圆 1" cx="27.000000" cy="27.000000" r="25.250000" stroke="#C6C6C6" stroke-opacity="1.000000" stroke-width="1.500000"/>
	</g>
</svg>
