<svg width="54.000000" height="54.000000" viewBox="0 0 54 54" fill="none" xmlns="http://www.w3.org/2000/svg" xmlns:xlink="http://www.w3.org/1999/xlink">
	<desc>
			Created with Pixso.
	</desc>
	<defs>
		<clipPath id="clip2_6">
			<rect id="pluginIcon" width="54.000000" height="54.000000" fill="white" fill-opacity="0"/>
		</clipPath>
	</defs>
	<rect id="pluginIcon" width="54.000000" height="54.000000" fill="#FFFFFF" fill-opacity="0"/>
	<g clip-path="url(#clip2_6)">
		<path id="JSON" d="M15.64 29.64C15.4 29.68 15.15 29.71 14.89 29.71C14.63 29.71 14.39 29.68 14.15 29.64C13.92 29.59 13.71 29.53 13.51 29.46C13.31 29.39 13.14 29.32 12.98 29.23Q12.75 29.1 12.61 29.01L11.83 30.39C11.93 30.47 12.07 30.55 12.25 30.65C12.44 30.74 12.65 30.83 12.9 30.91Q13.28 31.04 13.77 31.12C14.09 31.18 14.44 31.2 14.83 31.2Q15.69 31.2 16.42 31.01C16.91 30.88 17.33 30.69 17.68 30.43Q17.95 30.23 18.16 29.98Q18.36 29.74 18.51 29.45C18.7 29.06 18.8 28.6 18.8 28.08Q18.8 27.52 18.63 27.13C18.51 26.86 18.35 26.62 18.16 26.42C17.96 26.21 17.73 26.03 17.48 25.87C17.22 25.71 16.95 25.55 16.66 25.4C16.46 25.28 16.28 25.18 16.11 25.1C15.94 25.01 15.8 24.91 15.67 24.8C15.55 24.69 15.45 24.57 15.38 24.43C15.31 24.29 15.27 24.11 15.27 23.9Q15.27 23.55 15.42 23.29C15.52 23.11 15.65 22.97 15.83 22.87C16 22.76 16.2 22.68 16.43 22.63C16.66 22.58 16.9 22.55 17.15 22.55Q17.78 22.55 18.3 22.72C18.65 22.83 18.93 22.97 19.12 23.13L19.89 21.78C19.79 21.71 19.65 21.63 19.47 21.54C19.3 21.46 19.09 21.38 18.85 21.32Q18.51 21.21 18.11 21.14Q17.71 21.07 17.28 21.07Q16.34 21.07 15.63 21.29C15.16 21.44 14.76 21.65 14.44 21.91C14.12 22.17 13.87 22.48 13.71 22.84C13.55 23.2 13.47 23.59 13.47 24.02Q13.47 24.56 13.62 24.95C13.71 25.21 13.85 25.44 14.01 25.63C14.18 25.83 14.37 26 14.59 26.16C14.81 26.31 15.04 26.45 15.29 26.57C15.51 26.69 15.72 26.81 15.92 26.91C16.12 27.02 16.31 27.14 16.46 27.26C16.62 27.38 16.75 27.52 16.84 27.67C16.94 27.83 16.98 28.01 16.98 28.22C16.98 28.51 16.92 28.75 16.8 28.94C16.68 29.14 16.52 29.29 16.32 29.4C16.11 29.51 15.89 29.59 15.64 29.64ZM22.61 30.95C23.07 31.12 23.56 31.2 24.11 31.2Q25.45 31.2 26.49 30.65Q27.29 30.23 27.89 29.61Q28.07 29.42 28.24 29.21C28.7 28.62 29.06 27.95 29.3 27.2C29.54 26.45 29.66 25.71 29.66 24.96Q29.66 24.02 29.39 23.29C29.21 22.81 28.95 22.4 28.63 22.08C28.3 21.75 27.91 21.5 27.45 21.33C27 21.16 26.5 21.07 25.96 21.07Q24.61 21.07 23.57 21.62C22.88 21.99 22.3 22.47 21.83 23.07C21.36 23.66 21 24.33 20.76 25.08C20.52 25.82 20.4 26.57 20.4 27.31C20.4 27.94 20.49 28.49 20.67 28.98Q20.94 29.71 21.44 30.2C21.77 30.52 22.16 30.77 22.61 30.95ZM10.55 29.27C10.71 28.87 10.85 28.44 10.96 27.97L12.56 21.29L10.78 21.29L9.25 27.69C9.17 28.05 9.07 28.36 8.96 28.62C8.85 28.87 8.71 29.07 8.56 29.23C8.41 29.39 8.22 29.51 8.01 29.58C7.79 29.64 7.54 29.68 7.25 29.68Q6.62 29.68 6.2 29.46C5.92 29.32 5.69 29.17 5.5 29.01L4.69 30.34C4.93 30.55 5.27 30.75 5.71 30.93C6.15 31.11 6.65 31.2 7.22 31.2Q8.19 31.2 8.82 30.96C9.25 30.8 9.6 30.57 9.88 30.29C10.16 30 10.39 29.66 10.55 29.27ZM35.97 29.25C36.2 29.87 36.4 30.45 36.58 31L37.99 31L40.32 21.29L38.57 21.29L37.01 27.92C36.83 27.38 36.61 26.82 36.35 26.22C36.1 25.62 35.84 25.03 35.57 24.44Q35.17 23.55 34.74 22.74Q34.31 21.92 33.92 21.29L32.51 21.29L30.18 31L31.92 31L33.61 23.91C33.89 24.41 34.17 24.95 34.45 25.54C34.72 26.14 34.99 26.75 35.24 27.37C35.5 28 35.74 28.62 35.97 29.25ZM24.32 22.99C24.76 22.73 25.24 22.59 25.77 22.59C26.49 22.59 27.02 22.82 27.35 23.28C27.68 23.74 27.85 24.35 27.85 25.12Q27.85 25.29 27.83 25.47Q27.79 26.13 27.59 26.77C27.41 27.32 27.17 27.81 26.87 28.24C26.56 28.67 26.18 29.02 25.74 29.28C25.31 29.55 24.82 29.68 24.29 29.68Q23.45 29.68 22.97 29.27Q22.83 29.15 22.72 29C22.39 28.54 22.23 27.93 22.23 27.16Q22.23 26.91 22.25 26.67Q22.31 26.08 22.49 25.5C22.66 24.96 22.9 24.47 23.21 24.04C23.52 23.61 23.89 23.26 24.32 22.99Z" fill="#676767" fill-opacity="1.000000" fill-rule="evenodd"/>
		<path id="path" d="M49.88 22.32C49.88 22.66 49.85 22.93 49.52 22.93L46.85 22.93L46.85 25.59C46.85 25.93 46.58 25.96 46.25 25.96C45.91 25.96 45.64 25.93 45.64 25.59L45.64 22.93L42.97 22.93C42.64 22.93 42.61 22.66 42.61 22.32C42.61 21.99 42.64 21.72 42.97 21.72L45.64 21.72L45.64 19.05C45.64 18.72 45.91 18.69 46.25 18.69C46.58 18.69 46.85 18.72 46.85 19.05L46.85 21.72L49.52 21.72C49.85 21.72 49.88 21.99 49.88 22.32Z" fill="#676767" fill-opacity="1.000000" fill-rule="nonzero"/>
		<circle id="椭圆 1" cx="27.000000" cy="27.000000" r="26.000000" fill="#C4C4C4" fill-opacity="0"/>
		<circle id="椭圆 1" cx="27.000000" cy="27.000000" r="25.250000" stroke="#676767" stroke-opacity="1.000000" stroke-width="1.500000"/>
	</g>
</svg>
