<svg width="64.000000" height="64.000000" viewBox="0 0 64 64" fill="none" xmlns="http://www.w3.org/2000/svg" xmlns:xlink="http://www.w3.org/1999/xlink">
	<desc>
			Created with Pixso.
	</desc>
	<defs>
		<clipPath id="clip5_16">
			<rect id="pluginIcon" width="64.000000" height="64.000000" fill="white" fill-opacity="0"/>
		</clipPath>
	</defs>
	<g clip-path="url(#clip5_16)">
		<circle id="circle" cx="38.000000" cy="56.000000" r="2.000000" fill="#02303A" fill-opacity="1.000000"/>
		<path id="path" d="M44 58L44 54C49.51 54 54 49.51 54 44L54 20C54 14.48 49.51 10 44 10L32 10L32 6L44 6C51.72 6 58 12.28 58 20L58 44C58 51.72 51.72 58 44 58Z" fill="#02303A" fill-opacity="1.000000" fill-rule="nonzero"/>
		<circle id="circle" cx="26.000000" cy="8.000000" r="2.000000" fill="#02303A" fill-opacity="1.000000"/>
		<path id="path" d="M32 58L20 58C12.28 58 6 51.72 6 44L6 20C6 12.28 12.28 6 20 6L20 10C14.48 10 10 14.48 10 20L10 44C10 49.51 14.48 54 20 54L32 54L32 58Z" fill="#02303A" fill-opacity="1.000000" fill-rule="nonzero"/>
		<path id="[" d="M27.21 21.98L19.93 21.98L19.93 43.97L27.21 43.97L27.21 40.55L23.46 40.55L23.46 25.43L27.21 25.43L27.21 21.98Z" fill="#02303A" fill-opacity="1.000000" fill-rule="evenodd"/>
		<path id="]" d="M37.63 43.97L44.91 43.97L44.91 21.98L37.63 21.98L37.63 25.43L41.38 25.43L41.38 40.55L37.63 40.55L37.63 43.97Z" fill="#02303A" fill-opacity="1.000000" fill-rule="evenodd"/>
	</g>
</svg>
