<svg width="17.000000" height="17.000000" viewBox="0 0 17 17" fill="none" xmlns="http://www.w3.org/2000/svg">
	<desc>
			Created with Pixso.
	</desc>
	<defs>
		<clipPath id="clip187_15">
			<rect id="svg" width="17.000000" height="17.000000" fill="white" fill-opacity="0"/>
		</clipPath>
	</defs>
	<g clip-path="url(#clip187_15)">
		<path id="path" d="M4.95 14.87L4.95 12.75L1.29 12.75C1 12.75 0.8 12.62 0.67 12.37C0.54 12.12 0.55 11.88 0.7 11.65L2.72 8.5C2.45 8.5 2.25 8.37 2.11 8.13C1.98 7.89 1.99 7.65 2.16 7.41L5.79 2.24C5.93 2.04 6.12 1.94 6.37 1.94C6.62 1.94 6.81 2.04 6.95 2.24L8.5 4.46L10.04 2.24C10.18 2.04 10.37 1.94 10.62 1.94C10.87 1.94 11.06 2.04 11.2 2.24L14.83 7.41C15 7.65 15.01 7.89 14.88 8.13C14.74 8.37 14.54 8.5 14.27 8.5L16.29 11.65C16.44 11.88 16.45 12.12 16.32 12.37C16.19 12.62 15.99 12.75 15.7 12.75L12.04 12.75L12.04 14.87C12.04 15.07 11.97 15.24 11.83 15.37C11.7 15.51 11.53 15.58 11.33 15.58L9.91 15.58C9.71 15.58 9.54 15.51 9.41 15.37C9.27 15.24 9.2 15.07 9.2 14.87L9.2 12.75L7.79 12.75L7.79 14.87C7.79 15.07 7.72 15.24 7.58 15.37C7.45 15.51 7.28 15.58 7.08 15.58L5.66 15.58C5.46 15.58 5.29 15.51 5.16 15.37C5.02 15.24 4.95 15.07 4.95 14.87ZM11.84 11.33L14.41 11.33L11.66 7.08L12.85 7.08L10.62 3.89L9.36 5.68L10.58 7.41C10.75 7.65 10.76 7.89 10.63 8.13C10.49 8.37 10.29 8.5 10.02 8.5L11.84 11.33ZM2.58 11.33L10.16 11.33L7.41 7.08L8.6 7.08L6.37 3.89L4.14 7.08L5.33 7.08L2.58 11.33ZM2.58 11.33L5.33 11.33L4.14 11.33L8.6 11.33L7.41 11.33L10.16 11.33L2.58 11.33ZM11.84 11.33L10.02 11.33L11.33 11.33L9.36 11.33L12.85 11.33L11.66 11.33L14.41 11.33L11.84 11.33ZM9.2 12.75L12.04 12.75L9.2 12.75Z" fill="#6E6E6E" fill-opacity="1.000000" fill-rule="nonzero"/>
		<path id="path" d="M4.95 12.75L1.29 12.75C1 12.75 0.8 12.62 0.67 12.37C0.54 12.12 0.55 11.88 0.7 11.65L2.72 8.5C2.45 8.5 2.25 8.37 2.11 8.13C1.98 7.89 1.99 7.65 2.16 7.41L5.79 2.24C5.93 2.04 6.12 1.94 6.37 1.94C6.62 1.94 6.81 2.04 6.95 2.24L8.5 4.46L10.04 2.24C10.18 2.04 10.37 1.94 10.62 1.94C10.87 1.94 11.06 2.04 11.2 2.24L14.83 7.41C15 7.65 15.01 7.89 14.88 8.13C14.74 8.37 14.54 8.5 14.27 8.5L16.29 11.65C16.44 11.88 16.45 12.12 16.32 12.37C16.19 12.62 15.99 12.75 15.7 12.75L12.04 12.75L9.2 12.75L7.79 12.75L7.79 14.87C7.79 15.07 7.72 15.24 7.58 15.37C7.45 15.51 7.28 15.58 7.08 15.58L5.66 15.58C5.46 15.58 5.29 15.51 5.16 15.37C5.02 15.24 4.95 15.07 4.95 14.87L4.95 12.75ZM12.04 12.75L12.04 14.87C12.04 15.07 11.97 15.24 11.83 15.37C11.7 15.51 11.53 15.58 11.33 15.58L9.91 15.58C9.71 15.58 9.54 15.51 9.41 15.37C9.27 15.24 9.2 15.07 9.2 14.87L9.2 12.75M14.41 11.33L11.66 11.33L12.85 11.33L9.36 11.33L11.33 11.33L10.02 11.33L11.84 11.33L14.41 11.33L11.66 7.08L12.85 7.08L10.62 3.89L9.36 5.68L10.58 7.41C10.75 7.65 10.76 7.89 10.63 8.13C10.49 8.37 10.29 8.5 10.02 8.5L11.84 11.33M10.16 11.33L7.41 7.08L8.6 7.08L6.37 3.89L4.14 7.08L5.33 7.08L2.58 11.33L10.16 11.33ZM2.58 11.33L5.33 11.33L4.14 11.33L8.6 11.33L7.41 11.33L10.16 11.33" stroke="#6E6E6E" stroke-opacity="1.000000" stroke-width="0.200000"/>
	</g>
</svg>
