<svg width="15.000000" height="14.000000" viewBox="0 0 15 14" fill="none" xmlns="http://www.w3.org/2000/svg">
	<desc>
			Created with Pixso.
	</desc>
	<defs>
		<clipPath id="clip211_10">
			<rect id="refresh.svg" width="15.000000" height="14.000000" fill="white" fill-opacity="0"/>
		</clipPath>
	</defs>
	<g clip-path="url(#clip211_10)">
		<path id="path" d="M3.29 7.56L3.31 7.58C3.31 7.86 3.09 8.08 2.81 8.08C2.53 8.08 2.31 7.86 2.31 7.58L2.33 7.56L3.29 7.56ZM10.54 2.62L10.56 2.62C10.8 2.76 10.88 3.06 10.74 3.3C10.59 3.54 10.29 3.62 10.05 3.48L10.04 3.45L10.54 2.62Z" fill="#000000" fill-opacity="0" fill-rule="nonzero"/>
		<path id="path" d="M2.81 7.58L2.81 6.77C2.81 4.32 4.98 2.33 7.66 2.33C8.64 2.33 9.55 2.59 10.31 3.05" stroke="#CED0D6" stroke-opacity="1.000000" stroke-width="1.000000" stroke-linecap="round"/>
		<path id="path" d="M4.45 11.86L4.43 11.86C4.19 11.72 4.11 11.42 4.25 11.18C4.4 10.94 4.7 10.86 4.94 11L4.95 11.03L4.45 11.86ZM11.7 6.92L11.68 6.9C11.68 6.62 11.9 6.4 12.18 6.4C12.46 6.4 12.68 6.62 12.68 6.9L12.66 6.92L11.7 6.92Z" fill="#000000" fill-opacity="0" fill-rule="nonzero"/>
		<path id="path" d="M4.68 11.43C5.44 11.89 6.35 12.15 7.33 12.15C10.01 12.15 12.18 10.16 12.18 7.71L12.18 6.9" stroke="#CED0D6" stroke-opacity="1.000000" stroke-width="1.000000" stroke-linecap="round"/>
		<path id="path" d="M0.62 6.99L0.59 6.99C0.39 6.8 0.38 6.49 0.57 6.28C0.76 6.08 1.07 6.07 1.27 6.26L1.27 6.28L0.62 6.99ZM4.34 6.28L4.34 6.26C4.55 6.07 4.86 6.08 5.05 6.28C5.24 6.49 5.23 6.8 5.02 6.99L5 6.99L4.34 6.28Z" fill="#000000" fill-opacity="0" fill-rule="nonzero"/>
		<path id="path" d="M0.93 6.62L2.81 8.37L4.68 6.62" stroke="#CED0D6" stroke-opacity="1.000000" stroke-width="1.000000" stroke-linecap="round"/>
		<path id="path" d="M10.65 7.83L10.65 7.86C10.44 8.05 10.13 8.04 9.94 7.84C9.75 7.63 9.76 7.32 9.97 7.13L9.99 7.13L10.65 7.83ZM14.37 7.13L14.4 7.13C14.6 7.32 14.61 7.63 14.42 7.84C14.23 8.04 13.92 8.05 13.72 7.86L13.72 7.83L14.37 7.13Z" fill="#000000" fill-opacity="0" fill-rule="nonzero"/>
		<path id="path" d="M10.31 7.49L12.18 5.74L14.06 7.49" stroke="#CED0D6" stroke-opacity="1.000000" stroke-width="1.000000" stroke-linecap="round"/>
	</g>
</svg>
