<svg width="19.000000" height="19.000000" viewBox="0 0 19 19" fill="none" xmlns="http://www.w3.org/2000/svg">
	<desc>
			Created with Pixso.
	</desc>
	<defs>
		<clipPath id="clip114_62">
			<rect id="delete" width="19.000000" height="19.000000" fill="white" fill-opacity="0"/>
		</clipPath>
	</defs>
	<g clip-path="url(#clip114_62)">
		<path id="path" d="M9.58 2.23L11.82 2.23C12.44 2.23 12.94 2.73 12.94 3.35L8.47 3.35C8.47 2.73 8.97 2.23 9.58 2.23ZM7.35 3.35C7.35 2.11 8.35 1.11 9.58 1.11L11.82 1.11C13.05 1.11 14.05 2.11 14.05 3.35L16.29 3.35C16.91 3.35 17.41 3.85 17.41 4.47L17.41 5.58L17.41 6.7L16.29 6.7L16.29 14.52C16.29 15.76 15.29 16.76 14.05 16.76L7.35 16.76C6.11 16.76 5.11 15.76 5.11 14.52L5.11 6.7L4 6.7L4 5.58L4 4.47C4 3.85 4.5 3.35 5.11 3.35L7.35 3.35ZM14.05 4.47L12.94 4.47L8.47 4.47L7.35 4.47L5.11 4.47L5.11 5.58L6.23 5.58L15.17 5.58L16.29 5.58L16.29 4.47L14.05 4.47ZM6.23 6.7L15.17 6.7L15.17 14.52C15.17 15.14 14.67 15.64 14.05 15.64L7.35 15.64C6.73 15.64 6.23 15.14 6.23 14.52L6.23 6.7ZM9.02 7.82C8.72 7.82 8.47 8.07 8.47 8.38L8.47 12.85C8.47 13.16 8.72 13.41 9.02 13.41C9.33 13.41 9.58 13.16 9.58 12.85L9.58 8.38C9.58 8.07 9.33 7.82 9.02 7.82ZM11.82 8.38C11.82 8.07 12.07 7.82 12.38 7.82C12.69 7.82 12.94 8.07 12.94 8.38L12.94 12.85C12.94 13.16 12.69 13.41 12.38 13.41C12.07 13.41 11.82 13.16 11.82 12.85L11.82 8.38Z" fill="#6C707E" fill-opacity="1.000000" fill-rule="evenodd"/>
	</g>
</svg>
