<svg width="19.000000" height="19.000000" viewBox="0 0 19 19" fill="none" xmlns="http://www.w3.org/2000/svg">
	<desc>
			Created with Pixso.
	</desc>
	<defs>
		<clipPath id="clip117_1">
			<rect id="delete" width="19.000000" height="19.000000" fill="white" fill-opacity="0"/>
		</clipPath>
	</defs>
	<g clip-path="url(#clip117_1)">
		<path id="path" d="M8.58 2.51L10.82 2.51C11.44 2.51 11.94 3.01 11.94 3.63L7.47 3.63C7.47 3.01 7.97 2.51 8.58 2.51ZM6.35 3.63C6.35 2.4 7.35 1.39 8.58 1.39L10.82 1.39C12.05 1.39 13.05 2.4 13.05 3.63L15.29 3.63C15.91 3.63 16.41 4.13 16.41 4.75L16.41 5.87L16.41 6.98L15.29 6.98L15.29 14.81C15.29 16.04 14.29 17.04 13.05 17.04L6.35 17.04C5.11 17.04 4.11 16.04 4.11 14.81L4.11 6.98L3 6.98L3 5.87L3 4.75C3 4.13 3.5 3.63 4.11 3.63L6.35 3.63ZM13.05 4.75L11.94 4.75L7.47 4.75L6.35 4.75L4.11 4.75L4.11 5.87L5.23 5.87L14.17 5.87L15.29 5.87L15.29 4.75L13.05 4.75ZM5.23 6.98L14.17 6.98L14.17 14.81C14.17 15.42 13.67 15.92 13.05 15.92L6.35 15.92C5.73 15.92 5.23 15.42 5.23 14.81L5.23 6.98ZM8.02 8.1C7.72 8.1 7.47 8.35 7.47 8.66L7.47 13.13C7.47 13.44 7.72 13.69 8.02 13.69C8.33 13.69 8.58 13.44 8.58 13.13L8.58 8.66C8.58 8.35 8.33 8.1 8.02 8.1ZM10.82 8.66C10.82 8.35 11.07 8.1 11.38 8.1C11.69 8.1 11.94 8.35 11.94 8.66L11.94 13.13C11.94 13.44 11.69 13.69 11.38 13.69C11.07 13.69 10.82 13.44 10.82 13.13L10.82 8.66Z" fill="#CED0D6" fill-opacity="1.000000" fill-rule="evenodd"/>
	</g>
</svg>
