<svg viewBox="0 0 16 16" xmlns="http://www.w3.org/2000/svg" width="16" height="16" fill="none">
	<rect id="edit 2" width="16" height="16" x="0" y="0" />
	<path id="Vector" d="M8.90453 2.21319C8.64853 2.33053 8.44585 2.51186 8.27518 2.69319C8.11519 2.87453 7.93385 3.09853 7.73118 3.36519L2.99519 9.43453C2.98453 9.44519 2.96319 9.46653 2.95253 9.47719C2.73919 9.76519 2.55786 9.97853 2.44053 10.2345C2.33386 10.4479 2.25919 10.6719 2.20586 10.9066C2.15253 11.1839 2.15253 11.4719 2.15253 11.8239C2.15253 11.8452 2.15253 11.8666 2.15253 11.8879L2.15253 13.0079C2.15253 13.1679 2.15253 13.3279 2.17386 13.4666C2.18453 13.6159 2.21653 13.8292 2.34453 14.0319C2.50453 14.2772 2.73919 14.4692 3.02719 14.5652C3.25119 14.6292 3.46453 14.6186 3.61386 14.5972C3.75253 14.5759 3.91253 14.5332 4.06186 14.5012L5.14985 14.2239C5.17119 14.2239 5.19252 14.2132 5.21386 14.2132C5.55518 14.1279 5.83253 14.0639 6.08852 13.9359C6.30186 13.8399 6.50452 13.7012 6.68585 13.5519C6.89918 13.3706 7.06986 13.1466 7.29386 12.8692C7.30452 12.8479 7.31519 12.8266 7.32585 12.8159L12.0725 6.74653C12.2645 6.49053 12.4458 6.25586 12.5738 6.06386C12.7232 5.83986 12.8405 5.60519 12.9045 5.32786C12.9792 4.91186 12.9258 4.48519 12.7445 4.10119C12.6272 3.83453 12.4459 3.64253 12.2538 3.46119C12.0832 3.30119 11.8592 3.11986 11.5925 2.92786L11.5498 2.88519C11.2938 2.69319 11.0698 2.51186 10.8672 2.38386C10.6538 2.23453 10.4192 2.11719 10.1312 2.05319C9.71519 1.97853 9.28852 2.03186 8.90453 2.21319ZM9.37385 3.71719C9.26719 3.83453 9.13918 3.99453 8.94718 4.23986L10.9205 5.77586C11.1125 5.53053 11.2405 5.37053 11.3258 5.23186C11.4112 5.10386 11.4219 5.05053 11.4219 5.03986C11.4432 4.93319 11.4325 4.82653 11.3899 4.73053C11.3792 4.71986 11.3579 4.67719 11.2405 4.57053C11.1125 4.45319 10.9418 4.31453 10.6538 4.09053C10.3659 3.86653 10.1845 3.72786 10.0458 3.63186C9.90718 3.54653 9.86452 3.53586 9.85385 3.52519C9.74718 3.51453 9.64052 3.52519 9.54452 3.56786C9.53386 3.56786 9.49118 3.59986 9.37385 3.71719ZM4.17919 10.3519C3.90186 10.7039 3.82719 10.7999 3.78453 10.9066C3.73119 11.0026 3.69919 11.0986 3.67786 11.2052C3.65653 11.3119 3.65653 11.4399 3.65653 11.8772L3.65653 12.9759C3.65653 13.0079 3.65653 13.0292 3.65653 13.0506C3.67786 13.0506 3.69919 13.0399 3.72053 13.0292L4.78719 12.7732C5.22453 12.6666 5.34186 12.6346 5.43786 12.5812C5.53386 12.5386 5.62986 12.4746 5.71519 12.4106C5.80053 12.3359 5.87519 12.2399 6.14186 11.8879L9.99252 6.95986L8.02986 5.42386L4.17919 10.3519ZM7.91252 13.9999C7.91252 14.4159 8.25385 14.7466 8.66986 14.7466L13.3312 14.7466C13.7472 14.7466 14.0885 14.4159 14.0885 13.9999C14.0885 13.5839 13.7472 13.2532 13.3312 13.2532L8.66986 13.2532C8.25385 13.2532 7.91252 13.5839 7.91252 13.9999Z" fill="#7a848a" fill-rule="evenodd" />
</svg>
