<svg width="17.300049" height="17.300049" viewBox="0 0 17.3 17.3" fill="none" xmlns="http://www.w3.org/2000/svg">
	<desc>
			Created with Pixso.
	</desc>
	<defs>
		<clipPath id="clip169_15">
			<rect id="eye-close" width="17.299999" height="17.299999" fill="white" fill-opacity="0"/>
		</clipPath>
	</defs>
	<g clip-path="url(#clip169_15)">
		<path id="path" d="M15.91 8.21L15.91 8.21L15.91 8.21C15.3 6.91 14.56 5.87 13.7 5.07L12.85 5.93C13.59 6.6 14.22 7.51 14.77 8.64C13.37 11.55 11.37 12.94 8.64 12.94C7.78 12.94 6.98 12.8 6.26 12.51L5.34 13.44C6.32 13.91 7.43 14.15 8.64 14.15C11.89 14.15 14.31 12.45 15.91 9.08C16.04 8.81 16.04 8.49 15.91 8.21ZM14.83 2.6L14.12 1.88C14.06 1.83 13.98 1.83 13.93 1.88L11.95 3.86C10.97 3.38 9.86 3.14 8.64 3.14C5.4 3.14 2.98 4.84 1.38 8.21L1.38 8.21C1.25 8.49 1.25 8.81 1.38 9.08C1.99 10.38 2.73 11.43 3.59 12.23L1.88 13.92C1.83 13.98 1.83 14.06 1.88 14.12L2.6 14.83C2.65 14.88 2.74 14.88 2.79 14.83L14.83 2.79C14.89 2.74 14.89 2.65 14.83 2.6ZM6.73 9.07C6.7 8.94 6.69 8.79 6.69 8.65C6.69 7.6 7.53 6.75 8.58 6.75C8.72 6.75 8.87 6.77 9.01 6.8L6.73 9.07ZM9.85 5.96C9.46 5.77 9.03 5.67 8.58 5.67C6.94 5.67 5.6 7 5.6 8.65C5.6 9.1 5.71 9.53 5.89 9.92L4.44 11.37C3.7 10.69 3.07 9.78 2.52 8.65C3.92 5.74 5.92 4.35 8.64 4.35C9.51 4.35 10.31 4.49 11.03 4.78L9.85 5.96ZM8.58 10.54C8.47 10.54 8.36 10.53 8.26 10.51L7.4 11.37C7.76 11.53 8.16 11.62 8.58 11.62C10.22 11.62 11.55 10.29 11.55 8.64C11.55 8.22 11.46 7.82 11.31 7.46L10.44 8.33C10.46 8.43 10.47 8.54 10.47 8.64C10.47 9.69 9.62 10.54 8.58 10.54Z" fill="#CED0D6" fill-opacity="1.000000" fill-rule="nonzero"/>
	</g>
</svg>
