<svg width="18.000000" height="18.000000" viewBox="0 0 18 18" fill="none" xmlns="http://www.w3.org/2000/svg" xmlns:xlink="http://www.w3.org/1999/xlink">
	<desc>
			Created with Pixso.
	</desc>
	<defs>
		<clipPath id="clip107_15">
			<rect id="svg" width="18.000000" height="18.000000" fill="white" fill-opacity="0"/>
		</clipPath>
	</defs>
	<g clip-path="url(#clip107_15)">
		<path id="path" d="M15.95 11.18C15.95 11.18 14.45 12.81 14.45 13.8C14.45 14.22 14.59 14.57 14.89 14.86C15.18 15.16 15.53 15.3 15.95 15.3C16.36 15.3 16.71 15.16 17.01 14.86C17.3 14.57 17.45 14.22 17.45 13.8C17.45 12.81 15.95 11.18 15.95 11.18ZM5.6 10.05L9.2 6.46L12.79 10.05L5.6 10.05ZM14.12 9.26L7.41 2.55L6.35 3.61L8.14 5.4L4.28 9.26C3.83 9.68 3.83 10.41 4.28 10.85L8.4 14.97C8.62 15.19 8.91 15.3 9.2 15.3C9.48 15.3 9.77 15.19 9.99 14.97L14.12 10.85C14.56 10.41 14.56 9.68 14.12 9.26Z" fill="#CED0D6" fill-opacity="0.900000" fill-rule="nonzero"/>
	</g>
</svg>
