<svg width="18.000000" height="18.000000" viewBox="0 0 18 18" fill="none" xmlns="http://www.w3.org/2000/svg">
	<desc>
			Created with Pixso.
	</desc>
	<defs>
		<clipPath id="clip114_58">
			<rect id="form_history" width="18.000000" height="18.000000" fill="white" fill-opacity="0"/>
		</clipPath>
	</defs>
	<g clip-path="url(#clip114_58)">
		<path id="path" d="M14.25 6.06C14.58 6.86 14.76 7.71 14.76 8.6L13.29 8.6C13.29 5.75 11 3.46 8.18 3.46C6.39 3.46 5 4.2 3.98 5.66L5.98 5.66L5.98 7.11L1.59 7.11L1.59 2.71L3.04 2.71L3.04 4.44C4.25 2.95 6.09 2 8.18 2C9.04 2 9.89 2.15 10.69 2.48C11.5 2.83 12.21 3.29 12.83 3.92C13.44 4.55 13.91 5.24 14.25 6.06Z" fill="#6C707E" fill-opacity="1.000000" fill-rule="evenodd"/>
		<path id="path" d="M10.01 10.74C10.24 10.72 10.44 10.89 10.47 11.11L10.54 11.79L10.68 11.63C11.2 10.98 11.98 10.52 12.88 10.42C13.79 10.31 14.65 10.59 15.32 11.12C15.64 11.38 15.92 11.71 16.13 12.07C16.27 12.33 16.37 12.59 16.45 12.87C16.5 13.09 16.37 13.32 16.15 13.37C15.93 13.43 15.7 13.3 15.65 13.08C15.59 12.87 15.52 12.67 15.41 12.48C15.25 12.21 15.04 11.96 14.8 11.77C14.3 11.37 13.65 11.16 12.97 11.24C12.29 11.31 11.71 11.67 11.31 12.16L11.22 12.27L11.83 12.21C12.06 12.17 12.27 12.34 12.29 12.57C12.31 12.79 12.15 13 11.93 13.02L10.28 13.21C10.05 13.23 9.86 13.06 9.82 12.84L9.65 11.2C9.61 10.97 9.78 10.78 10.01 10.74Z" fill="#1E88E5" fill-opacity="1.000000" fill-rule="nonzero"/>
		<path id="path" d="M10.06 14.05C10.28 13.99 10.5 14.12 10.57 14.34C10.71 14.87 11.02 15.32 11.43 15.64C11.94 16.04 12.59 16.23 13.27 16.15C13.95 16.06 14.52 15.72 14.91 15.21L15 15.1L14.39 15.18C14.17 15.2 13.96 15.04 13.93 14.81C13.9 14.59 14.07 14.38 14.29 14.35L15.93 14.15C16.15 14.12 16.36 14.29 16.39 14.51L16.59 16.15C16.62 16.38 16.46 16.59 16.23 16.61C16.01 16.64 15.8 16.48 15.77 16.26L15.69 15.56L15.56 15.73C15.04 16.39 14.27 16.85 13.37 16.97C12.46 17.08 11.59 16.82 10.93 16.3C10.37 15.87 9.96 15.26 9.77 14.56C9.71 14.34 9.84 14.11 10.06 14.05Z" fill="#1E88E5" fill-opacity="1.000000" fill-rule="nonzero"/>
		<path id="path" d="M7.43 8.89L7.43 4.91L8.89 4.91L8.89 8.28L9.92 9.3L9.15 10.61L7.43 8.89Z" fill="#6C707E" fill-opacity="1.000000" fill-rule="evenodd"/>
		<path id="path" d="M3.11 9.31C3.43 11.52 5.15 13.31 7.33 13.65L8.18 15.2C4.79 15.2 1.99 12.61 1.64 9.31L3.11 9.31Z" fill="#6C707E" fill-opacity="1.000000" fill-rule="evenodd"/>
	</g>
</svg>
