<svg width="20.000000" height="20.000000" viewBox="0 0 20 20" fill="none" xmlns="http://www.w3.org/2000/svg" xmlns:xlink="http://www.w3.org/1999/xlink">
	<desc>
			Created with Pixso.
	</desc>
	<defs>
		<clipPath id="clip106_29">
			<rect id="svg" width="20.000000" height="20.000000" fill="white" fill-opacity="0"/>
		</clipPath>
	</defs>
	<g clip-path="url(#clip106_29)">
		<path id="path" d="M17.62 12.74C17.62 12.74 15.95 14.54 15.95 15.65C15.95 16.11 16.11 16.51 16.44 16.83C16.76 17.16 17.16 17.32 17.62 17.32C18.08 17.32 18.47 17.16 18.79 16.83C19.12 16.51 19.28 16.11 19.28 15.65C19.28 14.54 17.62 12.74 17.62 12.74ZM6.12 11.49L10.12 7.49L14.11 11.49L6.12 11.49ZM15.58 10.6L8.13 3.15L6.96 4.33L8.94 6.31L4.65 10.6C4.16 11.07 4.16 11.88 4.65 12.37L9.23 16.95C9.47 17.19 9.8 17.32 10.12 17.32C10.43 17.32 10.76 17.19 11 16.95L15.58 12.37C16.07 11.88 16.07 11.07 15.58 10.6Z" fill="#6C707E" fill-opacity="0.900000" fill-rule="nonzero"/>
	</g>
</svg>
