<svg width="16.000000" height="16.000000" viewBox="0 0 16 16" fill="none" xmlns="http://www.w3.org/2000/svg" xmlns:xlink="http://www.w3.org/1999/xlink">
	<desc>
			Created with Pixso.
	</desc>
	<defs>
		<clipPath id="clip105_21">
			<rect id="画板 4" width="16.000000" height="16.000000" fill="white" fill-opacity="0"/>
		</clipPath>
	</defs>
	<rect id="画板 4" width="16.000000" height="16.000000" fill="#FFFFFF" fill-opacity="0"/>
	<g clip-path="url(#clip105_21)">
		<path id="path" d="M13.54 5.69C13.84 6.42 14 7.19 14 8L12.66 8C12.66 5.41 10.57 3.33 8 3.33C6.37 3.33 5.1 4 4.17 5.33L6 5.33L6 6.65L2 6.65L2 2.65L3.32 2.65L3.32 4.22C4.42 2.87 6.1 2 8 2C8.79 2 9.56 2.14 10.29 2.44C11.03 2.76 11.68 3.18 12.24 3.75C12.8 4.32 13.23 4.95 13.54 5.69Z" fill="#CED0D6" fill-opacity="1.000000" fill-rule="evenodd"/>
		<path id="path" d="M9.67 9.95C9.88 9.93 10.06 10.08 10.09 10.28L10.15 10.9L10.28 10.76C10.76 10.17 11.47 9.75 12.29 9.66C13.12 9.56 13.9 9.81 14.51 10.29C14.8 10.53 15.06 10.83 15.25 11.16C15.38 11.39 15.47 11.63 15.54 11.88C15.59 12.08 15.47 12.29 15.27 12.34C15.07 12.39 14.86 12.27 14.81 12.07C14.76 11.88 14.69 11.7 14.59 11.53C14.45 11.28 14.26 11.06 14.04 10.88C13.58 10.52 12.99 10.33 12.37 10.4C11.75 10.47 11.22 10.79 10.86 11.24L10.77 11.34L11.33 11.28C11.54 11.25 11.73 11.4 11.75 11.61C11.77 11.81 11.62 12 11.42 12.02L9.92 12.19C9.71 12.21 9.53 12.06 9.5 11.86L9.34 10.37C9.31 10.16 9.46 9.98 9.67 9.95Z" fill="#1E88E5" fill-opacity="1.000000" fill-rule="nonzero"/>
		<path id="path" d="M9.72 12.96C9.92 12.9 10.12 13.02 10.18 13.22C10.31 13.7 10.59 14.11 10.97 14.4C11.43 14.76 12.02 14.94 12.64 14.86C13.26 14.78 13.78 14.47 14.14 14.01L14.22 13.91L13.66 13.98C13.46 14 13.27 13.86 13.24 13.65C13.22 13.45 13.37 13.26 13.57 13.23L15.07 13.05C15.27 13.02 15.46 13.17 15.49 13.37L15.67 14.86C15.7 15.07 15.55 15.26 15.34 15.28C15.14 15.31 14.95 15.16 14.92 14.96L14.85 14.33L14.73 14.48C14.26 15.08 13.55 15.5 12.73 15.61C11.9 15.71 11.11 15.47 10.51 15C10 14.61 9.63 14.06 9.45 13.42C9.4 13.22 9.52 13.01 9.72 12.96Z" fill="#1E88E5" fill-opacity="1.000000" fill-rule="nonzero"/>
		<path id="path" d="M7.32 8.27L7.32 4.65L8.65 4.65L8.65 7.71L9.59 8.64L8.89 9.83L7.32 8.27Z" fill="#CED0D6" fill-opacity="1.000000" fill-rule="evenodd"/>
		<path id="path" d="M3.38 8.65C3.67 10.66 5.24 12.28 7.23 12.59L8 14C4.91 14 2.36 11.65 2.04 8.65L3.38 8.65Z" fill="#CED0D6" fill-opacity="1.000000" fill-rule="evenodd"/>
	</g>
</svg>
