<svg width="17.000000" height="17.000000" viewBox="0 0 17 17" fill="none" xmlns="http://www.w3.org/2000/svg">
	<desc>
			Created with Pixso.
	</desc>
	<defs>
		<clipPath id="clip104_4">
			<rect id="form_history.svg" width="17.000000" height="17.000000" fill="white" fill-opacity="0"/>
		</clipPath>
	</defs>
	<g clip-path="url(#clip104_4)">
		<path id="path" d="M15.88 11.58L15.12 12.24C15.18 12.58 15.18 12.75 15.12 13.09L15.88 13.76L15.22 14.91L14.25 14.58C14.04 14.76 13.8 14.9 13.53 15L13.33 16L12 16L11.8 14.99C11.53 14.89 11.29 14.75 11.08 14.57L10.11 14.89L9.44 13.74L10.2 13.08C10.15 12.74 10.15 12.57 10.2 12.24L9.44 11.57L10.11 10.41L11.08 10.74C11.29 10.56 11.53 10.42 11.8 10.32L12 9.33L13.33 9.33L13.53 10.33C13.8 10.43 14.04 10.57 14.25 10.75L15.22 10.42L15.88 11.58ZM11.33 12.66C11.33 13.39 11.93 14 12.66 14C13.4 14 14 13.39 14 12.66C14 11.93 13.4 11.33 12.66 11.33C11.93 11.33 11.33 11.93 11.33 12.66Z" fill="#1E88E5" fill-opacity="1.000000" fill-rule="evenodd"/>
		<path id="path" d="M13.54 5.7C13.84 6.43 14 7.2 14 8L12.66 8C12.66 5.42 10.57 3.33 8 3.33C6.37 3.33 5.1 4 4.17 5.33L6 5.33L6 6.66L2 6.66L2 2.66L3.33 2.66L3.33 4.23C4.43 2.87 6.11 2 8 2C8.79 2 9.56 2.15 10.29 2.45C11.03 2.76 11.68 3.19 12.24 3.75C12.8 4.32 13.23 4.96 13.54 5.7Z" fill="#CED0D6" fill-opacity="1.000000" fill-rule="evenodd"/>
		<path id="path" d="M7.33 8.27L7.33 4.66L8.66 4.66L8.66 7.72L9.6 8.65L8.9 9.84L7.33 8.27Z" fill="#CED0D6" fill-opacity="1.000000" fill-rule="evenodd"/>
		<path id="path" d="M3.38 8.66C3.67 10.67 5.24 12.28 7.23 12.6L8 14C4.91 14 2.37 11.66 2.04 8.66L3.38 8.66Z" fill="#CED0D6" fill-opacity="1.000000" fill-rule="evenodd"/>
	</g>
</svg>
