<svg width="16" height="16" viewBox="0 0 16 16" fill="none" xmlns="http://www.w3.org/2000/svg">
<path fill-rule="evenodd" clip-rule="evenodd" d="M13.66 5.06C13.99 5.86 14.17 6.71 14.17 7.6H12.7C12.7 4.75 10.41 2.46 7.59 2.46C5.8 2.46 4.41 3.2 3.39 4.66H5.39V6.11H1V1.71H2.45V3.44C3.66 1.95 5.5 1 7.59 1C8.45 1 9.3 1.15 10.1 1.48C10.91 1.83 11.62 2.29 12.24 2.92C12.85 3.55 13.32 4.24 13.66 5.06Z" fill="#CED0D6"/>
<path d="M9.41956 9.74004C9.64956 9.72004 9.84956 9.89004 9.87956 10.11L9.94956 10.79L10.0896 10.63C10.6096 9.98004 11.3896 9.52004 12.2896 9.42004C13.1996 9.31004 14.0596 9.59004 14.7296 10.12C15.0496 10.38 15.3296 10.71 15.5396 11.07C15.6796 11.33 15.7796 11.59 15.8596 11.87C15.9096 12.09 15.7796 12.32 15.5596 12.37C15.3396 12.43 15.1096 12.3 15.0596 12.08C14.9996 11.87 14.9296 11.67 14.8196 11.48C14.6596 11.21 14.4496 10.96 14.2096 10.77C13.7096 10.37 13.0596 10.16 12.3796 10.24C11.6996 10.31 11.1196 10.67 10.7196 11.16L10.6296 11.27L11.2396 11.21C11.4696 11.17 11.6796 11.34 11.6996 11.57C11.7196 11.79 11.5596 12 11.3396 12.02L9.68956 12.21C9.45956 12.23 9.26956 12.06 9.22956 11.84L9.05956 10.2C9.01956 9.97004 9.18956 9.78004 9.41956 9.74004Z" fill="#1E88E5"/>
<path d="M9.46967 13.05C9.68967 12.99 9.90967 13.12 9.97967 13.34C10.1197 13.87 10.4297 14.32 10.8397 14.64C11.3497 15.04 11.9997 15.23 12.6797 15.15C13.3597 15.06 13.9297 14.72 14.3197 14.21L14.4097 14.1L13.7997 14.18C13.5797 14.2 13.3697 14.04 13.3397 13.81C13.3097 13.59 13.4797 13.38 13.6997 13.35L15.3397 13.15C15.5597 13.12 15.7697 13.29 15.7997 13.51L15.9997 15.15C16.0297 15.38 15.8697 15.59 15.6397 15.61C15.4197 15.64 15.2097 15.48 15.1797 15.26L15.0997 14.56L14.9697 14.73C14.4497 15.39 13.6797 15.85 12.7797 15.97C11.8697 16.08 10.9997 15.82 10.3397 15.3C9.77967 14.87 9.36967 14.26 9.17967 13.56C9.11967 13.34 9.24967 13.11 9.46967 13.05Z" fill="#1E88E5"/>
<path fill-rule="evenodd" clip-rule="evenodd" d="M6.83984 7.89003V3.91003H8.29984V7.28003L9.32984 8.30003L8.55984 9.61003L6.83984 7.89003Z" fill="#CED0D6"/>
<path fill-rule="evenodd" clip-rule="evenodd" d="M2.5198 8.31006C2.8398 10.5201 4.5598 12.3101 6.7398 12.6501L7.58981 14.2001C4.19981 14.2001 1.3998 11.6101 1.0498 8.31006H2.5198Z" fill="#CED0D6"/>
</svg>
