<svg width="15.500000" height="15.500000" viewBox="0 0 15.5 15.5" fill="none" xmlns="http://www.w3.org/2000/svg">
	<desc>
			Created with Pixso.
	</desc>
	<defs>
		<clipPath id="clip118_17">
			<rect id="import_history.svg" width="15.500000" height="15.500000" fill="white" fill-opacity="0"/>
		</clipPath>
	</defs>
	<g clip-path="url(#clip118_17)">
		<path id="path" d="M13.23 4.9C13.55 5.67 13.72 6.5 13.72 7.36L12.3 7.36C12.3 4.6 10.08 2.38 7.35 2.38C5.61 2.38 4.27 3.1 3.28 4.51L5.22 4.51L5.22 5.91L0.96 5.91L0.96 1.65L2.37 1.65L2.37 3.33C3.54 1.88 5.32 0.96 7.35 0.96C8.18 0.96 9 1.11 9.78 1.43C10.56 1.77 11.25 2.21 11.85 2.82C12.44 3.43 12.9 4.1 13.23 4.9Z" fill="#CED0D6" fill-opacity="1.000000" fill-rule="evenodd"/>
		<path id="path" d="M9.12 9.32C9.34 9.3 9.54 9.46 9.57 9.68L9.63 10.34L9.77 10.18C10.27 9.55 11.03 9.1 11.9 9.01C12.78 8.9 13.62 9.17 14.26 9.69C14.57 9.94 14.85 10.26 15.05 10.61C15.18 10.86 15.28 11.11 15.36 11.38C15.41 11.59 15.28 11.82 15.07 11.87C14.86 11.92 14.63 11.8 14.58 11.58C14.53 11.38 14.46 11.19 14.35 11C14.2 10.74 13.99 10.5 13.76 10.32C13.28 9.93 12.65 9.72 11.99 9.8C11.33 9.87 10.77 10.22 10.38 10.69L10.29 10.8L10.88 10.74C11.11 10.7 11.31 10.87 11.33 11.09C11.35 11.3 11.19 11.51 10.98 11.53L9.38 11.71C9.16 11.73 8.97 11.57 8.94 11.35L8.77 9.76C8.73 9.54 8.9 9.36 9.12 9.32Z" fill="#1E88E5" fill-opacity="1.000000" fill-rule="nonzero"/>
		<path id="path" d="M9.17 12.41C9.38 12.35 9.59 12.48 9.66 12.69C9.8 13.2 10.1 13.64 10.5 13.95C10.99 14.34 11.62 14.52 12.28 14.44C12.94 14.36 13.49 14.03 13.87 13.53L13.95 13.43L13.36 13.5C13.15 13.52 12.95 13.37 12.92 13.15C12.89 12.93 13.05 12.73 13.27 12.7L14.86 12.51C15.07 12.48 15.27 12.64 15.3 12.85L15.49 14.44C15.52 14.67 15.37 14.87 15.15 14.89C14.93 14.92 14.73 14.76 14.7 14.55L14.62 13.87L14.5 14.04C13.99 14.68 13.25 15.12 12.38 15.24C11.49 15.34 10.65 15.09 10.01 14.59C9.47 14.17 9.07 13.58 8.89 12.9C8.83 12.69 8.96 12.47 9.17 12.41Z" fill="#1E88E5" fill-opacity="1.000000" fill-rule="nonzero"/>
		<path id="path" d="M6.62 7.64L6.62 3.78L8.04 3.78L8.04 7.05L9.03 8.04L8.29 9.3L6.62 7.64Z" fill="#CED0D6" fill-opacity="1.000000" fill-rule="evenodd"/>
		<path id="path" d="M2.44 8.05C2.75 10.19 4.41 11.92 6.52 12.25L7.35 13.75C4.06 13.75 1.35 11.24 1.01 8.05L2.44 8.05Z" fill="#CED0D6" fill-opacity="1.000000" fill-rule="evenodd"/>
	</g>
</svg>
