<svg width="19.000000" height="19.000000" viewBox="0 0 19 19" fill="none" xmlns="http://www.w3.org/2000/svg">
	<desc>
			Created with Pixso.
	</desc>
	<defs>
		<clipPath id="clip155_8">
			<rect id="magic.svg" width="19.000000" height="19.000000" fill="white" fill-opacity="0"/>
		</clipPath>
	</defs>
	<g clip-path="url(#clip155_8)">
		<path id="path" d="M3.91 16.65L3.19 15.93C2.72 15.46 2.72 14.69 3.19 14.21L11.21 6.19C11.69 5.71 12.46 5.71 12.94 6.19L13.65 6.9C14.13 7.38 14.13 8.15 13.65 8.62L5.63 16.65C5.15 17.12 4.38 17.12 3.91 16.65Z" fill="#000000" fill-opacity="0" fill-rule="nonzero"/>
		<path id="path" d="M3.19 15.93C2.72 15.46 2.72 14.69 3.19 14.21L11.21 6.19C11.69 5.71 12.46 5.71 12.94 6.19L13.65 6.9C14.13 7.38 14.13 8.15 13.65 8.62L5.63 16.65C5.15 17.12 4.38 17.12 3.91 16.65L3.19 15.93Z" stroke="#6E6E6E" stroke-opacity="1.000000" stroke-width="1.700000" stroke-linejoin="round"/>
		<path id="path" d="M9.16 8.24L9.14 8.24C8.84 7.95 8.84 7.48 9.14 7.18C9.43 6.89 9.9 6.89 10.2 7.18L10.2 7.21L9.16 8.24ZM12.61 9.63L12.64 9.63C12.94 9.93 12.94 10.39 12.64 10.69C12.34 10.99 11.88 10.99 11.58 10.69L11.58 10.66L12.61 9.63Z" fill="#000000" fill-opacity="0" fill-rule="nonzero"/>
		<path id="path" d="M9.67 7.71L12.11 10.16" stroke="#6E6E6E" stroke-opacity="1.000000" stroke-width="1.500000" stroke-linejoin="round" stroke-linecap="round"/>
		<path id="path" d="M12.15 1.8L12.13 1.78C12.13 1.22 12.57 0.78 13.13 0.78C13.69 0.78 14.13 1.22 14.13 1.78L14.11 1.8L12.15 1.8ZM14.11 3.23L14.13 3.25C14.13 3.81 13.69 4.25 13.13 4.25C12.57 4.25 12.13 3.81 12.13 3.25L12.15 3.23L14.11 3.23Z" fill="#000000" fill-opacity="0" fill-rule="nonzero"/>
		<path id="path" d="M13.13 1.78L13.13 3.25" stroke="#6E6E6E" stroke-opacity="1.000000" stroke-width="2.000000" stroke-linejoin="round" stroke-linecap="round"/>
		<path id="path" d="M16.97 7.59L16.95 7.61C16.39 7.61 15.95 7.17 15.95 6.61C15.95 6.05 16.39 5.61 16.95 5.61L16.97 5.63L16.97 7.59ZM18.15 5.63L18.17 5.61C18.73 5.61 19.17 6.05 19.17 6.61C19.17 7.17 18.73 7.61 18.17 7.61L18.15 7.59L18.15 5.63ZM13.83 12.23L13.8 12.23C13.41 11.83 13.41 11.21 13.81 10.81C14.2 10.42 14.83 10.42 15.22 10.82L15.22 10.84L13.83 12.23ZM16.41 12.04L16.44 12.04C16.83 12.44 16.83 13.06 16.43 13.46C16.04 13.85 15.42 13.85 15.02 13.45L15.02 13.42L16.41 12.04ZM9.1 4.67L9.13 4.67C9.52 5.07 9.52 5.69 9.12 6.09C8.72 6.48 8.1 6.48 7.71 6.08L7.71 6.06L9.1 4.67ZM6.51 4.86L6.49 4.86C6.09 4.46 6.09 3.84 6.49 3.44C6.89 3.05 7.51 3.05 7.91 3.45L7.91 3.47L6.51 4.86Z" fill="#000000" fill-opacity="0" fill-rule="nonzero"/>
		<path id="path" d="M16.95 6.61L18.17 6.61M14.51 11.52L15.73 12.75M8.42 5.38L7.2 4.15" stroke="#6E6E6E" stroke-opacity="1.000000" stroke-width="2.000000" stroke-linejoin="round" stroke-linecap="round"/>
	</g>
</svg>
