<svg width="16.000000" height="16.000000" viewBox="0 0 16 16" fill="none" xmlns="http://www.w3.org/2000/svg" xmlns:xlink="http://www.w3.org/1999/xlink">
	<desc>
			Created with Pixso.
	</desc>
	<defs>
		<clipPath id="clip106_33">
			<rect id="minify" width="16.000000" height="16.000000" fill="white" fill-opacity="0"/>
		</clipPath>
	</defs>
	<g clip-path="url(#clip106_33)">
		<path id="path" d="M3.04 5.55C3.5 5.55 3.79 5.25 3.79 4.8L3.79 3.3L5.29 3.3C5.75 3.3 6.04 3 6.04 2.55C6.04 2.1 5.75 1.8 5.29 1.8L3.04 1.8C2.59 1.8 2.29 2.1 2.29 2.55L2.29 4.8C2.29 5.25 2.59 5.55 3.04 5.55ZM13.55 10.05C13.1 10.05 12.8 10.35 12.8 10.8L12.8 12.3L11.3 12.3C10.85 12.3 10.55 12.6 10.55 13.05C10.55 13.5 10.85 13.8 11.3 13.8L13.55 13.8C14 13.8 14.3 13.5 14.3 13.05L14.3 10.8C14.3 10.35 14 10.05 13.55 10.05ZM13.55 7.05C13.55 6.6 13.25 6.3 12.8 6.3L10.85 6.3L14.07 3.07C14.37 2.77 14.37 2.32 14.07 2.02C13.77 1.72 13.32 1.72 13.02 2.02L9.79 5.25L9.79 3.3C9.79 2.85 9.5 2.55 9.04 2.55C8.59 2.55 8.29 2.85 8.29 3.3L8.29 7.05C8.29 7.5 8.59 7.8 9.04 7.8L12.8 7.8C13.25 7.8 13.55 7.5 13.55 7.05ZM6.79 8.55L3.04 8.55C2.59 8.55 2.29 8.85 2.29 9.3L2.29 13.05C2.29 13.5 2.59 13.8 3.04 13.8L6.79 13.8C7.25 13.8 7.54 13.5 7.54 13.05L7.54 9.3C7.54 8.85 7.25 8.55 6.79 8.55ZM6.04 12.3L3.79 12.3L3.79 10.05L6.04 10.05L6.04 12.3Z" fill="#6C707E" fill-opacity="1.000000" fill-rule="nonzero"/>
	</g>
</svg>
