<svg width="16.000000" height="16.000000" viewBox="0 0 16 16" fill="none" xmlns="http://www.w3.org/2000/svg" xmlns:xlink="http://www.w3.org/1999/xlink">
	<desc>
			Created with Pixso.
	</desc>
	<defs>
		<clipPath id="clip106_33">
			<rect id="minify" width="16.000000" height="16.000000" fill="white" fill-opacity="0"/>
		</clipPath>
	</defs>
	<g clip-path="url(#clip106_33)">
		<path id="path" d="M3.54 5.75C4 5.75 4.29 5.44 4.29 5L4.29 3.5L5.79 3.5C6.25 3.5 6.54 3.19 6.54 2.75C6.54 2.3 6.25 2 5.79 2L3.54 2C3.09 2 2.79 2.3 2.79 2.75L2.79 5C2.79 5.44 3.09 5.75 3.54 5.75ZM14.05 10.25C13.6 10.25 13.3 10.55 13.3 11L13.3 12.5L11.8 12.5C11.35 12.5 11.05 12.8 11.05 13.25C11.05 13.7 11.35 14 11.8 14L14.05 14C14.5 14 14.8 13.7 14.8 13.25L14.8 11C14.8 10.55 14.5 10.25 14.05 10.25ZM14.05 7.25C14.05 6.8 13.75 6.5 13.3 6.5L11.35 6.5L14.57 3.27C14.87 2.97 14.87 2.52 14.57 2.22C14.27 1.92 13.82 1.92 13.52 2.22L10.3 5.44L10.3 3.5C10.3 3.05 10 2.75 9.54 2.75C9.09 2.75 8.79 3.05 8.79 3.5L8.79 7.25C8.79 7.69 9.09 8 9.54 8L13.3 8C13.75 8 14.05 7.69 14.05 7.25ZM7.29 8.75L3.54 8.75C3.09 8.75 2.79 9.05 2.79 9.5L2.79 13.25C2.79 13.7 3.09 14 3.54 14L7.29 14C7.75 14 8.04 13.7 8.04 13.25L8.04 9.5C8.04 9.05 7.75 8.75 7.29 8.75ZM6.54 12.5L4.29 12.5L4.29 10.25L6.54 10.25L6.54 12.5Z" fill="#6C707E" fill-opacity="0.90" fill-rule="nonzero"/>
		<path id="path" d="M4.29 5L4.29 3.5L5.79 3.5C6.25 3.5 6.54 3.19 6.54 2.75C6.54 2.3 6.25 2 5.79 2L3.54 2C3.09 2 2.79 2.3 2.79 2.75L2.79 5C2.79 5.44 3.09 5.75 3.54 5.75C4 5.75 4.29 5.44 4.29 5ZM13.3 11L13.3 12.5L11.8 12.5C11.35 12.5 11.05 12.8 11.05 13.25C11.05 13.7 11.35 14 11.8 14L14.05 14C14.5 14 14.8 13.7 14.8 13.25L14.8 11C14.8 10.55 14.5 10.25 14.05 10.25C13.6 10.25 13.3 10.55 13.3 11ZM13.3 6.5L11.35 6.5L14.57 3.27C14.87 2.97 14.87 2.52 14.57 2.22C14.27 1.92 13.82 1.92 13.52 2.22L10.3 5.44L10.3 3.5C10.3 3.05 10 2.75 9.54 2.75C9.09 2.75 8.79 3.05 8.79 3.5L8.79 7.25C8.79 7.69 9.09 8 9.54 8L13.3 8C13.75 8 14.05 7.69 14.05 7.25C14.05 6.8 13.75 6.5 13.3 6.5ZM3.54 8.75C3.09 8.75 2.79 9.05 2.79 9.5L2.79 13.25C2.79 13.7 3.09 14 3.54 14L7.29 14C7.75 14 8.04 13.7 8.04 13.25L8.04 9.5C8.04 9.05 7.75 8.75 7.29 8.75L3.54 8.75ZM4.29 12.5L4.29 10.25L6.54 10.25L6.54 12.5L4.29 12.5Z" stroke="#6C707E" stroke-opacity="0.90" stroke-width="0.200000"/>
	</g>
</svg>
