<svg width="19.000000" height="19.000000" viewBox="0 0 19 19" fill="none" xmlns="http://www.w3.org/2000/svg">
	<desc>
			Created with Pixso.
	</desc>
	<defs>
		<clipPath id="clip114_48">
			<rect id="form_history.svg" width="19.000000" height="19.000000" fill="white" fill-opacity="0"/>
		</clipPath>
	</defs>
	<g clip-path="url(#clip114_48)">
		<path id="path" d="M4.31 7.23C4.8 7.23 5.12 6.9 5.12 6.42L5.12 4.79L6.74 4.79C7.24 4.79 7.55 4.47 7.55 3.98C7.55 3.49 7.24 3.17 6.74 3.17L4.31 3.17C3.82 3.17 3.5 3.49 3.5 3.98L3.5 6.42C3.5 6.9 3.82 7.23 4.31 7.23ZM15.68 12.1C15.2 12.1 14.87 12.43 14.87 12.91L14.87 14.54L13.25 14.54C12.76 14.54 12.44 14.86 12.44 15.35C12.44 15.84 12.76 16.16 13.25 16.16L15.68 16.16C16.17 16.16 16.5 15.84 16.5 15.35L16.5 12.91C16.5 12.43 16.17 12.1 15.68 12.1ZM15.68 8.85C15.68 8.37 15.36 8.04 14.87 8.04L12.76 8.04L16.25 4.54C16.57 4.22 16.57 3.73 16.25 3.41C15.92 3.08 15.43 3.08 15.11 3.41L11.61 6.9L11.61 4.79C11.61 4.3 11.3 3.98 10.8 3.98C10.31 3.98 9.99 4.3 9.99 4.79L9.99 8.85C9.99 9.34 10.31 9.66 10.8 9.66L14.87 9.66C15.36 9.66 15.68 9.34 15.68 8.85ZM8.37 10.48L4.31 10.48C3.82 10.48 3.5 10.8 3.5 11.29L3.5 15.35C3.5 15.84 3.82 16.16 4.31 16.16L8.37 16.16C8.86 16.16 9.18 15.84 9.18 15.35L9.18 11.29C9.18 10.8 8.86 10.48 8.37 10.48ZM7.55 14.54L5.12 14.54L5.12 12.1L7.55 12.1L7.55 14.54Z" fill="#CED0D6" fill-opacity="1.000000" fill-rule="nonzero"/>
	</g>
</svg>
