<svg width="18.000000" height="18.000000" viewBox="0 0 18 18" fill="none" xmlns="http://www.w3.org/2000/svg">
	<desc>
			Created with Pixso.
	</desc>
	<defs>
		<clipPath id="clip118_23">
			<rect id="number.svg" width="18.000000" height="18.000000" fill="white" fill-opacity="0"/>
		</clipPath>
	</defs>
	<g clip-path="url(#clip118_23)">
		<path id="path" d="M16.56 9C16.56 9.11 16.54 9.21 16.49 9.32C16.45 9.42 16.39 9.51 16.31 9.59C16.23 9.67 16.14 9.73 16.04 9.77C15.93 9.82 15.83 9.84 15.71 9.84L8.68 9.84C8.57 9.84 8.46 9.82 8.36 9.77C8.26 9.73 8.16 9.67 8.09 9.59C8.01 9.51 7.95 9.42 7.9 9.32C7.86 9.21 7.84 9.11 7.84 9C7.84 8.88 7.86 8.78 7.9 8.67C7.95 8.57 8.01 8.48 8.09 8.4C8.16 8.32 8.26 8.26 8.36 8.22C8.46 8.17 8.57 8.15 8.68 8.15L15.71 8.15C15.83 8.15 15.93 8.17 16.04 8.22C16.14 8.26 16.23 8.32 16.31 8.4C16.39 8.48 16.45 8.57 16.49 8.67C16.54 8.78 16.56 8.88 16.56 9ZM8.68 5.34L15.71 5.34C15.83 5.34 15.93 5.32 16.04 5.27C16.14 5.23 16.23 5.17 16.31 5.09C16.39 5.01 16.45 4.92 16.49 4.82C16.54 4.71 16.56 4.61 16.56 4.5C16.56 4.38 16.54 4.28 16.49 4.17C16.45 4.07 16.39 3.98 16.31 3.9C16.23 3.82 16.14 3.76 16.04 3.72C15.93 3.67 15.83 3.65 15.71 3.65L8.68 3.65C8.57 3.65 8.46 3.67 8.36 3.72C8.26 3.76 8.16 3.82 8.09 3.9C8.01 3.98 7.95 4.07 7.9 4.17C7.86 4.28 7.84 4.38 7.84 4.5C7.84 4.61 7.86 4.71 7.9 4.82C7.95 4.92 8.01 5.01 8.09 5.09C8.16 5.17 8.26 5.23 8.36 5.27C8.46 5.32 8.57 5.34 8.68 5.34ZM15.71 12.65L8.68 12.65C8.57 12.65 8.46 12.67 8.36 12.72C8.26 12.76 8.16 12.82 8.09 12.9C8.01 12.98 7.95 13.07 7.9 13.17C7.86 13.28 7.84 13.38 7.84 13.5C7.84 13.61 7.86 13.71 7.9 13.82C7.95 13.92 8.01 14.01 8.09 14.09C8.16 14.17 8.26 14.23 8.36 14.27C8.46 14.32 8.57 14.34 8.68 14.34L15.71 14.34C15.83 14.34 15.93 14.32 16.04 14.27C16.14 14.23 16.23 14.17 16.31 14.09C16.39 14.01 16.45 13.92 16.49 13.82C16.54 13.71 16.56 13.61 16.56 13.5C16.56 13.38 16.54 13.28 16.49 13.17C16.45 13.07 16.39 12.98 16.31 12.9C16.23 12.82 16.14 12.76 16.04 12.72C15.93 12.67 15.83 12.65 15.71 12.65ZM3.62 4.17L3.62 7.31C3.62 7.42 3.64 7.53 3.68 7.63C3.73 7.73 3.79 7.83 3.87 7.9C3.95 7.98 4.04 8.04 4.14 8.09C4.24 8.13 4.35 8.15 4.46 8.15C4.58 8.15 4.68 8.13 4.79 8.09C4.89 8.04 4.98 7.98 5.06 7.9C5.14 7.83 5.2 7.73 5.24 7.63C5.29 7.53 5.31 7.42 5.31 7.31L5.31 2.81C5.31 2.74 5.3 2.66 5.28 2.6C5.26 2.53 5.24 2.46 5.2 2.4C5.17 2.33 5.12 2.28 5.07 2.22C5.02 2.17 4.97 2.13 4.91 2.09C4.85 2.05 4.78 2.02 4.71 2C4.64 1.98 4.57 1.97 4.5 1.97C4.43 1.96 4.36 1.97 4.29 1.98C4.22 2 4.15 2.02 4.09 2.05L2.96 2.62C2.87 2.67 2.79 2.73 2.72 2.81C2.65 2.89 2.6 2.98 2.56 3.08C2.53 3.18 2.51 3.28 2.52 3.39C2.52 3.49 2.54 3.59 2.58 3.69C2.62 3.79 2.68 3.87 2.75 3.95C2.83 4.03 2.91 4.08 3.01 4.13C3.11 4.17 3.21 4.2 3.31 4.2C3.42 4.21 3.52 4.2 3.62 4.17ZM6.41 10.98C6.38 10.71 6.29 10.47 6.15 10.24C6.02 10.01 5.84 9.82 5.63 9.67C5.52 9.59 5.41 9.52 5.29 9.47C5.17 9.41 5.05 9.37 4.93 9.34C4.8 9.31 4.67 9.29 4.54 9.28C4.41 9.27 4.28 9.28 4.16 9.3C4.03 9.32 3.9 9.34 3.78 9.39C3.65 9.43 3.54 9.48 3.42 9.55C3.31 9.61 3.21 9.69 3.11 9.77C3.01 9.85 2.92 9.95 2.84 10.05C2.71 10.21 2.62 10.39 2.55 10.58C2.51 10.68 2.49 10.79 2.5 10.9C2.51 11.01 2.53 11.12 2.58 11.22C2.63 11.32 2.69 11.41 2.77 11.48C2.86 11.56 2.95 11.61 3.05 11.65C3.16 11.69 3.27 11.71 3.38 11.7C3.49 11.7 3.59 11.67 3.69 11.63C3.79 11.58 3.88 11.52 3.96 11.43C4.03 11.35 4.09 11.26 4.13 11.16C4.14 11.13 4.16 11.11 4.17 11.09C4.23 11.02 4.3 10.98 4.39 10.97C4.48 10.96 4.56 10.98 4.63 11.03C4.69 11.07 4.73 11.13 4.74 11.21C4.75 11.28 4.73 11.35 4.69 11.41L4.68 11.42L2.66 14.12C2.57 14.24 2.51 14.39 2.5 14.55C2.48 14.7 2.51 14.86 2.58 15C2.66 15.14 2.76 15.25 2.9 15.34C3.03 15.42 3.18 15.46 3.34 15.46L5.59 15.46C5.7 15.46 5.81 15.44 5.91 15.4C6.01 15.36 6.11 15.3 6.19 15.22C6.26 15.14 6.33 15.05 6.37 14.94C6.41 14.84 6.43 14.73 6.43 14.62C6.43 14.51 6.41 14.4 6.37 14.3C6.33 14.19 6.26 14.1 6.19 14.02C6.11 13.94 6.01 13.88 5.91 13.84C5.81 13.8 5.7 13.78 5.59 13.78L5.03 13.78L6.03 12.43C6.19 12.23 6.3 12 6.37 11.74C6.44 11.49 6.45 11.23 6.41 10.98Z" fill="#6C707E" fill-opacity="1.000000" fill-rule="nonzero"/>
	</g>
</svg>
