<svg width="18.000000" height="18.000000" viewBox="0 0 18 18" fill="none" xmlns="http://www.w3.org/2000/svg">
	<desc>
			Created with Pixso.
	</desc>
	<defs>
		<clipPath id="clip114_37">
			<rect id="form_history.svg" width="18.000000" height="18.000000" fill="white" fill-opacity="0"/>
		</clipPath>
	</defs>
	<g clip-path="url(#clip114_37)">
		<path id="path" d="M12.95 14.82L11.32 15.71C11.21 15.77 11.11 15.76 11.01 15.69C10.91 15.61 10.87 15.51 10.89 15.39L11.2 13.51L9.88 12.18C9.8 12.09 9.77 11.99 9.81 11.87C9.85 11.75 9.93 11.68 10.05 11.66L11.87 11.39L12.68 9.68C12.74 9.57 12.82 9.51 12.95 9.51C13.07 9.51 13.15 9.57 13.21 9.68L14.02 11.39L15.84 11.66C15.96 11.68 16.04 11.75 16.08 11.87C16.12 11.99 16.09 12.09 16.01 12.18L14.69 13.51L15 15.39C15.02 15.51 14.98 15.61 14.88 15.69C14.78 15.76 14.68 15.77 14.57 15.71L12.95 14.82ZM6.6 12.18L6.6 12.15C6.87 11.87 7.3 11.86 7.57 12.13C7.85 12.4 7.86 12.83 7.59 13.11L7.56 13.11L6.6 12.18ZM9.25 4.15L9.22 4.15C8.95 3.87 8.96 3.44 9.24 3.17C9.52 2.9 9.95 2.91 10.22 3.19L10.22 3.22L9.25 4.15Z" fill="#000000" fill-opacity="0" fill-rule="nonzero"/>
		<path id="path" d="M9.72 3.67L12.72 6.79L13.47 6.01C13.88 5.58 14.09 5.06 14.09 4.45C14.09 3.84 13.89 3.32 13.47 2.89C13.06 2.46 12.56 2.25 11.97 2.25C11.38 2.25 10.88 2.46 10.47 2.89L2.59 11.07L2.59 14.19L5.6 14.19L7.1 12.63M11.32 15.71C11.21 15.77 11.11 15.76 11.01 15.69C10.91 15.61 10.87 15.51 10.89 15.39L11.2 13.51L9.88 12.18C9.8 12.09 9.77 11.99 9.81 11.87C9.85 11.75 9.93 11.68 10.05 11.66L11.87 11.39L12.68 9.68C12.74 9.57 12.82 9.51 12.95 9.51C13.07 9.51 13.15 9.57 13.21 9.68L14.02 11.39L15.84 11.66C15.96 11.68 16.04 11.75 16.08 11.87C16.12 11.99 16.09 12.09 16.01 12.18L14.69 13.51L15 15.39C15.02 15.51 14.98 15.61 14.88 15.69C14.78 15.76 14.68 15.77 14.57 15.71L12.95 14.82L11.32 15.71Z" stroke="#CED0D6" stroke-opacity="1.000000" stroke-width="1.381250" stroke-linejoin="round" stroke-linecap="round"/>
	</g>
</svg>
