<svg width="16.000000" height="16.000000" viewBox="0 0 16 16" fill="none" xmlns="http://www.w3.org/2000/svg">
	<desc>
			Created with Pixso.
	</desc>
	<defs>
		<clipPath id="clip117_9">
			<rect id="pencil_star" width="16.000000" height="16.000000" fill="white" fill-opacity="0"/>
		</clipPath>
	</defs>
	<g clip-path="url(#clip117_9)">
		<path id="path" d="M12.11 14.07L10.4 14.96C10.29 15.02 10.18 15.01 10.08 14.94C9.98 14.86 9.94 14.76 9.96 14.64L10.28 12.76L8.91 11.43C8.82 11.34 8.79 11.24 8.83 11.12C8.87 11 8.95 10.93 9.08 10.91L10.98 10.64L11.83 8.93C11.89 8.82 11.98 8.76 12.11 8.76C12.23 8.76 12.32 8.82 12.38 8.93L13.23 10.64L15.13 10.91C15.26 10.93 15.34 11 15.38 11.12C15.42 11.24 15.39 11.34 15.3 11.43L13.93 12.76L14.25 14.64C14.27 14.76 14.23 14.86 14.13 14.94C14.03 15.01 13.92 15.02 13.81 14.96L12.11 14.07ZM5.51 11.42L5.51 11.39C5.78 11.12 6.21 11.12 6.48 11.39C6.76 11.67 6.76 12.1 6.48 12.37L6.45 12.37L5.51 11.42ZM8.28 3.41L8.25 3.41C7.98 3.14 7.97 2.71 8.25 2.43C8.52 2.16 8.95 2.16 9.22 2.43L9.22 2.46L8.28 3.41Z" fill="#000000" fill-opacity="0" fill-rule="nonzero"/>
		<path id="path" d="M8.74 2.92L11.87 6.04L12.65 5.26C13.09 4.83 13.3 4.31 13.3 3.7C13.3 3.09 13.09 2.57 12.65 2.14C12.22 1.71 11.7 1.5 11.09 1.5C10.48 1.5 9.95 1.71 9.52 2.14L1.29 10.32L1.29 13.44L4.43 13.44L6 11.88M10.4 14.96C10.29 15.02 10.18 15.01 10.08 14.94C9.98 14.86 9.94 14.76 9.96 14.64L10.28 12.76L8.91 11.43C8.82 11.34 8.79 11.24 8.83 11.12C8.87 11 8.95 10.93 9.08 10.91L10.98 10.64L11.83 8.93C11.89 8.82 11.98 8.76 12.11 8.76C12.23 8.76 12.32 8.82 12.38 8.93L13.23 10.64L15.13 10.91C15.26 10.93 15.34 11 15.38 11.12C15.42 11.24 15.39 11.34 15.3 11.43L13.93 12.76L14.25 14.64C14.27 14.76 14.23 14.86 14.13 14.94C14.03 15.01 13.92 15.02 13.81 14.96L12.11 14.07L10.4 14.96Z" stroke="#6C707E" stroke-opacity="1.000000" stroke-width="1.381250" stroke-linejoin="round" stroke-linecap="round"/>
	</g>
</svg>
