<svg width="17.000000" height="17.000000" viewBox="0 0 17 17" fill="none" xmlns="http://www.w3.org/2000/svg" xmlns:xlink="http://www.w3.org/1999/xlink">
	<desc>
			Created with Pixso.
	</desc>
	<defs>
		<clipPath id="clip112_1">
			<rect id="document_query_line.svg" width="17.000000" height="17.000000" fill="white" fill-opacity="0"/>
		</clipPath>
	</defs>
	<g clip-path="url(#clip112_1)">
		<path id="path" d="M13.23 13.14C13.25 13.1 13.27 13.06 13.3 13.01C13.32 12.97 13.34 12.93 13.36 12.88C13.38 12.84 13.39 12.8 13.41 12.75C13.43 12.71 13.44 12.66 13.46 12.62C13.47 12.57 13.48 12.52 13.49 12.48C13.5 12.43 13.51 12.39 13.52 12.34C13.53 12.29 13.54 12.24 13.54 12.2C13.55 12.15 13.55 12.1 13.55 12.05C13.55 12.01 13.56 11.96 13.56 11.91C13.55 11.86 13.55 11.82 13.55 11.77C13.55 11.72 13.54 11.67 13.54 11.63C13.53 11.58 13.52 11.53 13.51 11.49C13.5 11.44 13.49 11.39 13.48 11.35C13.47 11.3 13.46 11.25 13.44 11.21C13.43 11.16 13.41 11.12 13.39 11.07C13.38 11.03 13.36 10.99 13.34 10.94C13.32 10.9 13.3 10.86 13.28 10.81C13.25 10.77 13.23 10.73 13.2 10.69C13.18 10.65 13.15 10.61 13.13 10.57C13.1 10.53 13.07 10.49 13.04 10.46C13.01 10.42 12.98 10.38 12.95 10.35C12.92 10.31 12.88 10.28 12.85 10.24C12.82 10.21 12.78 10.18 12.74 10.15C12.71 10.11 12.67 10.08 12.63 10.05C12.6 10.03 12.56 10 12.52 9.97C12.48 9.94 12.44 9.92 12.4 9.89C12.36 9.87 12.32 9.85 12.27 9.82C12.23 9.8 12.19 9.78 12.15 9.76C12.1 9.74 12.06 9.72 12.01 9.71C11.97 9.69 11.92 9.68 11.88 9.66C11.83 9.65 11.79 9.64 11.74 9.62C11.69 9.61 11.65 9.6 11.6 9.59C11.55 9.59 11.51 9.58 11.46 9.57C11.41 9.57 11.36 9.56 11.32 9.56C11.27 9.56 11.22 9.56 11.17 9.56C11.13 9.56 11.08 9.56 11.03 9.56C10.98 9.57 10.94 9.57 10.89 9.58C10.84 9.58 10.79 9.59 10.75 9.6C10.7 9.61 10.65 9.62 10.61 9.63C10.56 9.64 10.51 9.65 10.47 9.67C10.42 9.68 10.38 9.7 10.33 9.71C10.29 9.73 10.25 9.75 10.2 9.77C10.16 9.79 10.12 9.81 10.07 9.83C10.03 9.85 9.99 9.88 9.95 9.9C9.91 9.93 9.87 9.95 9.83 9.98C9.79 10.01 9.75 10.03 9.71 10.06C9.68 10.09 9.64 10.12 9.6 10.16C9.57 10.19 9.53 10.22 9.5 10.25C9.47 10.29 9.43 10.32 9.4 10.36C9.37 10.39 9.34 10.43 9.31 10.47C9.28 10.5 9.25 10.54 9.23 10.58C9.2 10.62 9.17 10.66 9.15 10.7C9.12 10.74 9.1 10.78 9.08 10.83C9.06 10.87 9.04 10.91 9.02 10.96C9 11 8.98 11.04 8.96 11.09C8.94 11.13 8.93 11.18 8.91 11.22C8.9 11.27 8.89 11.31 8.88 11.36C8.86 11.41 8.85 11.45 8.84 11.5C8.84 11.55 8.83 11.59 8.82 11.64C8.82 11.69 8.81 11.74 8.81 11.78C8.81 11.83 8.81 11.88 8.81 11.93C8.8 11.97 8.81 12.02 8.81 12.07C8.81 12.12 8.82 12.16 8.82 12.21C8.83 12.26 8.83 12.31 8.84 12.35C8.85 12.4 8.86 12.45 8.87 12.49C8.88 12.54 8.9 12.58 8.91 12.63C8.92 12.68 8.94 12.72 8.96 12.77C8.97 12.81 8.99 12.85 9.01 12.9C9.03 12.94 9.05 12.98 9.07 13.03C9.09 13.07 9.12 13.11 9.14 13.15C9.17 13.19 9.19 13.23 9.22 13.27C9.25 13.31 9.27 13.35 9.3 13.39C9.33 13.42 9.36 13.46 9.39 13.5C9.42 13.53 9.46 13.57 9.49 13.6C9.52 13.64 9.56 13.67 9.59 13.7C9.63 13.73 9.67 13.76 9.7 13.79C9.74 13.82 9.78 13.85 9.82 13.88C9.86 13.91 9.9 13.93 9.94 13.96C9.98 13.98 10.02 14.01 10.06 14.03C10.1 14.05 10.15 14.07 10.19 14.09C10.23 14.11 10.28 14.13 10.32 14.15C10.37 14.16 10.41 14.18 10.46 14.19C10.5 14.21 10.55 14.22 10.59 14.23C10.64 14.25 10.69 14.26 10.73 14.27C10.78 14.27 10.83 14.28 10.87 14.29C10.92 14.29 10.97 14.3 11.02 14.3C11.06 14.31 11.11 14.31 11.16 14.31C11.21 14.31 11.25 14.31 11.3 14.3C11.35 14.3 11.4 14.3 11.44 14.29C11.49 14.29 11.54 14.28 11.59 14.27C11.63 14.27 11.68 14.26 11.73 14.24C11.77 14.23 11.82 14.22 11.86 14.21C11.91 14.19 11.95 14.18 12 14.16C12.04 14.15 12.09 14.13 12.13 14.11C12.18 14.09 12.22 14.07 12.26 14.05C12.3 14.03 12.35 14 12.39 13.98L13.14 14.73C13.17 14.75 13.2 14.77 13.23 14.79C13.26 14.81 13.29 14.82 13.33 14.84C13.36 14.85 13.4 14.86 13.44 14.86C13.47 14.87 13.51 14.87 13.55 14.87C13.58 14.87 13.62 14.86 13.66 14.86C13.69 14.85 13.73 14.84 13.76 14.82C13.8 14.81 13.83 14.79 13.86 14.77C13.89 14.75 13.92 14.72 13.94 14.7C13.97 14.67 13.99 14.64 14.01 14.61C14.04 14.58 14.05 14.55 14.07 14.51C14.08 14.48 14.09 14.45 14.1 14.41C14.11 14.37 14.12 14.34 14.12 14.3C14.12 14.26 14.12 14.23 14.11 14.19C14.11 14.15 14.1 14.12 14.08 14.08C14.07 14.05 14.06 14.01 14.04 13.98C14.02 13.95 14 13.92 13.97 13.89L13.23 13.14ZM9.99 11.93C9.99 11.89 10 11.86 10 11.82C10 11.78 10.01 11.74 10.02 11.7C10.02 11.66 10.03 11.63 10.04 11.59C10.06 11.55 10.07 11.51 10.08 11.48C10.1 11.44 10.12 11.41 10.13 11.37C10.15 11.34 10.17 11.31 10.19 11.27C10.22 11.24 10.24 11.21 10.26 11.18C10.29 11.15 10.31 11.12 10.34 11.09C10.37 11.07 10.4 11.04 10.43 11.02C10.46 10.99 10.49 10.97 10.52 10.95C10.55 10.92 10.59 10.9 10.62 10.89C10.66 10.87 10.69 10.85 10.73 10.84C10.76 10.82 10.8 10.81 10.84 10.8C10.87 10.79 10.91 10.78 10.95 10.77C10.99 10.76 11.03 10.76 11.06 10.75C11.1 10.75 11.14 10.75 11.18 10.75C11.22 10.75 11.26 10.75 11.3 10.75C11.34 10.76 11.37 10.76 11.41 10.77C11.45 10.78 11.49 10.79 11.53 10.8C11.56 10.81 11.6 10.82 11.64 10.84C11.67 10.85 11.71 10.87 11.74 10.89C11.78 10.9 11.81 10.92 11.84 10.95C11.87 10.97 11.9 10.99 11.93 11.02C11.96 11.04 11.99 11.07 12.02 11.09C12.05 11.12 12.07 11.15 12.1 11.18C12.12 11.21 12.15 11.24 12.17 11.27C12.19 11.31 12.21 11.34 12.23 11.37C12.25 11.41 12.26 11.44 12.28 11.48C12.29 11.51 12.31 11.55 12.32 11.59C12.33 11.63 12.34 11.66 12.35 11.7C12.35 11.74 12.36 11.78 12.36 11.82C12.37 11.86 12.37 11.89 12.37 11.93C12.37 11.97 12.37 12.01 12.36 12.05C12.36 12.09 12.35 12.13 12.35 12.16C12.34 12.2 12.33 12.24 12.32 12.28C12.31 12.32 12.29 12.35 12.28 12.39C12.26 12.42 12.25 12.46 12.23 12.49C12.21 12.53 12.19 12.56 12.17 12.59C12.15 12.63 12.12 12.66 12.1 12.69C12.07 12.72 12.05 12.75 12.02 12.77C11.99 12.8 11.96 12.83 11.93 12.85C11.9 12.88 11.87 12.9 11.84 12.92C11.81 12.94 11.78 12.96 11.74 12.98C11.71 13 11.67 13.02 11.64 13.03C11.6 13.05 11.56 13.06 11.53 13.07C11.49 13.08 11.45 13.09 11.41 13.1C11.37 13.11 11.34 13.11 11.3 13.12C11.26 13.12 11.22 13.12 11.18 13.12C11.14 13.12 11.1 13.12 11.06 13.12C11.03 13.11 10.99 13.11 10.95 13.1C10.91 13.09 10.87 13.08 10.84 13.07C10.8 13.06 10.76 13.05 10.73 13.03C10.69 13.02 10.66 13 10.62 12.98C10.59 12.96 10.55 12.94 10.52 12.92C10.49 12.9 10.46 12.88 10.43 12.85C10.4 12.83 10.37 12.8 10.34 12.77C10.31 12.75 10.29 12.72 10.26 12.69C10.24 12.66 10.22 12.63 10.19 12.59C10.17 12.56 10.15 12.53 10.13 12.49C10.12 12.46 10.1 12.42 10.08 12.39C10.07 12.35 10.06 12.32 10.04 12.28C10.03 12.24 10.02 12.2 10.02 12.16C10.01 12.13 10 12.09 10 12.05C10 12.01 9.99 11.97 9.99 11.93Z" fill="#CED0D6" fill-opacity="1.000000" fill-rule="nonzero"/>
		<path id="path" d="M12.24 2.12L3.32 2.12C3.25 2.12 3.19 2.12 3.13 2.13C3.07 2.14 3.01 2.14 2.94 2.16C2.88 2.17 2.82 2.18 2.76 2.2C2.7 2.22 2.64 2.24 2.59 2.27C2.53 2.29 2.47 2.32 2.42 2.35C2.36 2.38 2.31 2.41 2.25 2.44C2.2 2.48 2.15 2.51 2.1 2.55C2.06 2.59 2.01 2.64 1.97 2.68C1.92 2.72 1.88 2.77 1.84 2.82C1.8 2.87 1.76 2.92 1.73 2.97C1.69 3.02 1.66 3.08 1.63 3.13C1.6 3.19 1.57 3.24 1.55 3.3C1.53 3.36 1.51 3.42 1.49 3.48C1.47 3.54 1.45 3.6 1.44 3.66C1.43 3.72 1.42 3.78 1.41 3.85C1.41 3.91 1.4 3.97 1.4 4.03L1.4 12.96C1.4 13.02 1.41 13.08 1.41 13.14C1.42 13.21 1.43 13.27 1.44 13.33C1.45 13.39 1.47 13.45 1.49 13.51C1.51 13.57 1.53 13.63 1.55 13.69C1.57 13.75 1.6 13.8 1.63 13.86C1.66 13.91 1.69 13.97 1.73 14.02C1.76 14.07 1.8 14.12 1.84 14.17C1.88 14.22 1.92 14.27 1.97 14.31C2.01 14.35 2.06 14.4 2.1 14.44C2.15 14.48 2.2 14.51 2.25 14.55C2.31 14.58 2.36 14.61 2.42 14.64C2.47 14.67 2.53 14.7 2.59 14.72C2.64 14.75 2.7 14.77 2.76 14.79C2.82 14.81 2.88 14.82 2.94 14.83C3.01 14.85 3.07 14.85 3.13 14.86C3.19 14.87 3.25 14.87 3.32 14.87L7.14 14.87C7.18 14.87 7.23 14.87 7.27 14.86C7.31 14.85 7.35 14.84 7.39 14.82C7.43 14.81 7.46 14.79 7.5 14.76C7.53 14.74 7.56 14.71 7.59 14.68C7.62 14.65 7.65 14.62 7.67 14.59C7.7 14.55 7.72 14.52 7.73 14.48C7.75 14.44 7.76 14.4 7.77 14.36C7.78 14.32 7.78 14.27 7.78 14.23C7.78 14.19 7.78 14.15 7.77 14.11C7.76 14.07 7.75 14.03 7.73 13.99C7.72 13.95 7.7 13.91 7.67 13.88C7.65 13.84 7.62 13.81 7.59 13.78C7.56 13.75 7.53 13.73 7.5 13.7C7.46 13.68 7.43 13.66 7.39 13.64C7.35 13.63 7.31 13.62 7.27 13.61C7.23 13.6 7.18 13.6 7.14 13.6L3.32 13.6C3.28 13.6 3.23 13.59 3.19 13.58C3.15 13.57 3.11 13.56 3.07 13.55C3.03 13.53 3 13.51 2.96 13.49C2.93 13.46 2.9 13.44 2.87 13.41C2.84 13.38 2.81 13.35 2.79 13.31C2.76 13.28 2.74 13.24 2.73 13.2C2.71 13.16 2.7 13.12 2.69 13.08C2.68 13.04 2.68 13 2.68 12.96L2.68 4.03C2.68 3.99 2.68 3.95 2.69 3.91C2.7 3.87 2.71 3.83 2.73 3.79C2.74 3.75 2.76 3.71 2.79 3.68C2.81 3.64 2.84 3.61 2.87 3.58C2.9 3.55 2.93 3.53 2.96 3.5C3 3.48 3.03 3.46 3.07 3.44C3.11 3.43 3.15 3.42 3.19 3.41C3.23 3.4 3.28 3.39 3.32 3.39L12.24 3.39C12.28 3.39 12.33 3.4 12.37 3.41C12.41 3.42 12.45 3.43 12.49 3.44C12.53 3.46 12.56 3.48 12.6 3.5C12.63 3.53 12.66 3.55 12.69 3.58C12.72 3.61 12.75 3.64 12.77 3.68C12.8 3.71 12.82 3.75 12.83 3.79C12.85 3.83 12.86 3.87 12.87 3.91C12.88 3.95 12.88 3.99 12.88 4.03L12.88 7.86C12.88 7.9 12.88 7.94 12.89 7.98C12.9 8.02 12.91 8.06 12.93 8.1C12.94 8.14 12.96 8.18 12.99 8.21C13.01 8.25 13.04 8.28 13.07 8.31C13.1 8.34 13.13 8.36 13.16 8.39C13.2 8.41 13.23 8.43 13.27 8.45C13.31 8.46 13.35 8.47 13.39 8.48C13.43 8.49 13.48 8.5 13.52 8.5C13.56 8.5 13.6 8.49 13.64 8.48C13.68 8.47 13.72 8.46 13.76 8.45C13.8 8.43 13.84 8.41 13.87 8.39C13.91 8.36 13.94 8.34 13.97 8.31C14 8.28 14.02 8.25 14.05 8.21C14.07 8.18 14.09 8.14 14.11 8.1C14.12 8.06 14.13 8.02 14.14 7.98C14.15 7.94 14.16 7.9 14.16 7.86L14.16 4.03C14.16 3.97 14.15 3.91 14.15 3.85C14.14 3.78 14.13 3.72 14.12 3.66C14.11 3.6 14.09 3.54 14.07 3.48C14.05 3.42 14.03 3.36 14.01 3.3C13.99 3.24 13.96 3.19 13.93 3.13C13.9 3.08 13.87 3.02 13.83 2.97C13.8 2.92 13.76 2.87 13.72 2.82C13.68 2.77 13.64 2.72 13.59 2.68C13.55 2.64 13.5 2.59 13.46 2.55C13.41 2.51 13.36 2.48 13.31 2.44C13.25 2.41 13.2 2.38 13.14 2.35C13.09 2.32 13.03 2.29 12.97 2.27C12.92 2.24 12.86 2.22 12.8 2.2C12.74 2.18 12.68 2.17 12.62 2.16C12.55 2.14 12.49 2.14 12.43 2.13C12.37 2.12 12.31 2.12 12.24 2.12Z" fill="#CED0D6" fill-opacity="1.000000" fill-rule="nonzero"/>
		<path id="path" d="M5.11 6.58L11.31 6.58C11.35 6.58 11.39 6.58 11.43 6.57C11.47 6.56 11.51 6.55 11.55 6.53C11.59 6.52 11.62 6.5 11.66 6.47C11.69 6.45 11.72 6.43 11.75 6.4C11.78 6.37 11.81 6.33 11.83 6.3C11.85 6.26 11.87 6.23 11.89 6.19C11.9 6.15 11.91 6.11 11.92 6.07C11.93 6.03 11.93 5.99 11.93 5.94C11.93 5.9 11.93 5.86 11.92 5.82C11.91 5.78 11.9 5.74 11.89 5.7C11.87 5.66 11.85 5.63 11.83 5.59C11.81 5.56 11.78 5.52 11.75 5.49C11.72 5.46 11.69 5.44 11.66 5.41C11.62 5.39 11.59 5.37 11.55 5.36C11.51 5.34 11.47 5.33 11.43 5.32C11.39 5.31 11.35 5.31 11.31 5.31L5.11 5.31C5.07 5.31 5.03 5.31 4.99 5.32C4.95 5.33 4.92 5.34 4.88 5.36C4.84 5.37 4.8 5.39 4.77 5.41C4.74 5.44 4.71 5.46 4.68 5.49C4.65 5.52 4.62 5.56 4.6 5.59C4.58 5.63 4.56 5.66 4.54 5.7C4.53 5.74 4.51 5.78 4.51 5.82C4.5 5.86 4.5 5.9 4.5 5.94C4.5 5.99 4.5 6.03 4.51 6.07C4.51 6.11 4.53 6.15 4.54 6.19C4.56 6.23 4.58 6.26 4.6 6.3C4.62 6.33 4.65 6.37 4.68 6.4C4.71 6.43 4.74 6.45 4.77 6.47C4.8 6.5 4.84 6.52 4.88 6.53C4.92 6.55 4.95 6.56 4.99 6.57C5.03 6.58 5.07 6.58 5.11 6.58ZM8.21 8.5C8.21 8.45 8.21 8.41 8.2 8.37C8.19 8.33 8.18 8.29 8.17 8.25C8.15 8.21 8.13 8.18 8.11 8.14C8.09 8.11 8.06 8.07 8.03 8.04C8 8.01 7.97 7.99 7.94 7.96C7.9 7.94 7.87 7.92 7.83 7.91C7.79 7.89 7.75 7.88 7.71 7.87C7.67 7.86 7.63 7.86 7.59 7.86L5.11 7.86C5.07 7.86 5.03 7.86 4.99 7.87C4.95 7.88 4.92 7.89 4.88 7.91C4.84 7.92 4.8 7.94 4.77 7.96C4.74 7.99 4.71 8.01 4.68 8.04C4.65 8.07 4.62 8.11 4.6 8.14C4.58 8.18 4.56 8.21 4.54 8.25C4.53 8.29 4.51 8.33 4.51 8.37C4.5 8.41 4.5 8.45 4.5 8.5C4.5 8.54 4.5 8.58 4.51 8.62C4.51 8.66 4.53 8.7 4.54 8.74C4.56 8.78 4.58 8.81 4.6 8.85C4.62 8.88 4.65 8.92 4.68 8.95C4.71 8.98 4.74 9 4.77 9.03C4.8 9.05 4.84 9.07 4.88 9.08C4.92 9.1 4.95 9.11 4.99 9.12C5.03 9.13 5.07 9.13 5.11 9.13L7.59 9.13C7.63 9.13 7.67 9.13 7.71 9.12C7.75 9.11 7.79 9.1 7.83 9.08C7.87 9.07 7.9 9.05 7.94 9.03C7.97 9 8 8.98 8.03 8.95C8.06 8.92 8.09 8.88 8.11 8.85C8.13 8.81 8.15 8.78 8.17 8.74C8.18 8.7 8.19 8.66 8.2 8.62C8.21 8.58 8.21 8.54 8.21 8.5ZM5.11 10.41C5.07 10.41 5.03 10.41 4.99 10.42C4.95 10.43 4.92 10.44 4.88 10.46C4.84 10.47 4.8 10.49 4.77 10.52C4.74 10.54 4.71 10.56 4.68 10.59C4.65 10.62 4.62 10.66 4.6 10.69C4.58 10.73 4.56 10.76 4.54 10.8C4.53 10.84 4.52 10.88 4.51 10.92C4.5 10.96 4.5 11 4.5 11.05C4.5 11.09 4.5 11.13 4.51 11.17C4.52 11.21 4.53 11.25 4.54 11.29C4.56 11.33 4.58 11.36 4.6 11.4C4.62 11.43 4.65 11.47 4.68 11.5C4.71 11.53 4.74 11.55 4.77 11.57C4.8 11.6 4.84 11.62 4.88 11.63C4.92 11.65 4.95 11.66 4.99 11.67C5.03 11.68 5.07 11.68 5.11 11.68L6.35 11.68C6.4 11.68 6.44 11.68 6.48 11.67C6.52 11.66 6.55 11.65 6.59 11.63C6.63 11.62 6.66 11.6 6.7 11.57C6.73 11.55 6.76 11.53 6.79 11.5C6.82 11.47 6.85 11.43 6.87 11.4C6.89 11.36 6.91 11.33 6.93 11.29C6.94 11.25 6.95 11.21 6.96 11.17C6.97 11.13 6.97 11.09 6.97 11.05C6.97 11 6.97 10.96 6.96 10.92C6.95 10.88 6.94 10.84 6.93 10.8C6.91 10.76 6.89 10.73 6.87 10.69C6.85 10.66 6.82 10.62 6.79 10.59C6.76 10.56 6.73 10.54 6.7 10.52C6.66 10.49 6.63 10.47 6.59 10.46C6.55 10.44 6.52 10.43 6.48 10.42C6.44 10.41 6.4 10.41 6.35 10.41L5.11 10.41Z" fill="#CED0D6" fill-opacity="1.000000" fill-rule="nonzero"/>
	</g>
</svg>
