<svg width="17.000000" height="17.000000" viewBox="0 0 17 17" fill="none" xmlns="http://www.w3.org/2000/svg">
	<desc>
			Created with Pixso.
	</desc>
	<defs>
		<clipPath id="clip112_1">
			<rect id="query" width="17.000000" height="17.000000" fill="white" fill-opacity="0"/>
		</clipPath>
	</defs>
	<g clip-path="url(#clip112_1)">
		<path id="path" d="M13.53 13.14C13.55 13.1 13.57 13.06 13.6 13.01C13.62 12.97 13.64 12.93 13.66 12.88C13.68 12.84 13.69 12.8 13.71 12.75C13.73 12.71 13.74 12.66 13.76 12.62C13.77 12.57 13.78 12.52 13.79 12.48C13.8 12.43 13.81 12.39 13.82 12.34C13.83 12.29 13.84 12.24 13.84 12.2C13.85 12.15 13.85 12.1 13.85 12.05C13.85 12.01 13.86 11.96 13.86 11.91C13.85 11.86 13.85 11.82 13.85 11.77C13.85 11.72 13.84 11.67 13.84 11.63C13.83 11.58 13.82 11.53 13.81 11.49C13.8 11.44 13.79 11.39 13.78 11.35C13.77 11.3 13.76 11.25 13.74 11.21C13.73 11.16 13.71 11.12 13.69 11.07C13.68 11.03 13.66 10.99 13.64 10.94C13.62 10.9 13.6 10.86 13.58 10.81C13.55 10.77 13.53 10.73 13.5 10.69C13.48 10.65 13.45 10.61 13.43 10.57C13.4 10.53 13.37 10.49 13.34 10.46C13.31 10.42 13.28 10.38 13.25 10.35C13.22 10.31 13.18 10.28 13.15 10.24C13.12 10.21 13.08 10.18 13.04 10.15C13.01 10.11 12.97 10.08 12.93 10.05C12.9 10.03 12.86 10 12.82 9.97C12.78 9.94 12.74 9.92 12.7 9.89C12.66 9.87 12.62 9.85 12.57 9.82C12.53 9.8 12.49 9.78 12.45 9.76C12.4 9.74 12.36 9.72 12.31 9.71C12.27 9.69 12.22 9.68 12.18 9.66C12.13 9.65 12.09 9.64 12.04 9.62C11.99 9.61 11.95 9.6 11.9 9.59C11.85 9.59 11.81 9.58 11.76 9.57C11.71 9.57 11.66 9.56 11.62 9.56C11.57 9.56 11.52 9.56 11.47 9.56C11.43 9.56 11.38 9.56 11.33 9.56C11.28 9.57 11.24 9.57 11.19 9.58C11.14 9.58 11.09 9.59 11.05 9.6C11 9.61 10.95 9.62 10.91 9.63C10.86 9.64 10.81 9.65 10.77 9.67C10.72 9.68 10.68 9.7 10.63 9.71C10.59 9.73 10.55 9.75 10.5 9.77C10.46 9.79 10.42 9.81 10.37 9.83C10.33 9.85 10.29 9.88 10.25 9.9C10.21 9.93 10.17 9.95 10.13 9.98C10.09 10.01 10.05 10.03 10.01 10.06C9.98 10.09 9.94 10.12 9.9 10.16C9.87 10.19 9.83 10.22 9.8 10.25C9.77 10.29 9.73 10.32 9.7 10.36C9.67 10.39 9.64 10.43 9.61 10.47C9.58 10.5 9.55 10.54 9.53 10.58C9.5 10.62 9.47 10.66 9.45 10.7C9.42 10.74 9.4 10.78 9.38 10.83C9.36 10.87 9.34 10.91 9.32 10.96C9.3 11 9.28 11.04 9.26 11.09C9.24 11.13 9.23 11.18 9.21 11.22C9.2 11.27 9.19 11.31 9.18 11.36C9.16 11.41 9.15 11.45 9.14 11.5C9.14 11.55 9.13 11.59 9.12 11.64C9.12 11.69 9.11 11.74 9.11 11.78C9.11 11.83 9.11 11.88 9.1 11.93C9.1 11.97 9.11 12.02 9.11 12.07C9.11 12.12 9.12 12.16 9.12 12.21C9.13 12.26 9.13 12.31 9.14 12.35C9.15 12.4 9.16 12.45 9.17 12.49C9.18 12.54 9.2 12.58 9.21 12.63C9.22 12.68 9.24 12.72 9.26 12.77C9.27 12.81 9.29 12.85 9.31 12.9C9.33 12.94 9.35 12.98 9.37 13.03C9.39 13.07 9.42 13.11 9.44 13.15C9.47 13.19 9.49 13.23 9.52 13.27C9.55 13.31 9.57 13.35 9.6 13.39C9.63 13.42 9.66 13.46 9.69 13.5C9.72 13.53 9.76 13.57 9.79 13.6C9.82 13.64 9.86 13.67 9.89 13.7C9.93 13.73 9.97 13.76 10 13.79C10.04 13.82 10.08 13.85 10.12 13.88C10.16 13.91 10.2 13.93 10.24 13.96C10.28 13.98 10.32 14.01 10.36 14.03C10.4 14.05 10.45 14.07 10.49 14.09C10.53 14.11 10.58 14.13 10.62 14.15C10.67 14.16 10.71 14.18 10.76 14.19C10.8 14.21 10.85 14.22 10.89 14.23C10.94 14.25 10.99 14.26 11.03 14.27C11.08 14.27 11.13 14.28 11.17 14.29C11.22 14.29 11.27 14.3 11.32 14.3C11.36 14.31 11.41 14.31 11.46 14.31C11.51 14.31 11.55 14.31 11.6 14.3C11.65 14.3 11.7 14.3 11.74 14.29C11.79 14.29 11.84 14.28 11.89 14.27C11.93 14.27 11.98 14.26 12.03 14.24C12.07 14.23 12.12 14.22 12.16 14.21C12.21 14.19 12.25 14.18 12.3 14.16C12.34 14.15 12.39 14.13 12.43 14.11C12.48 14.09 12.52 14.07 12.56 14.05C12.6 14.03 12.65 14 12.69 13.98L13.44 14.73C13.47 14.75 13.5 14.77 13.53 14.79C13.56 14.81 13.59 14.82 13.63 14.84C13.66 14.85 13.7 14.86 13.74 14.86C13.77 14.87 13.81 14.87 13.85 14.87C13.88 14.87 13.92 14.86 13.96 14.86C13.99 14.85 14.03 14.84 14.06 14.82C14.1 14.81 14.13 14.79 14.16 14.77C14.19 14.75 14.22 14.72 14.24 14.7C14.27 14.67 14.29 14.64 14.31 14.61C14.34 14.58 14.35 14.55 14.37 14.51C14.38 14.48 14.39 14.45 14.4 14.41C14.41 14.37 14.42 14.34 14.42 14.3C14.42 14.26 14.42 14.23 14.41 14.19C14.41 14.15 14.4 14.12 14.38 14.08C14.37 14.05 14.36 14.01 14.34 13.98C14.32 13.95 14.3 13.92 14.27 13.89L13.53 13.14ZM10.29 11.93C10.29 11.89 10.3 11.86 10.3 11.82C10.3 11.78 10.31 11.74 10.32 11.7C10.32 11.66 10.33 11.63 10.34 11.59C10.36 11.55 10.37 11.51 10.38 11.48C10.4 11.44 10.42 11.41 10.43 11.37C10.45 11.34 10.47 11.31 10.49 11.27C10.52 11.24 10.54 11.21 10.56 11.18C10.59 11.15 10.61 11.12 10.64 11.09C10.67 11.07 10.7 11.04 10.73 11.02C10.76 10.99 10.79 10.97 10.82 10.95C10.85 10.92 10.89 10.9 10.92 10.89C10.96 10.87 10.99 10.85 11.03 10.84C11.06 10.82 11.1 10.81 11.14 10.8C11.17 10.79 11.21 10.78 11.25 10.77C11.29 10.76 11.33 10.76 11.36 10.75C11.4 10.75 11.44 10.75 11.48 10.75C11.52 10.75 11.56 10.75 11.6 10.75C11.64 10.76 11.67 10.76 11.71 10.77C11.75 10.78 11.79 10.79 11.83 10.8C11.86 10.81 11.9 10.82 11.94 10.84C11.97 10.85 12.01 10.87 12.04 10.89C12.08 10.9 12.11 10.92 12.14 10.95C12.17 10.97 12.2 10.99 12.23 11.02C12.26 11.04 12.29 11.07 12.32 11.09C12.35 11.12 12.37 11.15 12.4 11.18C12.42 11.21 12.45 11.24 12.47 11.27C12.49 11.31 12.51 11.34 12.53 11.37C12.55 11.41 12.56 11.44 12.58 11.48C12.59 11.51 12.61 11.55 12.62 11.59C12.63 11.63 12.64 11.66 12.65 11.7C12.65 11.74 12.66 11.78 12.66 11.82C12.67 11.86 12.67 11.89 12.67 11.93C12.67 11.97 12.67 12.01 12.66 12.05C12.66 12.09 12.65 12.13 12.65 12.16C12.64 12.2 12.63 12.24 12.62 12.28C12.61 12.32 12.59 12.35 12.58 12.39C12.56 12.42 12.55 12.46 12.53 12.49C12.51 12.53 12.49 12.56 12.47 12.59C12.45 12.63 12.42 12.66 12.4 12.69C12.37 12.72 12.35 12.75 12.32 12.77C12.29 12.8 12.26 12.83 12.23 12.85C12.2 12.88 12.17 12.9 12.14 12.92C12.11 12.94 12.08 12.96 12.04 12.98C12.01 13 11.97 13.02 11.94 13.03C11.9 13.05 11.86 13.06 11.83 13.07C11.79 13.08 11.75 13.09 11.71 13.1C11.67 13.11 11.64 13.11 11.6 13.12C11.56 13.12 11.52 13.12 11.48 13.12C11.44 13.12 11.4 13.12 11.36 13.12C11.33 13.11 11.29 13.11 11.25 13.1C11.21 13.09 11.17 13.08 11.14 13.07C11.1 13.06 11.06 13.05 11.03 13.03C10.99 13.02 10.96 13 10.92 12.98C10.89 12.96 10.85 12.94 10.82 12.92C10.79 12.9 10.76 12.88 10.73 12.85C10.7 12.83 10.67 12.8 10.64 12.77C10.61 12.75 10.59 12.72 10.56 12.69C10.54 12.66 10.52 12.63 10.49 12.59C10.47 12.56 10.45 12.53 10.43 12.49C10.42 12.46 10.4 12.42 10.38 12.39C10.37 12.35 10.36 12.32 10.34 12.28C10.33 12.24 10.32 12.2 10.32 12.16C10.31 12.13 10.3 12.09 10.3 12.05C10.3 12.01 10.29 11.97 10.29 11.93Z" fill="#6C707E" fill-opacity="1.000000" fill-rule="nonzero"/>
		<path id="path" d="M12.74 2.12L3.82 2.12C3.75 2.12 3.69 2.12 3.63 2.13C3.57 2.14 3.51 2.14 3.44 2.16C3.38 2.17 3.32 2.18 3.26 2.2C3.2 2.22 3.14 2.24 3.09 2.27C3.03 2.29 2.97 2.32 2.92 2.35C2.86 2.38 2.81 2.41 2.75 2.44C2.7 2.48 2.65 2.51 2.6 2.55C2.56 2.59 2.51 2.64 2.47 2.68C2.42 2.72 2.38 2.77 2.34 2.82C2.3 2.87 2.26 2.92 2.23 2.97C2.19 3.02 2.16 3.08 2.13 3.13C2.1 3.19 2.07 3.24 2.05 3.3C2.03 3.36 2.01 3.42 1.99 3.48C1.97 3.54 1.95 3.6 1.94 3.66C1.93 3.72 1.92 3.78 1.91 3.85C1.91 3.91 1.9 3.97 1.9 4.03L1.9 12.96C1.9 13.02 1.91 13.08 1.91 13.14C1.92 13.21 1.93 13.27 1.94 13.33C1.95 13.39 1.97 13.45 1.99 13.51C2.01 13.57 2.03 13.63 2.05 13.69C2.07 13.75 2.1 13.8 2.13 13.86C2.16 13.91 2.19 13.97 2.23 14.02C2.26 14.07 2.3 14.12 2.34 14.17C2.38 14.22 2.42 14.27 2.47 14.31C2.51 14.35 2.56 14.4 2.6 14.44C2.65 14.48 2.7 14.51 2.75 14.55C2.81 14.58 2.86 14.61 2.92 14.64C2.97 14.67 3.03 14.7 3.09 14.72C3.14 14.75 3.2 14.77 3.26 14.79C3.32 14.81 3.38 14.82 3.44 14.83C3.51 14.85 3.57 14.85 3.63 14.86C3.69 14.87 3.75 14.87 3.82 14.87L7.64 14.87C7.68 14.87 7.73 14.87 7.77 14.86C7.81 14.85 7.85 14.84 7.89 14.82C7.93 14.81 7.96 14.79 8 14.76C8.03 14.74 8.06 14.71 8.09 14.68C8.12 14.65 8.15 14.62 8.17 14.59C8.2 14.55 8.22 14.52 8.23 14.48C8.25 14.44 8.26 14.4 8.27 14.36C8.28 14.32 8.28 14.27 8.28 14.23C8.28 14.19 8.28 14.15 8.27 14.11C8.26 14.07 8.25 14.03 8.23 13.99C8.22 13.95 8.2 13.91 8.17 13.88C8.15 13.84 8.12 13.81 8.09 13.78C8.06 13.75 8.03 13.73 8 13.7C7.96 13.68 7.93 13.66 7.89 13.64C7.85 13.63 7.81 13.62 7.77 13.61C7.73 13.6 7.68 13.6 7.64 13.6L3.82 13.6C3.78 13.6 3.73 13.59 3.69 13.58C3.65 13.57 3.61 13.56 3.57 13.55C3.53 13.53 3.5 13.51 3.46 13.49C3.43 13.46 3.4 13.44 3.37 13.41C3.34 13.38 3.31 13.35 3.29 13.31C3.26 13.28 3.24 13.24 3.23 13.2C3.21 13.16 3.2 13.12 3.19 13.08C3.18 13.04 3.18 13 3.18 12.96L3.18 4.03C3.18 3.99 3.18 3.95 3.19 3.91C3.2 3.87 3.21 3.83 3.23 3.79C3.24 3.75 3.26 3.71 3.29 3.68C3.31 3.64 3.34 3.61 3.37 3.58C3.4 3.55 3.43 3.53 3.46 3.5C3.5 3.48 3.53 3.46 3.57 3.44C3.61 3.43 3.65 3.42 3.69 3.41C3.73 3.4 3.78 3.39 3.82 3.39L12.74 3.39C12.78 3.39 12.83 3.4 12.87 3.41C12.91 3.42 12.95 3.43 12.99 3.44C13.03 3.46 13.06 3.48 13.1 3.5C13.13 3.53 13.16 3.55 13.19 3.58C13.22 3.61 13.25 3.64 13.27 3.68C13.3 3.71 13.32 3.75 13.33 3.79C13.35 3.83 13.36 3.87 13.37 3.91C13.38 3.95 13.38 3.99 13.38 4.03L13.38 7.86C13.38 7.9 13.38 7.94 13.39 7.98C13.4 8.02 13.41 8.06 13.43 8.1C13.44 8.14 13.46 8.18 13.49 8.21C13.51 8.25 13.54 8.28 13.57 8.31C13.6 8.34 13.63 8.36 13.66 8.39C13.7 8.41 13.73 8.43 13.77 8.45C13.81 8.46 13.85 8.47 13.89 8.48C13.93 8.49 13.98 8.5 14.02 8.5C14.06 8.5 14.1 8.49 14.14 8.48C14.18 8.47 14.22 8.46 14.26 8.45C14.3 8.43 14.34 8.41 14.37 8.39C14.41 8.36 14.44 8.34 14.47 8.31C14.5 8.28 14.52 8.25 14.55 8.21C14.57 8.18 14.59 8.14 14.61 8.1C14.62 8.06 14.63 8.02 14.64 7.98C14.65 7.94 14.66 7.9 14.66 7.86L14.66 4.03C14.66 3.97 14.65 3.91 14.65 3.85C14.64 3.78 14.63 3.72 14.62 3.66C14.61 3.6 14.59 3.54 14.57 3.48C14.55 3.42 14.53 3.36 14.51 3.3C14.49 3.24 14.46 3.19 14.43 3.13C14.4 3.08 14.37 3.02 14.33 2.97C14.3 2.92 14.26 2.87 14.22 2.82C14.18 2.77 14.14 2.72 14.09 2.68C14.05 2.64 14 2.59 13.96 2.55C13.91 2.51 13.86 2.48 13.81 2.44C13.75 2.41 13.7 2.38 13.64 2.35C13.59 2.32 13.53 2.29 13.47 2.27C13.42 2.24 13.36 2.22 13.3 2.2C13.24 2.18 13.18 2.17 13.12 2.16C13.05 2.14 12.99 2.14 12.93 2.13C12.87 2.12 12.81 2.12 12.74 2.12Z" fill="#6C707E" fill-opacity="1.000000" fill-rule="nonzero"/>
		<path id="path" d="M5.41 6.58L11.61 6.58C11.65 6.58 11.69 6.58 11.73 6.57C11.77 6.56 11.81 6.55 11.85 6.53C11.89 6.52 11.92 6.5 11.96 6.47C11.99 6.45 12.02 6.43 12.05 6.4C12.08 6.37 12.11 6.33 12.13 6.3C12.15 6.26 12.17 6.23 12.19 6.19C12.2 6.15 12.21 6.11 12.22 6.07C12.23 6.03 12.23 5.99 12.23 5.94C12.23 5.9 12.23 5.86 12.22 5.82C12.21 5.78 12.2 5.74 12.19 5.7C12.17 5.66 12.15 5.63 12.13 5.59C12.11 5.56 12.08 5.52 12.05 5.49C12.02 5.46 11.99 5.44 11.96 5.41C11.92 5.39 11.89 5.37 11.85 5.36C11.81 5.34 11.77 5.33 11.73 5.32C11.69 5.31 11.65 5.31 11.61 5.31L5.41 5.31C5.37 5.31 5.33 5.31 5.29 5.32C5.25 5.33 5.22 5.34 5.18 5.36C5.14 5.37 5.1 5.39 5.07 5.41C5.04 5.44 5.01 5.46 4.98 5.49C4.95 5.52 4.92 5.56 4.9 5.59C4.88 5.63 4.86 5.66 4.84 5.7C4.83 5.74 4.81 5.78 4.81 5.82C4.8 5.86 4.79 5.9 4.79 5.94C4.79 5.99 4.8 6.03 4.81 6.07C4.81 6.11 4.83 6.15 4.84 6.19C4.86 6.23 4.88 6.26 4.9 6.3C4.92 6.33 4.95 6.37 4.98 6.4C5.01 6.43 5.04 6.45 5.07 6.47C5.1 6.5 5.14 6.52 5.18 6.53C5.22 6.55 5.25 6.56 5.29 6.57C5.33 6.58 5.37 6.58 5.41 6.58ZM8.51 8.5C8.51 8.45 8.51 8.41 8.5 8.37C8.49 8.33 8.48 8.29 8.47 8.25C8.45 8.21 8.43 8.18 8.41 8.14C8.39 8.11 8.36 8.07 8.33 8.04C8.3 8.01 8.27 7.99 8.24 7.96C8.2 7.94 8.17 7.92 8.13 7.91C8.09 7.89 8.05 7.88 8.01 7.87C7.97 7.86 7.93 7.86 7.89 7.86L5.41 7.86C5.37 7.86 5.33 7.86 5.29 7.87C5.25 7.88 5.22 7.89 5.18 7.91C5.14 7.92 5.1 7.94 5.07 7.96C5.04 7.99 5.01 8.01 4.98 8.04C4.95 8.07 4.92 8.11 4.9 8.14C4.88 8.18 4.86 8.21 4.84 8.25C4.83 8.29 4.81 8.33 4.81 8.37C4.8 8.41 4.79 8.45 4.79 8.5C4.79 8.54 4.8 8.58 4.81 8.62C4.81 8.66 4.83 8.7 4.84 8.74C4.86 8.78 4.88 8.81 4.9 8.85C4.92 8.88 4.95 8.92 4.98 8.95C5.01 8.98 5.04 9 5.07 9.03C5.1 9.05 5.14 9.07 5.18 9.08C5.22 9.1 5.25 9.11 5.29 9.12C5.33 9.13 5.37 9.13 5.41 9.13L7.89 9.13C7.93 9.13 7.97 9.13 8.01 9.12C8.05 9.11 8.09 9.1 8.13 9.08C8.17 9.07 8.2 9.05 8.24 9.03C8.27 9 8.3 8.98 8.33 8.95C8.36 8.92 8.39 8.88 8.41 8.85C8.43 8.81 8.45 8.78 8.47 8.74C8.48 8.7 8.49 8.66 8.5 8.62C8.51 8.58 8.51 8.54 8.51 8.5ZM5.41 10.41C5.37 10.41 5.33 10.41 5.29 10.42C5.25 10.43 5.22 10.44 5.18 10.46C5.14 10.47 5.1 10.49 5.07 10.52C5.04 10.54 5.01 10.56 4.98 10.59C4.95 10.62 4.92 10.66 4.9 10.69C4.88 10.73 4.86 10.76 4.84 10.8C4.83 10.84 4.82 10.88 4.81 10.92C4.8 10.96 4.8 11 4.8 11.05C4.8 11.09 4.8 11.13 4.81 11.17C4.82 11.21 4.83 11.25 4.84 11.29C4.86 11.33 4.88 11.36 4.9 11.4C4.92 11.43 4.95 11.47 4.98 11.5C5.01 11.53 5.04 11.55 5.07 11.57C5.1 11.6 5.14 11.62 5.18 11.63C5.22 11.65 5.25 11.66 5.29 11.67C5.33 11.68 5.37 11.68 5.41 11.68L6.65 11.68C6.7 11.68 6.74 11.68 6.78 11.67C6.82 11.66 6.85 11.65 6.89 11.63C6.93 11.62 6.96 11.6 7 11.57C7.03 11.55 7.06 11.53 7.09 11.5C7.12 11.47 7.15 11.43 7.17 11.4C7.19 11.36 7.21 11.33 7.23 11.29C7.24 11.25 7.25 11.21 7.26 11.17C7.27 11.13 7.27 11.09 7.27 11.05C7.27 11 7.27 10.96 7.26 10.92C7.25 10.88 7.24 10.84 7.23 10.8C7.21 10.76 7.19 10.73 7.17 10.69C7.15 10.66 7.12 10.62 7.09 10.59C7.06 10.56 7.03 10.54 7 10.52C6.96 10.49 6.93 10.47 6.89 10.46C6.85 10.44 6.82 10.43 6.78 10.42C6.74 10.41 6.7 10.41 6.65 10.41L5.41 10.41Z" fill="#6C707E" fill-opacity="1.000000" fill-rule="nonzero"/>
	</g>
</svg>
