<svg width="16.000000" height="16.000000" viewBox="0 0 16 16" fill="none" xmlns="http://www.w3.org/2000/svg">
	<desc>
			Created with Pixso.
	</desc>
	<defs>
		<clipPath id="clip176_6">
			<rect id="scrollDown" width="16.000000" height="16.000000" fill="white" fill-opacity="0"/>
		</clipPath>
	</defs>
	<g clip-path="url(#clip176_6)">
		<path id="path" d="M1.52 4.17L1.5 4.19C1.1 4.19 0.8 3.89 0.8 3.5C0.8 3.1 1.1 2.8 1.5 2.8L1.52 2.82L1.52 4.17ZM5.47 2.82L5.5 2.8C5.89 2.8 6.19 3.1 6.19 3.5C6.19 3.89 5.89 4.19 5.5 4.19L5.47 4.17L5.47 2.82ZM1.52 8.67L1.5 8.69C1.1 8.69 0.8 8.39 0.8 8C0.8 7.6 1.1 7.3 1.5 7.3L1.52 7.32L1.52 8.67ZM5.47 7.32L5.5 7.3C5.89 7.3 6.19 7.6 6.19 8C6.19 8.39 5.89 8.69 5.5 8.69L5.47 8.67L5.47 7.32ZM1.52 13.17L1.5 13.2C1.1 13.2 0.8 12.89 0.8 12.5C0.8 12.1 1.1 11.8 1.5 11.8L1.52 11.82L1.52 13.17ZM14.48 11.82L14.5 11.8C14.89 11.8 15.2 12.1 15.2 12.5C15.2 12.89 14.89 13.2 14.5 13.2L14.48 13.17L14.48 11.82Z" fill="#000000" fill-opacity="0" fill-rule="nonzero"/>
		<path id="path" d="M1.5 3.5L5.5 3.5M1.5 8L5.5 8M1.5 12.5L14.5 12.5" stroke="#6C707E" stroke-opacity="1.000000" stroke-width="1.400000" stroke-linejoin="round" stroke-linecap="round"/>
		<path id="path" d="M11.5 3C11.77 3 12 3.22 12 3.5L12 9.29L14.14 7.14C14.34 6.95 14.65 6.95 14.85 7.14C15.04 7.34 15.04 7.65 14.85 7.85L11.85 10.85C11.65 11.04 11.34 11.04 11.14 10.85L8.14 7.85C7.95 7.65 7.95 7.34 8.14 7.14C8.34 6.95 8.65 6.95 8.85 7.14L11 9.29L11 3.5C11 3.22 11.22 3 11.5 3Z" fill="#6C707E" fill-opacity="1.000000" fill-rule="evenodd"/>
		<path id="path" d="M12 3.5L12 9.29L14.14 7.14C14.34 6.95 14.65 6.95 14.85 7.14C15.04 7.34 15.04 7.65 14.85 7.85L11.85 10.85C11.65 11.04 11.34 11.04 11.14 10.85L8.14 7.85C7.95 7.65 7.95 7.34 8.14 7.14C8.34 6.95 8.65 6.95 8.85 7.14L11 9.29L11 3.5C11 3.22 11.22 3 11.5 3C11.77 3 12 3.22 12 3.5Z" stroke="#6C707E" stroke-opacity="1.000000" stroke-width="0.400000"/>
	</g>
</svg>
