<svg width="19.000000" height="19.000000" viewBox="0 0 19 19" fill="none" xmlns="http://www.w3.org/2000/svg">
	<desc>
			Created with Pixso.
	</desc>
	<defs>
		<clipPath id="clip155_37">
			<rect id="search.svg" width="19.000000" height="19.000000" fill="white" fill-opacity="0"/>
		</clipPath>
	</defs>
	<g clip-path="url(#clip155_37)">
		<path id="path" d="M13.05 13.09L16.8 16.83L16.02 17.6L12.26 13.86C11.83 14.2 11.38 14.49 10.89 14.72C10.39 14.95 9.87 15.11 9.34 15.21C8.8 15.3 8.26 15.34 7.72 15.29C7.17 15.26 6.64 15.14 6.12 14.97C5.6 14.8 5.12 14.56 4.67 14.26C4.21 13.96 3.8 13.6 3.43 13.2C3.08 12.8 2.77 12.35 2.51 11.87C2.26 11.39 2.07 10.89 1.96 10.36C1.83 9.83 1.79 9.29 1.8 8.75C1.82 8.21 1.9 7.68 2.06 7.16C2.21 6.64 2.43 6.15 2.71 5.68C3 5.22 3.33 4.8 3.71 4.42C4.1 4.03 4.54 3.71 5.02 3.44C5.49 3.17 5.98 2.96 6.52 2.82C7.03 2.68 7.58 2.61 8.12 2.6C8.66 2.6 9.2 2.65 9.73 2.79C10.27 2.92 10.76 3.11 11.25 3.36C11.72 3.63 12.17 3.95 12.56 4.32C12.96 4.68 13.3 5.1 13.6 5.55C13.89 6.01 14.12 6.51 14.28 7.02C14.45 7.54 14.55 8.07 14.58 8.6C14.6 9.14 14.57 9.68 14.45 10.22C14.35 10.75 14.18 11.25 13.93 11.75C13.69 12.23 13.4 12.69 13.05 13.09ZM13.5 8.95C13.5 8.25 13.36 7.58 13.09 6.94C12.81 6.29 12.43 5.72 11.94 5.22C11.44 4.72 10.86 4.35 10.22 4.09C9.57 3.82 8.89 3.68 8.19 3.68C7.48 3.68 6.82 3.82 6.17 4.09C5.51 4.35 4.95 4.72 4.45 5.22C3.95 5.72 3.56 6.29 3.3 6.94C3.03 7.58 2.89 8.25 2.89 8.95C2.89 9.65 3.03 10.32 3.3 10.97C3.56 11.61 3.95 12.18 4.45 12.68C4.95 13.17 5.51 13.55 6.17 13.81C6.82 14.09 7.48 14.21 8.19 14.21C8.89 14.21 9.57 14.09 10.22 13.81C10.86 13.55 11.44 13.17 11.94 12.68C12.43 12.18 12.81 11.61 13.09 10.97C13.36 10.32 13.48 9.65 13.5 8.95Z" fill="#AFB1B3" fill-opacity="1.000000" fill-rule="evenodd"/>
		<path id="path" d="M16.8 16.83L16.02 17.6L12.26 13.86C11.83 14.2 11.38 14.49 10.89 14.72C10.39 14.95 9.87 15.11 9.34 15.21C8.8 15.3 8.26 15.34 7.72 15.29C7.17 15.26 6.64 15.14 6.12 14.97C5.6 14.8 5.12 14.56 4.67 14.26C4.21 13.96 3.8 13.6 3.43 13.2C3.08 12.8 2.77 12.35 2.51 11.87C2.26 11.39 2.07 10.89 1.96 10.36C1.83 9.83 1.79 9.29 1.8 8.75C1.82 8.21 1.9 7.68 2.06 7.16C2.21 6.64 2.43 6.15 2.71 5.68C3 5.22 3.33 4.8 3.71 4.42C4.1 4.03 4.54 3.71 5.02 3.44C5.49 3.17 5.98 2.96 6.52 2.82C7.03 2.68 7.58 2.61 8.12 2.6C8.66 2.6 9.2 2.65 9.73 2.79C10.27 2.92 10.76 3.11 11.25 3.36C11.72 3.63 12.17 3.95 12.56 4.32C12.96 4.68 13.3 5.1 13.6 5.55C13.89 6.01 14.12 6.51 14.28 7.02C14.45 7.54 14.55 8.07 14.58 8.6C14.6 9.14 14.57 9.68 14.45 10.22C14.35 10.75 14.18 11.25 13.93 11.75C13.69 12.23 13.4 12.69 13.05 13.09L16.8 16.83ZM13.09 6.94C12.81 6.29 12.43 5.72 11.94 5.22C11.44 4.72 10.86 4.35 10.22 4.09C9.57 3.82 8.89 3.68 8.19 3.68C7.48 3.68 6.82 3.82 6.17 4.09C5.51 4.35 4.95 4.72 4.45 5.22C3.95 5.72 3.56 6.29 3.3 6.94C3.03 7.58 2.89 8.25 2.89 8.95C2.89 9.65 3.03 10.32 3.3 10.97C3.56 11.61 3.95 12.18 4.45 12.68C4.95 13.17 5.51 13.55 6.17 13.81C6.82 14.09 7.48 14.21 8.19 14.21C8.89 14.21 9.57 14.09 10.22 13.81C10.86 13.55 11.44 13.17 11.94 12.68C12.43 12.18 12.81 11.61 13.09 10.97C13.36 10.32 13.48 9.65 13.5 8.95C13.5 8.25 13.36 7.58 13.09 6.94Z" fill="#000000" fill-opacity="0" fill-rule="nonzero"/>
		<path id="path" d="M16.02 17.6L12.26 13.86C11.83 14.2 11.38 14.49 10.89 14.72C10.39 14.95 9.87 15.11 9.34 15.21C8.8 15.3 8.26 15.34 7.72 15.29C7.17 15.26 6.64 15.14 6.12 14.97C5.6 14.8 5.12 14.56 4.67 14.26C4.21 13.96 3.8 13.6 3.43 13.2C3.08 12.8 2.77 12.35 2.51 11.87C2.26 11.39 2.07 10.89 1.96 10.36C1.83 9.83 1.79 9.29 1.8 8.75C1.82 8.21 1.9 7.68 2.06 7.16C2.21 6.64 2.43 6.15 2.71 5.68C3 5.22 3.33 4.8 3.71 4.42C4.1 4.03 4.54 3.71 5.02 3.44C5.49 3.17 5.98 2.96 6.52 2.82C7.03 2.68 7.58 2.61 8.12 2.6C8.66 2.6 9.2 2.65 9.73 2.79C10.27 2.92 10.76 3.11 11.25 3.36C11.72 3.63 12.17 3.95 12.56 4.32C12.96 4.68 13.3 5.1 13.6 5.55C13.89 6.01 14.12 6.51 14.28 7.02C14.45 7.54 14.55 8.07 14.58 8.6C14.6 9.14 14.57 9.68 14.45 10.22C14.35 10.75 14.18 11.25 13.93 11.75C13.69 12.23 13.4 12.69 13.05 13.09L16.8 16.83L16.02 17.6ZM11.94 5.22C11.44 4.72 10.86 4.35 10.22 4.09C9.57 3.82 8.89 3.68 8.19 3.68C7.48 3.68 6.82 3.82 6.17 4.09C5.51 4.35 4.95 4.72 4.45 5.22C3.95 5.72 3.56 6.29 3.3 6.94C3.03 7.58 2.89 8.25 2.89 8.95C2.89 9.65 3.03 10.32 3.3 10.97C3.56 11.61 3.95 12.18 4.45 12.68C4.95 13.17 5.51 13.55 6.17 13.81C6.82 14.09 7.48 14.21 8.19 14.21C8.89 14.21 9.57 14.09 10.22 13.81C10.86 13.55 11.44 13.17 11.94 12.68C12.43 12.18 12.81 11.61 13.09 10.97C13.36 10.32 13.48 9.65 13.5 8.95C13.5 8.25 13.36 7.58 13.09 6.94C12.81 6.29 12.43 5.72 11.94 5.22Z" fill="#000000" fill-opacity="0" fill-rule="nonzero"/>
		<path id="path" d="M12.26 13.86C11.83 14.2 11.38 14.49 10.89 14.72C10.39 14.95 9.87 15.11 9.34 15.21C8.8 15.3 8.26 15.34 7.72 15.29C7.17 15.26 6.64 15.14 6.12 14.97C5.6 14.8 5.12 14.56 4.67 14.26C4.21 13.96 3.8 13.6 3.43 13.2C3.08 12.8 2.77 12.35 2.51 11.87C2.26 11.39 2.07 10.89 1.96 10.36C1.83 9.83 1.79 9.29 1.8 8.75C1.82 8.21 1.9 7.68 2.06 7.16C2.21 6.64 2.43 6.15 2.71 5.68C3 5.22 3.33 4.8 3.71 4.42C4.1 4.03 4.54 3.71 5.02 3.44C5.49 3.17 5.98 2.96 6.52 2.82C7.03 2.68 7.58 2.61 8.12 2.6C8.66 2.6 9.2 2.65 9.73 2.79C10.27 2.92 10.76 3.11 11.25 3.36C11.72 3.63 12.17 3.95 12.56 4.32C12.96 4.68 13.3 5.1 13.6 5.55C13.89 6.01 14.12 6.51 14.28 7.02C14.45 7.54 14.55 8.07 14.58 8.6C14.6 9.14 14.57 9.68 14.45 10.22C14.35 10.75 14.18 11.25 13.93 11.75C13.69 12.23 13.4 12.69 13.05 13.09L16.8 16.83L16.02 17.6L12.26 13.86ZM10.22 4.09C9.57 3.82 8.89 3.68 8.19 3.68C7.48 3.68 6.82 3.82 6.17 4.09C5.51 4.35 4.95 4.72 4.45 5.22C3.95 5.72 3.56 6.29 3.3 6.94C3.03 7.58 2.89 8.25 2.89 8.95C2.89 9.65 3.03 10.32 3.3 10.97C3.56 11.61 3.95 12.18 4.45 12.68C4.95 13.17 5.51 13.55 6.17 13.81C6.82 14.09 7.48 14.21 8.19 14.21C8.89 14.21 9.57 14.09 10.22 13.81C10.86 13.55 11.44 13.17 11.94 12.68C12.43 12.18 12.81 11.61 13.09 10.97C13.36 10.32 13.48 9.65 13.5 8.95C13.5 8.25 13.36 7.58 13.09 6.94C12.81 6.29 12.43 5.72 11.94 5.22C11.44 4.72 10.86 4.35 10.22 4.09Z" stroke="#AFB1B3" stroke-opacity="1.000000" stroke-width="0.600000"/>
	</g>
</svg>
