<svg width="19.000000" height="19.000000" viewBox="0 0 19 19" fill="none" xmlns="http://www.w3.org/2000/svg">
	<desc>
			Created with Pixso.
	</desc>
	<defs>
		<clipPath id="clip114_52">
			<rect id="search" width="19.000000" height="19.000000" fill="white" fill-opacity="0"/>
		</clipPath>
	</defs>
	<g clip-path="url(#clip114_52)">
		<path id="path" d="M12.25 13.09L16 16.83L15.22 17.6L11.46 13.86C11.03 14.2 10.58 14.49 10.09 14.72C9.59 14.95 9.07 15.11 8.54 15.21C8 15.3 7.46 15.34 6.92 15.29C6.37 15.26 5.84 15.14 5.32 14.97C4.8 14.8 4.32 14.56 3.87 14.26C3.41 13.96 3 13.6 2.63 13.2C2.28 12.8 1.97 12.35 1.71 11.87C1.46 11.39 1.27 10.89 1.16 10.36C1.03 9.83 0.99 9.29 1 8.75C1.02 8.21 1.1 7.68 1.26 7.16C1.41 6.64 1.63 6.15 1.91 5.68C2.2 5.22 2.53 4.8 2.91 4.42C3.3 4.03 3.74 3.71 4.22 3.44C4.69 3.17 5.18 2.96 5.72 2.82C6.23 2.68 6.78 2.61 7.32 2.6C7.86 2.6 8.4 2.65 8.93 2.79C9.46 2.92 9.96 3.11 10.45 3.36C10.92 3.63 11.37 3.95 11.76 4.32C12.16 4.68 12.5 5.1 12.8 5.55C13.09 6.01 13.32 6.51 13.48 7.02C13.65 7.54 13.75 8.07 13.78 8.6C13.8 9.14 13.77 9.68 13.65 10.22C13.55 10.75 13.38 11.25 13.13 11.75C12.89 12.23 12.6 12.69 12.25 13.09ZM12.7 8.95C12.7 8.25 12.56 7.58 12.29 6.94C12.01 6.29 11.63 5.73 11.14 5.23C10.64 4.73 10.06 4.35 9.42 4.09C8.77 3.82 8.09 3.68 7.39 3.68C6.68 3.68 6.02 3.82 5.37 4.09C4.71 4.35 4.15 4.73 3.65 5.23C3.15 5.73 2.76 6.29 2.5 6.94C2.23 7.58 2.09 8.25 2.09 8.95C2.09 9.65 2.23 10.32 2.5 10.97C2.76 11.61 3.15 12.18 3.65 12.68C4.15 13.17 4.71 13.55 5.37 13.81C6.02 14.09 6.68 14.21 7.39 14.21C8.09 14.21 8.77 14.09 9.42 13.81C10.06 13.55 10.64 13.17 11.14 12.68C11.63 12.18 12.01 11.61 12.29 10.97C12.56 10.32 12.68 9.65 12.7 8.95Z" fill="#6C707E" fill-opacity="1.000000" fill-rule="evenodd"/>
		<path id="path" d="M16 16.83L15.22 17.6L11.46 13.86C11.03 14.2 10.58 14.49 10.09 14.72C9.59 14.95 9.07 15.11 8.54 15.21C8 15.3 7.46 15.34 6.92 15.29C6.37 15.26 5.84 15.14 5.32 14.97C4.8 14.8 4.32 14.56 3.87 14.26C3.41 13.96 3 13.6 2.63 13.2C2.28 12.8 1.97 12.35 1.71 11.87C1.46 11.39 1.27 10.89 1.16 10.36C1.03 9.83 0.99 9.29 1 8.75C1.02 8.21 1.1 7.68 1.26 7.16C1.41 6.64 1.63 6.15 1.91 5.68C2.2 5.22 2.53 4.8 2.91 4.42C3.3 4.03 3.74 3.71 4.22 3.44C4.69 3.17 5.18 2.96 5.72 2.82C6.23 2.68 6.78 2.61 7.32 2.6C7.86 2.6 8.4 2.65 8.93 2.79C9.46 2.92 9.96 3.11 10.45 3.36C10.92 3.63 11.37 3.95 11.76 4.32C12.16 4.68 12.5 5.1 12.8 5.55C13.09 6.01 13.32 6.51 13.48 7.02C13.65 7.54 13.75 8.07 13.78 8.6C13.8 9.14 13.77 9.68 13.65 10.22C13.55 10.75 13.38 11.25 13.13 11.75C12.89 12.23 12.6 12.69 12.25 13.09L16 16.83ZM12.29 6.94C12.01 6.29 11.63 5.73 11.14 5.23C10.64 4.73 10.06 4.35 9.42 4.09C8.77 3.82 8.09 3.68 7.39 3.68C6.68 3.68 6.02 3.82 5.37 4.09C4.71 4.35 4.15 4.73 3.65 5.23C3.15 5.73 2.76 6.29 2.5 6.94C2.23 7.58 2.09 8.25 2.09 8.95C2.09 9.65 2.23 10.32 2.5 10.97C2.76 11.61 3.15 12.18 3.65 12.68C4.15 13.17 4.71 13.55 5.37 13.81C6.02 14.09 6.68 14.21 7.39 14.21C8.09 14.21 8.77 14.09 9.42 13.81C10.06 13.55 10.64 13.17 11.14 12.68C11.63 12.18 12.01 11.61 12.29 10.97C12.56 10.32 12.68 9.65 12.7 8.95C12.7 8.25 12.56 7.58 12.29 6.94Z" fill="#000000" fill-opacity="0" fill-rule="nonzero"/>
		<path id="path" d="M15.22 17.6L11.46 13.86C11.03 14.2 10.58 14.49 10.09 14.72C9.59 14.95 9.07 15.11 8.54 15.21C8 15.3 7.46 15.34 6.92 15.29C6.37 15.26 5.84 15.14 5.32 14.97C4.8 14.8 4.32 14.56 3.87 14.26C3.41 13.96 3 13.6 2.63 13.2C2.28 12.8 1.97 12.35 1.71 11.87C1.46 11.39 1.27 10.89 1.16 10.36C1.03 9.83 0.99 9.29 1 8.75C1.02 8.21 1.1 7.68 1.26 7.16C1.41 6.64 1.63 6.15 1.91 5.68C2.2 5.22 2.53 4.8 2.91 4.42C3.3 4.03 3.74 3.71 4.22 3.44C4.69 3.17 5.18 2.96 5.72 2.82C6.23 2.68 6.78 2.61 7.32 2.6C7.86 2.6 8.4 2.65 8.93 2.79C9.46 2.92 9.96 3.11 10.45 3.36C10.92 3.63 11.37 3.95 11.76 4.32C12.16 4.68 12.5 5.1 12.8 5.55C13.09 6.01 13.32 6.51 13.48 7.02C13.65 7.54 13.75 8.07 13.78 8.6C13.8 9.14 13.77 9.68 13.65 10.22C13.55 10.75 13.38 11.25 13.13 11.75C12.89 12.23 12.6 12.69 12.25 13.09L16 16.83L15.22 17.6ZM11.14 5.23C10.64 4.73 10.06 4.35 9.42 4.09C8.77 3.82 8.09 3.68 7.39 3.68C6.68 3.68 6.02 3.82 5.37 4.09C4.71 4.35 4.15 4.73 3.65 5.23C3.15 5.73 2.76 6.29 2.5 6.94C2.23 7.58 2.09 8.25 2.09 8.95C2.09 9.65 2.23 10.32 2.5 10.97C2.76 11.61 3.15 12.18 3.65 12.68C4.15 13.17 4.71 13.55 5.37 13.81C6.02 14.09 6.68 14.21 7.39 14.21C8.09 14.21 8.77 14.09 9.42 13.81C10.06 13.55 10.64 13.17 11.14 12.68C11.63 12.18 12.01 11.61 12.29 10.97C12.56 10.32 12.68 9.65 12.7 8.95C12.7 8.25 12.56 7.58 12.29 6.94C12.01 6.29 11.63 5.73 11.14 5.23Z" stroke="#6C707E" stroke-opacity="1.000000" stroke-width="0.300000"/>
	</g>
</svg>
