<svg width="19.000000" height="19.000000" viewBox="0 0 19 19" fill="none" xmlns="http://www.w3.org/2000/svg">
	<desc>
			Created with Pixso.
	</desc>
	<defs>
		<clipPath id="clip114_52">
			<rect id="search" width="19.000000" height="19.000000" fill="white" fill-opacity="0"/>
		</clipPath>
	</defs>
	<g clip-path="url(#clip114_52)">
		<path id="path" d="M13.25 13.09L17 16.83L16.22 17.6L12.46 13.86C12.03 14.2 11.58 14.49 11.09 14.72C10.59 14.95 10.07 15.11 9.54 15.21C9 15.3 8.46 15.34 7.92 15.29C7.37 15.26 6.84 15.14 6.32 14.97C5.8 14.8 5.32 14.56 4.87 14.26C4.41 13.96 4 13.6 3.63 13.2C3.28 12.8 2.97 12.35 2.71 11.87C2.46 11.39 2.27 10.89 2.16 10.36C2.03 9.83 1.99 9.29 2 8.75C2.02 8.21 2.1 7.68 2.26 7.16C2.41 6.64 2.63 6.15 2.91 5.68C3.2 5.22 3.53 4.8 3.91 4.42C4.3 4.03 4.74 3.71 5.22 3.44C5.69 3.17 6.18 2.96 6.72 2.82C7.23 2.68 7.78 2.61 8.32 2.6C8.86 2.6 9.4 2.65 9.93 2.79C10.47 2.92 10.96 3.11 11.45 3.36C11.92 3.63 12.37 3.95 12.76 4.32C13.16 4.68 13.5 5.1 13.8 5.55C14.09 6.01 14.32 6.51 14.48 7.02C14.65 7.54 14.75 8.07 14.78 8.6C14.8 9.14 14.77 9.68 14.65 10.22C14.55 10.75 14.38 11.25 14.13 11.75C13.89 12.23 13.6 12.69 13.25 13.09ZM13.7 8.95C13.7 8.25 13.56 7.58 13.29 6.94C13.01 6.29 12.63 5.73 12.14 5.23C11.64 4.73 11.06 4.35 10.42 4.09C9.77 3.82 9.09 3.68 8.39 3.68C7.68 3.68 7.02 3.82 6.37 4.09C5.71 4.35 5.15 4.73 4.65 5.23C4.15 5.73 3.76 6.29 3.5 6.94C3.23 7.58 3.09 8.25 3.09 8.95C3.09 9.65 3.23 10.32 3.5 10.97C3.76 11.61 4.15 12.18 4.65 12.68C5.15 13.17 5.71 13.55 6.37 13.81C7.02 14.09 7.68 14.21 8.39 14.21C9.09 14.21 9.77 14.09 10.42 13.81C11.06 13.55 11.64 13.17 12.14 12.68C12.63 12.18 13.01 11.61 13.29 10.97C13.56 10.32 13.68 9.65 13.7 8.95Z" fill="#CED0D6" fill-opacity="1.000000" fill-rule="evenodd"/>
		<path id="path" d="M17 16.83L16.22 17.6L12.46 13.86C12.03 14.2 11.58 14.49 11.09 14.72C10.59 14.95 10.07 15.11 9.54 15.21C9 15.3 8.46 15.34 7.92 15.29C7.37 15.26 6.84 15.14 6.32 14.97C5.8 14.8 5.32 14.56 4.87 14.26C4.41 13.96 4 13.6 3.63 13.2C3.28 12.8 2.97 12.35 2.71 11.87C2.46 11.39 2.27 10.89 2.16 10.36C2.03 9.83 1.99 9.29 2 8.75C2.02 8.21 2.1 7.68 2.26 7.16C2.41 6.64 2.63 6.15 2.91 5.68C3.2 5.22 3.53 4.8 3.91 4.42C4.3 4.03 4.74 3.71 5.22 3.44C5.69 3.17 6.18 2.96 6.72 2.82C7.23 2.68 7.78 2.61 8.32 2.6C8.86 2.6 9.4 2.65 9.93 2.79C10.47 2.92 10.96 3.11 11.45 3.36C11.92 3.63 12.37 3.95 12.76 4.32C13.16 4.68 13.5 5.1 13.8 5.55C14.09 6.01 14.32 6.51 14.48 7.02C14.65 7.54 14.75 8.07 14.78 8.6C14.8 9.14 14.77 9.68 14.65 10.22C14.55 10.75 14.38 11.25 14.13 11.75C13.89 12.23 13.6 12.69 13.25 13.09L17 16.83ZM13.29 6.94C13.01 6.29 12.63 5.73 12.14 5.23C11.64 4.73 11.06 4.35 10.42 4.09C9.77 3.82 9.09 3.68 8.39 3.68C7.68 3.68 7.02 3.82 6.37 4.09C5.71 4.35 5.15 4.73 4.65 5.23C4.15 5.73 3.76 6.29 3.5 6.94C3.23 7.58 3.09 8.25 3.09 8.95C3.09 9.65 3.23 10.32 3.5 10.97C3.76 11.61 4.15 12.18 4.65 12.68C5.15 13.17 5.71 13.55 6.37 13.81C7.02 14.09 7.68 14.21 8.39 14.21C9.09 14.21 9.77 14.09 10.42 13.81C11.06 13.55 11.64 13.17 12.14 12.68C12.63 12.18 13.01 11.61 13.29 10.97C13.56 10.32 13.68 9.65 13.7 8.95C13.7 8.25 13.56 7.58 13.29 6.94Z" fill="#000000" fill-opacity="0" fill-rule="nonzero"/>
		<path id="path" d="M16.22 17.6L12.46 13.86C12.03 14.2 11.58 14.49 11.09 14.72C10.59 14.95 10.07 15.11 9.54 15.21C9 15.3 8.46 15.34 7.92 15.29C7.37 15.26 6.84 15.14 6.32 14.97C5.8 14.8 5.32 14.56 4.87 14.26C4.41 13.96 4 13.6 3.63 13.2C3.28 12.8 2.97 12.35 2.71 11.87C2.46 11.39 2.27 10.89 2.16 10.36C2.03 9.83 1.99 9.29 2 8.75C2.02 8.21 2.1 7.68 2.26 7.16C2.41 6.64 2.63 6.15 2.91 5.68C3.2 5.22 3.53 4.8 3.91 4.42C4.3 4.03 4.74 3.71 5.22 3.44C5.69 3.17 6.18 2.96 6.72 2.82C7.23 2.68 7.78 2.61 8.32 2.6C8.86 2.6 9.4 2.65 9.93 2.79C10.47 2.92 10.96 3.11 11.45 3.36C11.92 3.63 12.37 3.95 12.76 4.32C13.16 4.68 13.5 5.1 13.8 5.55C14.09 6.01 14.32 6.51 14.48 7.02C14.65 7.54 14.75 8.07 14.78 8.6C14.8 9.14 14.77 9.68 14.65 10.22C14.55 10.75 14.38 11.25 14.13 11.75C13.89 12.23 13.6 12.69 13.25 13.09L17 16.83L16.22 17.6ZM12.14 5.23C11.64 4.73 11.06 4.35 10.42 4.09C9.77 3.82 9.09 3.68 8.39 3.68C7.68 3.68 7.02 3.82 6.37 4.09C5.71 4.35 5.15 4.73 4.65 5.23C4.15 5.73 3.76 6.29 3.5 6.94C3.23 7.58 3.09 8.25 3.09 8.95C3.09 9.65 3.23 10.32 3.5 10.97C3.76 11.61 4.15 12.18 4.65 12.68C5.15 13.17 5.71 13.55 6.37 13.81C7.02 14.09 7.68 14.21 8.39 14.21C9.09 14.21 9.77 14.09 10.42 13.81C11.06 13.55 11.64 13.17 12.14 12.68C12.63 12.18 13.01 11.61 13.29 10.97C13.56 10.32 13.68 9.65 13.7 8.95C13.7 8.25 13.56 7.58 13.29 6.94C13.01 6.29 12.63 5.73 12.14 5.23Z" stroke="#CED0D6" stroke-opacity="1.000000" stroke-width="0.400000"/>
	</g>
</svg>
