<svg width="20.000000" height="20.000000" viewBox="0 0 19 19" fill="none" xmlns="http://www.w3.org/2000/svg" xmlns:xlink="http://www.w3.org/1999/xlink">
	<desc>
			Created with Pixso.
	</desc>
	<defs>
		<clipPath id="clip100_1">
			<rect id="search" width="19.000000" height="19.000000" fill="white" fill-opacity="0"/>
		</clipPath>
	</defs>
	<g clip-path="url(#clip100_1)">
		<path id="path" d="M12.91 12.31L16.16 15.57L15.49 16.24L12.23 12.98C11.86 13.28 11.47 13.53 11.04 13.73C10.61 13.93 10.16 14.07 9.7 14.16C9.23 14.24 8.76 14.27 8.29 14.23C7.82 14.2 7.36 14.1 6.91 13.95C6.46 13.8 6.04 13.59 5.65 13.33C5.25 13.07 4.9 12.76 4.58 12.41C4.27 12.06 4 11.67 3.78 11.25C3.56 10.83 3.4 10.39 3.3 9.93C3.19 9.47 3.15 9 3.16 8.53C3.18 8.06 3.25 7.59 3.39 7.14C3.52 6.69 3.71 6.26 3.95 5.85C4.2 5.45 4.49 5.08 4.82 4.75C5.16 4.41 5.54 4.13 5.95 3.9C6.36 3.66 6.79 3.48 7.25 3.36C7.7 3.23 8.17 3.17 8.64 3.16C9.11 3.16 9.58 3.21 10.04 3.33C10.5 3.44 10.93 3.61 11.35 3.83C11.76 4.06 12.15 4.34 12.49 4.66C12.84 4.98 13.13 5.34 13.39 5.74C13.64 6.14 13.84 6.57 13.98 7.02C14.13 7.47 14.21 7.93 14.24 8.4C14.26 8.87 14.23 9.34 14.13 9.81C14.04 10.27 13.89 10.71 13.68 11.14C13.47 11.56 13.22 11.96 12.91 12.31ZM13.3 8.7C13.3 8.09 13.18 7.51 12.95 6.95C12.71 6.38 12.38 5.89 11.95 5.46C11.52 5.02 11.02 4.69 10.46 4.46C9.9 4.23 9.31 4.11 8.7 4.11C8.09 4.11 7.51 4.23 6.95 4.46C6.38 4.69 5.89 5.02 5.46 5.46C5.03 5.89 4.69 6.38 4.46 6.95C4.23 7.51 4.11 8.09 4.11 8.7C4.11 9.31 4.23 9.9 4.46 10.46C4.69 11.02 5.03 11.52 5.46 11.95C5.89 12.38 6.38 12.71 6.95 12.94C7.51 13.18 8.09 13.29 8.7 13.29C9.31 13.29 9.9 13.18 10.46 12.94C11.02 12.71 11.52 12.38 11.95 11.95C12.38 11.52 12.71 11.02 12.95 10.46C13.18 9.9 13.29 9.31 13.3 8.7Z" fill="#CED0D6" fill-opacity="1.000000" fill-rule="evenodd"/>
		<path id="path" d="M16.16 15.57L15.49 16.24L12.23 12.98C11.86 13.28 11.47 13.53 11.04 13.73C10.61 13.93 10.16 14.07 9.7 14.16C9.23 14.24 8.76 14.27 8.29 14.23C7.82 14.2 7.36 14.1 6.91 13.95C6.46 13.8 6.04 13.59 5.65 13.33C5.25 13.07 4.9 12.76 4.58 12.41C4.27 12.06 4 11.67 3.78 11.25C3.56 10.83 3.4 10.39 3.3 9.93C3.19 9.47 3.15 9 3.16 8.53C3.18 8.06 3.25 7.59 3.39 7.14C3.52 6.69 3.71 6.26 3.95 5.85C4.2 5.45 4.49 5.08 4.82 4.75C5.16 4.41 5.54 4.13 5.95 3.9C6.36 3.66 6.79 3.48 7.25 3.36C7.7 3.23 8.17 3.17 8.64 3.16C9.11 3.16 9.58 3.21 10.04 3.33C10.5 3.44 10.93 3.61 11.35 3.83C11.76 4.06 12.15 4.34 12.49 4.66C12.84 4.98 13.13 5.34 13.39 5.74C13.64 6.14 13.84 6.57 13.98 7.02C14.13 7.47 14.21 7.93 14.24 8.4C14.26 8.87 14.23 9.34 14.13 9.81C14.04 10.27 13.89 10.71 13.68 11.14C13.47 11.56 13.22 11.96 12.91 12.31L16.16 15.57ZM12.95 6.95C12.71 6.38 12.38 5.89 11.95 5.46C11.52 5.02 11.02 4.69 10.46 4.46C9.9 4.23 9.31 4.11 8.7 4.11C8.09 4.11 7.51 4.23 6.95 4.46C6.38 4.69 5.89 5.02 5.46 5.46C5.03 5.89 4.69 6.38 4.46 6.95C4.23 7.51 4.11 8.09 4.11 8.7C4.11 9.31 4.23 9.9 4.46 10.46C4.69 11.02 5.03 11.52 5.46 11.95C5.89 12.38 6.38 12.71 6.95 12.94C7.51 13.18 8.09 13.29 8.7 13.29C9.31 13.29 9.9 13.18 10.46 12.94C11.02 12.71 11.52 12.38 11.95 11.95C12.38 11.52 12.71 11.02 12.95 10.46C13.18 9.9 13.29 9.31 13.3 8.7C13.3 8.09 13.18 7.51 12.95 6.95Z" stroke="#CED0D6" stroke-opacity="1.000000" stroke-width="0.300000"/>
	</g>
</svg>
