<svg width="16.000000" height="16.000000" viewBox="0 0 16 16" fill="none" xmlns="http://www.w3.org/2000/svg">
	<desc>
			Created with Pixso.
	</desc>
	<defs>
		<clipPath id="clip142_2">
			<rect id="settings.svg" width="16.000000" height="16.000000" fill="white" fill-opacity="0"/>
		</clipPath>
	</defs>
	<g clip-path="url(#clip142_2)">
		<path id="减去顶层" d="M4.88574 3.3877C5.16968 3.39087 5.43286 3.23901 5.57202 2.99146L6.44043 1.44873C6.55127 1.25171 6.74219 1.11011 6.96606 1.07666C7.30542 1.02612 7.65283 1 8.00635 1C8.35962 1 8.70703 1.02612 9.04639 1.07666C9.27002 1.11011 9.46118 1.25146 9.57202 1.44873L10.4404 2.99146C10.5796 3.23901 10.8428 3.39087 11.1267 3.3877L12.896 3.36841C13.1218 3.36597 13.3394 3.46021 13.4802 3.63672C13.9121 4.17773 14.2654 4.78418 14.5229 5.43872C14.6057 5.64917 14.5786 5.88501 14.4634 6.07935L13.5608 7.60376C13.4355 7.81543 13.4187 8.07153 13.5105 8.29492C13.1777 8.15918 12.8228 8.06689 12.4524 8.02539C12.448 7.70361 12.5305 7.3811 12.7002 7.09424L13.5398 5.67603C13.343 5.20776 13.0879 4.76929 12.7837 4.36963L11.1377 4.3877C10.4885 4.39478 9.88721 4.04761 9.56885 3.48193L8.76123 2.04688C8.5144 2.01587 8.26245 2 8.00635 2C7.75 2 7.49805 2.01611 7.25122 2.04688L6.4436 3.48193C6.12524 4.04761 5.52393 4.39478 4.87476 4.3877L3.22876 4.36963C2.92456 4.76929 2.66943 5.20776 2.47266 5.67627L3.31201 7.09424C3.64282 7.65283 3.64282 8.34717 3.31201 8.90576L2.47266 10.3237C2.66968 10.7922 2.92456 11.2307 3.22876 11.6304L4.87476 11.6123C5.52393 11.6052 6.12524 11.9524 6.4436 12.5181L7.25122 13.9529C7.49805 13.9839 7.75 14 8.00635 14C8.18042 14 8.35254 13.9927 8.52246 13.9783C8.71118 14.3093 8.94604 14.6108 9.21802 14.8743C9.16382 14.8977 9.1062 14.9143 9.04639 14.9233C8.70703 14.9739 8.35962 15 8.00635 15C7.65283 15 7.30542 14.9739 6.96606 14.9231C6.74219 14.8899 6.55127 14.7483 6.44043 14.5513L5.57202 13.0085C5.43286 12.761 5.16968 12.6091 4.88574 12.6123L3.1167 12.6316C2.89087 12.6343 2.6731 12.5398 2.53223 12.3633C2.10034 11.8223 1.74707 11.2158 1.4895 10.561C1.40698 10.3508 1.43408 10.115 1.54907 9.92065L2.45166 8.39624C2.59619 8.15186 2.59619 7.84814 2.45166 7.60376L1.54907 6.07935C1.43408 5.88501 1.40698 5.64917 1.4895 5.43896C1.74707 4.78418 2.10034 4.17773 2.53223 3.63672C2.6731 3.46021 2.89087 3.36597 3.1167 3.36841L4.88574 3.3877ZM10.647 8.23462C9.52808 8.63672 8.64038 9.52319 8.23657 10.6411C8.16064 10.6477 8.08374 10.6509 8.0061 10.6509C6.54199 10.6509 5.35522 9.46411 5.35522 8C5.35522 6.53589 6.54199 5.34912 8.0061 5.34912C9.47021 5.34912 10.6572 6.53589 10.6572 8C10.6572 8.0791 10.6538 8.15723 10.647 8.23462ZM9.65723 8C9.65723 8.91187 8.91797 9.65112 8.0061 9.65112C7.09448 9.65112 6.35522 8.91187 6.35522 8C6.35522 7.08813 7.09448 6.34912 8.0061 6.34912C8.91797 6.34912 9.65723 7.08813 9.65723 8Z" clip-rule="evenodd" fill="#515258" fill-opacity="1.000000" fill-rule="evenodd"/>
		<path id="path" d="M9.82 9.73C10.02 9.71 10.2 9.87 10.22 10.09L10.28 10.75L10.41 10.59C10.86 9.96 11.55 9.51 12.34 9.42C13.14 9.31 13.9 9.58 14.49 10.1C14.77 10.35 15.02 10.67 15.2 11.02C15.33 11.27 15.42 11.52 15.49 11.79C15.53 12 15.42 12.23 15.22 12.28C15.03 12.33 14.83 12.21 14.78 11.99C14.73 11.79 14.67 11.6 14.57 11.41C14.43 11.15 14.24 10.91 14.03 10.73C13.59 10.34 13.02 10.13 12.42 10.21C11.82 10.28 11.31 10.63 10.96 11.1L10.88 11.21L11.42 11.15C11.62 11.11 11.81 11.28 11.82 11.5C11.84 11.71 11.7 11.92 11.51 11.94L10.05 12.12C9.85 12.14 9.68 11.98 9.65 11.76L9.5 10.17C9.46 9.95 9.61 9.77 9.82 9.73Z" fill="#C00304" fill-opacity="1.000000" fill-rule="nonzero"/>
		<path id="path" d="M9.96 12.71C10.16 12.65 10.35 12.78 10.41 12.99C10.53 13.5 10.8 13.94 11.16 14.25C11.61 14.64 12.18 14.82 12.78 14.74C13.38 14.66 13.88 14.33 14.22 13.83L14.3 13.73L13.76 13.8C13.57 13.82 13.38 13.67 13.36 13.45C13.33 13.23 13.48 13.03 13.67 13L15.11 12.81C15.31 12.78 15.49 12.94 15.52 13.15L15.69 14.74C15.72 14.97 15.58 15.17 15.38 15.19C15.18 15.22 15 15.06 14.97 14.85L14.9 14.17L14.79 14.34C14.33 14.98 13.66 15.42 12.87 15.54C12.07 15.64 11.3 15.39 10.73 14.89C10.23 14.47 9.87 13.88 9.71 13.2C9.66 12.99 9.77 12.77 9.96 12.71Z" fill="#C00304" fill-opacity="1.000000" fill-rule="nonzero"/>
	</g>
</svg>
