<svg width="15.500000" height="15.500000" viewBox="0 0 15.5 15.5" fill="none" xmlns="http://www.w3.org/2000/svg">
	<desc>
			Created with Pixso.
	</desc>
	<defs>
		<clipPath id="clip169_21">
			<rect id="settings.svg" width="15.500000" height="15.500000" fill="white" fill-opacity="0"/>
		</clipPath>
	</defs>
	<g clip-path="url(#clip169_21)">
		<path id="减去顶层" d="M4.73 3.28C5 3.28 5.26 3.13 5.39 2.89L6.23 1.4C6.34 1.21 6.53 1.07 6.74 1.04C7.07 0.99 7.41 0.96 7.75 0.96C8.09 0.96 8.43 0.99 8.76 1.04C8.98 1.07 9.16 1.21 9.27 1.4L10.11 2.89C10.24 3.13 10.5 3.28 10.77 3.28L12.49 3.26C12.71 3.26 12.92 3.35 13.05 3.52C13.47 4.04 13.81 4.63 14.06 5.26C14.14 5.47 14.12 5.7 14.01 5.88L13.13 7.36C13.01 7.57 12.99 7.81 13.08 8.03C12.76 7.9 12.42 7.81 12.06 7.77C12.05 7.46 12.13 7.15 12.3 6.87L13.11 5.49C12.92 5.04 12.67 4.62 12.38 4.23L10.78 4.25C10.16 4.25 9.57 3.92 9.27 3.37L8.48 1.98C8.24 1.95 8 1.93 7.75 1.93C7.5 1.93 7.26 1.95 7.02 1.98L6.24 3.37C5.93 3.92 5.35 4.25 4.72 4.25L3.12 4.23C2.83 4.62 2.58 5.04 2.39 5.49L3.2 6.87C3.52 7.41 3.52 8.08 3.2 8.62L2.39 10C2.58 10.45 2.83 10.87 3.12 11.26L4.72 11.24C5.35 11.24 5.93 11.57 6.24 12.12L7.02 13.51C7.26 13.54 7.5 13.56 7.75 13.56C7.92 13.56 8.09 13.55 8.25 13.54C8.43 13.86 8.66 14.15 8.93 14.4C8.87 14.43 8.82 14.44 8.76 14.45C8.43 14.5 8.09 14.53 7.75 14.53C7.41 14.53 7.07 14.5 6.74 14.45C6.53 14.42 6.34 14.28 6.23 14.09L5.39 12.6C5.26 12.36 5 12.21 4.73 12.21L3.01 12.23C2.8 12.23 2.58 12.14 2.45 11.97C2.03 11.45 1.69 10.86 1.44 10.23C1.36 10.02 1.38 9.79 1.5 9.61L2.37 8.13C2.51 7.89 2.51 7.6 2.37 7.36L1.5 5.88C1.38 5.7 1.36 5.47 1.44 5.26C1.69 4.63 2.03 4.04 2.45 3.52C2.58 3.35 2.8 3.26 3.01 3.26L4.73 3.28ZM10.31 7.97C9.23 8.36 8.37 9.22 7.97 10.3C7.9 10.31 7.83 10.31 7.75 10.31C6.33 10.31 5.18 9.16 5.18 7.75C5.18 6.33 6.33 5.18 7.75 5.18C9.17 5.18 10.32 6.33 10.32 7.75C10.32 7.82 10.32 7.9 10.31 7.97ZM9.35 7.75C9.35 8.63 8.63 9.34 7.75 9.34C6.87 9.34 6.15 8.63 6.15 7.75C6.15 6.86 6.87 6.15 7.75 6.15C8.63 6.15 9.35 6.86 9.35 7.75Z" fill="#CED0D6" fill-opacity="1.000000" fill-rule="evenodd"/>
		<path id="path" d="M9.51 9.42C9.7 9.4 9.88 9.56 9.9 9.77L9.95 10.41L10.08 10.25C10.52 9.64 11.18 9.21 11.95 9.12C12.72 9.01 13.46 9.28 14.03 9.78C14.3 10.02 14.55 10.33 14.72 10.67C14.85 10.91 14.93 11.15 15 11.42C15.04 11.62 14.93 11.84 14.74 11.89C14.56 11.94 14.36 11.82 14.31 11.61C14.26 11.42 14.21 11.23 14.11 11.05C13.97 10.8 13.79 10.56 13.59 10.39C13.16 10.01 12.61 9.81 12.03 9.89C11.45 9.95 10.95 10.29 10.61 10.75L10.54 10.85L11.06 10.8C11.25 10.76 11.44 10.92 11.45 11.14C11.47 11.34 11.33 11.54 11.15 11.56L9.73 11.74C9.54 11.76 9.37 11.6 9.34 11.39L9.2 9.85C9.16 9.63 9.3 9.46 9.51 9.42Z" fill="#D4AAEE" fill-opacity="1.000000" fill-rule="nonzero"/>
		<path id="path" d="M9.64 12.31C9.84 12.25 10.02 12.38 10.08 12.58C10.2 13.07 10.46 13.5 10.81 13.8C11.24 14.18 11.79 14.35 12.38 14.27C12.96 14.2 13.44 13.88 13.77 13.39L13.85 13.3L13.32 13.36C13.14 13.38 12.96 13.24 12.94 13.02C12.91 12.81 13.05 12.62 13.24 12.59L14.63 12.4C14.83 12.38 15 12.53 15.03 12.73L15.19 14.27C15.22 14.5 15.09 14.69 14.89 14.71C14.7 14.74 14.53 14.58 14.5 14.38L14.43 13.72L14.32 13.89C13.88 14.51 13.23 14.93 12.46 15.05C11.69 15.15 10.94 14.9 10.39 14.42C9.91 14.01 9.56 13.44 9.4 12.78C9.35 12.58 9.46 12.37 9.64 12.31Z" fill="#D4AAEE" fill-opacity="1.000000" fill-rule="nonzero"/>
	</g>
</svg>
