<svg width="16.000000" height="16.000000" viewBox="0 0 16 16" fill="none" xmlns="http://www.w3.org/2000/svg">
	<desc>
			Created with Pixso.
	</desc>
	<defs>
		<clipPath id="clip175_1">
			<rect id="softWrap.svg" width="16.000000" height="16.000000" fill="white" fill-opacity="0"/>
		</clipPath>
	</defs>
	<g clip-path="url(#clip175_1)">
		<path id="path" d="M1.5 3C1.22 3 1 3.22 1 3.5C1 3.77 1.22 4 1.5 4L1.5 3ZM14.5 4C14.77 4 15 3.77 15 3.5C15 3.22 14.77 3 14.5 3L14.5 4ZM1.5 7.5C1.22 7.5 1 7.72 1 8C1 8.27 1.22 8.5 1.5 8.5L1.5 7.5ZM8.5 12.5L8.14 12.14L7.79 12.5L8.14 12.85L8.5 12.5ZM10.85 10.85C11.04 10.65 11.04 10.34 10.85 10.14C10.65 9.95 10.34 9.95 10.14 10.14L10.85 10.85ZM10.14 14.85C10.34 15.04 10.65 15.04 10.85 14.85C11.04 14.65 11.04 14.34 10.85 14.14L10.14 14.85ZM1.5 12C1.22 12 1 12.22 1 12.5C1 12.77 1.22 13 1.5 13L1.5 12ZM5.5 13C5.77 13 6 12.77 6 12.5C6 12.22 5.77 12 5.5 12L5.5 13ZM1.5 4L14.5 4L14.5 3L1.5 3L1.5 4ZM1.5 8.5L12.25 8.5L12.25 7.5L1.5 7.5L1.5 8.5ZM12.25 12L8.5 12L8.5 13L12.25 13L12.25 12ZM8.85 12.85L10.85 10.85L10.14 10.14L8.14 12.14L8.85 12.85ZM8.14 12.85L10.14 14.85L10.85 14.14L8.85 12.14L8.14 12.85ZM1.5 13L5.5 13L5.5 12L1.5 12L1.5 13ZM12.25 13C13.76 13 15 11.76 15 10.25L14 10.25C14 11.21 13.21 12 12.25 12L12.25 13ZM12.25 8.5C13.21 8.5 14 9.28 14 10.25L15 10.25C15 8.73 13.76 7.5 12.25 7.5L12.25 8.5Z" fill="#6C707E" fill-opacity="1.000000" fill-rule="nonzero"/>
		<path id="path" d="M1 3.5C1 3.77 1.22 4 1.5 4L14.5 4C14.77 4 15 3.77 15 3.5C15 3.22 14.77 3 14.5 3L1.5 3C1.22 3 1 3.22 1 3.5ZM1.5 4L1.5 3M14.5 3L14.5 4M1 8C1 8.27 1.22 8.5 1.5 8.5L12.25 8.5C13.21 8.5 14 9.28 14 10.25C14 11.21 13.21 12 12.25 12L8.5 12L8.5 13L12.25 13C13.76 13 15 11.76 15 10.25C15 8.73 13.76 7.5 12.25 7.5L1.5 7.5C1.22 7.5 1 7.72 1 8ZM1.5 8.5L1.5 7.5M8.14 12.85L8.5 12.5L8.14 12.14M8.14 12.14L8.85 12.85L10.85 10.85C11.04 10.65 11.04 10.34 10.85 10.14C10.65 9.95 10.34 9.95 10.14 10.14L8.14 12.14L7.79 12.5L8.14 12.85L10.14 14.85C10.34 15.04 10.65 15.04 10.85 14.85C11.04 14.65 11.04 14.34 10.85 14.14L8.85 12.14L8.14 12.85M10.14 10.14L10.85 10.85M10.85 14.14L10.14 14.85M1 12.5C1 12.77 1.22 13 1.5 13L5.5 13C5.77 13 6 12.77 6 12.5C6 12.22 5.77 12 5.5 12L1.5 12C1.22 12 1 12.22 1 12.5ZM1.5 13L1.5 12M5.5 12L5.5 13M12.25 8.5L12.25 7.5M12.25 13L12.25 12M15 10.25L14 10.25" stroke="#6C707E" stroke-opacity="1.000000" stroke-width="0.400000"/>
	</g>
</svg>
