<svg width="15.500000" height="16.000000" viewBox="0 0 15.5 16" fill="none" xmlns="http://www.w3.org/2000/svg">
	<desc>
			Created with Pixso.
	</desc>
	<defs>
		<clipPath id="clip175_1">
			<rect id="softWrap.svg" width="15.500000" height="16.000000" fill="white" fill-opacity="0"/>
		</clipPath>
	</defs>
	<g clip-path="url(#clip175_1)">
		<path id="path" d="M1.45 3C1.18 3 0.96 3.22 0.96 3.5C0.96 3.77 1.18 4 1.45 4L1.45 3ZM14.04 4C14.31 4 14.53 3.77 14.53 3.5C14.53 3.22 14.31 3 14.04 3L14.04 4ZM1.45 7.5C1.18 7.5 0.96 7.72 0.96 8C0.96 8.27 1.18 8.5 1.45 8.5L1.45 7.5ZM8.23 12.5L7.89 12.14L7.54 12.5L7.89 12.85L8.23 12.5ZM10.51 10.85C10.7 10.65 10.7 10.34 10.51 10.14C10.32 9.95 10.01 9.95 9.82 10.14L10.51 10.85ZM9.82 14.85C10.01 15.04 10.32 15.04 10.51 14.85C10.7 14.65 10.7 14.34 10.51 14.14L9.82 14.85ZM1.45 12C1.18 12 0.96 12.22 0.96 12.5C0.96 12.77 1.18 13 1.45 13L1.45 12ZM5.32 13C5.59 13 5.81 12.77 5.81 12.5C5.81 12.22 5.59 12 5.32 12L5.32 13ZM1.45 4L14.04 4L14.04 3L1.45 3L1.45 4ZM1.45 8.5L11.86 8.5L11.86 7.5L1.45 7.5L1.45 8.5ZM11.86 12L8.23 12L8.23 13L11.86 13L11.86 12ZM8.57 12.85L10.51 10.85L9.82 10.14L7.89 12.14L8.57 12.85ZM7.89 12.85L9.82 14.85L10.51 14.14L8.57 12.14L7.89 12.85ZM1.45 13L5.32 13L5.32 12L1.45 12L1.45 13ZM11.86 13C13.33 13 14.53 11.76 14.53 10.25L13.56 10.25C13.56 11.21 12.8 12 11.86 12L11.86 13ZM11.86 8.5C12.8 8.5 13.56 9.28 13.56 10.25L14.53 10.25C14.53 8.73 13.33 7.5 11.86 7.5L11.86 8.5Z" fill="#AFB1B3" fill-opacity="1.000000" fill-rule="nonzero"/>
		<path id="path" d="M0.96 3.5C0.96 3.77 1.18 4 1.45 4L14.04 4C14.31 4 14.53 3.77 14.53 3.5C14.53 3.22 14.31 3 14.04 3L1.45 3C1.18 3 0.96 3.22 0.96 3.5ZM1.45 4L1.45 3M14.04 3L14.04 4M0.96 8C0.96 8.27 1.18 8.5 1.45 8.5L11.86 8.5C12.8 8.5 13.56 9.28 13.56 10.25C13.56 11.21 12.8 12 11.86 12L8.23 12L8.23 13L11.86 13C13.33 13 14.53 11.76 14.53 10.25C14.53 8.73 13.33 7.5 11.86 7.5L1.45 7.5C1.18 7.5 0.96 7.72 0.96 8ZM1.45 8.5L1.45 7.5M7.89 12.85L8.23 12.5L7.89 12.14M7.89 12.14L8.57 12.85L10.51 10.85C10.7 10.65 10.7 10.34 10.51 10.14C10.32 9.95 10.01 9.95 9.82 10.14L7.89 12.14L7.54 12.5L7.89 12.85L9.82 14.85C10.01 15.04 10.32 15.04 10.51 14.85C10.7 14.65 10.7 14.34 10.51 14.14L8.57 12.14L7.89 12.85M9.82 10.14L10.51 10.85M10.51 14.14L9.82 14.85M0.96 12.5C0.96 12.77 1.18 13 1.45 13L5.32 13C5.59 13 5.81 12.77 5.81 12.5C5.81 12.22 5.59 12 5.32 12L1.45 12C1.18 12 0.96 12.22 0.96 12.5ZM1.45 13L1.45 12M5.32 12L5.32 13M11.86 8.5L11.86 7.5M11.86 13L11.86 12M14.53 10.25L13.56 10.25" stroke="#AFB1B3" stroke-opacity="1.000000" stroke-width="0.500000"/>
	</g>
</svg>
