<svg width="14.500000" height="14.500000" viewBox="0 0 14.5 14.5" fill="none" xmlns="http://www.w3.org/2000/svg">
	<desc>
			Created with Pixso.
	</desc>
	<defs>
		<clipPath id="clip172_27">
			<rect id="structure_logo" width="14.500000" height="14.500000" fill="white" fill-opacity="0"/>
		</clipPath>
	</defs>
	<g clip-path="url(#clip172_27)">
		<path id="path" d="M3.62 12.68C3.18 12.68 2.79 12.54 2.45 12.26C2.11 11.97 1.91 11.61 1.83 11.18C1.76 10.74 1.83 10.33 2.05 9.95C2.28 9.57 2.6 9.31 3.02 9.16L3.02 5.33C2.74 5.23 2.51 5.08 2.31 4.87C2.11 4.67 1.97 4.43 1.89 4.15C1.8 3.88 1.78 3.6 1.83 3.31C1.88 3.03 1.99 2.77 2.16 2.54C2.33 2.31 2.55 2.13 2.8 2C3.06 1.87 3.33 1.81 3.62 1.81C3.91 1.81 4.18 1.87 4.44 2C4.69 2.13 4.91 2.31 5.08 2.54C5.25 2.77 5.36 3.03 5.41 3.31C5.46 3.6 5.44 3.88 5.35 4.15C5.27 4.43 5.13 4.67 4.93 4.87C4.73 5.08 4.5 5.23 4.22 5.33L4.22 5.43C4.22 5.77 4.34 6.05 4.58 6.29C4.81 6.52 5.1 6.64 5.43 6.64L9.06 6.64C9.72 6.64 10.29 6.88 10.77 7.35C11.24 7.82 11.47 8.39 11.47 9.06L11.47 9.16C11.75 9.26 11.98 9.41 12.18 9.62C12.38 9.82 12.52 10.06 12.6 10.34C12.69 10.61 12.71 10.89 12.66 11.18C12.61 11.46 12.5 11.72 12.33 11.95C12.16 12.18 11.94 12.36 11.69 12.49C11.43 12.62 11.16 12.68 10.87 12.68C10.58 12.68 10.31 12.62 10.05 12.49C9.8 12.36 9.58 12.18 9.41 11.95C9.24 11.72 9.13 11.46 9.08 11.18C9.03 10.89 9.05 10.61 9.14 10.34C9.22 10.06 9.36 9.82 9.56 9.62C9.76 9.41 9.99 9.26 10.27 9.16L10.27 9.06C10.27 8.72 10.15 8.44 9.91 8.2C9.68 7.97 9.39 7.85 9.06 7.85L5.43 7.85C5 7.85 4.6 7.74 4.22 7.53L4.22 9.16C4.64 9.31 4.96 9.57 5.18 9.95C5.4 10.33 5.48 10.74 5.4 11.18C5.33 11.61 5.12 11.97 4.79 12.25C4.45 12.54 4.06 12.68 3.62 12.68Z" fill="#7E7E7E" fill-opacity="1.000000" fill-rule="nonzero"/>
		<path id="path" d="M2.45 12.26C2.11 11.97 1.91 11.61 1.83 11.18C1.76 10.74 1.83 10.33 2.05 9.95C2.28 9.57 2.6 9.31 3.02 9.16L3.02 5.33C2.74 5.23 2.51 5.08 2.31 4.87C2.11 4.67 1.97 4.43 1.89 4.15C1.8 3.88 1.78 3.6 1.83 3.31C1.88 3.03 1.99 2.77 2.16 2.54C2.33 2.31 2.55 2.13 2.8 2C3.06 1.87 3.33 1.81 3.62 1.81C3.91 1.81 4.18 1.87 4.44 2C4.69 2.13 4.91 2.31 5.08 2.54C5.25 2.77 5.36 3.03 5.41 3.31C5.46 3.6 5.44 3.88 5.35 4.15C5.27 4.43 5.13 4.67 4.93 4.87C4.73 5.08 4.5 5.23 4.22 5.33L4.22 5.43C4.22 5.77 4.34 6.05 4.58 6.29C4.81 6.52 5.1 6.64 5.43 6.64L9.06 6.64C9.72 6.64 10.29 6.88 10.77 7.35C11.24 7.82 11.47 8.39 11.47 9.06L11.47 9.16C11.75 9.26 11.98 9.41 12.18 9.62C12.38 9.82 12.52 10.06 12.6 10.34C12.69 10.61 12.71 10.89 12.66 11.18C12.61 11.46 12.5 11.72 12.33 11.95C12.16 12.18 11.94 12.36 11.69 12.49C11.43 12.62 11.16 12.68 10.87 12.68C10.58 12.68 10.31 12.62 10.05 12.49C9.8 12.36 9.58 12.18 9.41 11.95C9.24 11.72 9.13 11.46 9.08 11.18C9.03 10.89 9.05 10.61 9.14 10.34C9.22 10.06 9.36 9.82 9.56 9.62C9.76 9.41 9.99 9.26 10.27 9.16L10.27 9.06C10.27 8.72 10.15 8.44 9.91 8.2C9.68 7.97 9.39 7.85 9.06 7.85L5.43 7.85C5 7.85 4.6 7.74 4.22 7.53L4.22 9.16C4.64 9.31 4.96 9.57 5.18 9.95C5.4 10.33 5.48 10.74 5.4 11.18C5.33 11.61 5.12 11.97 4.79 12.25C4.45 12.54 4.06 12.68 3.62 12.68C3.18 12.68 2.79 12.54 2.45 12.26Z" stroke="#7E7E7E" stroke-opacity="1.000000" stroke-width="0.100000"/>
	</g>
</svg>
