<svg width="14.800049" height="14.800049" viewBox="0 0 14.8 14.8" fill="none" xmlns="http://www.w3.org/2000/svg">
	<desc>
			Created with Pixso.
	</desc>
	<defs>
		<clipPath id="clip170_45">
			<rect id="structure_logo_dark" width="14.800000" height="14.800000" fill="white" fill-opacity="0"/>
		</clipPath>
	</defs>
	<g clip-path="url(#clip170_45)">
		<path id="path" d="M4.79 4.09C4.79 4.5 4.63 4.86 4.34 5.16C4.04 5.44 3.69 5.6 3.28 5.6C2.87 5.6 2.5 5.44 2.2 5.16C1.91 4.86 1.77 4.5 1.77 4.09C1.77 3.67 1.91 3.31 2.2 3.02C2.5 2.72 2.87 2.59 3.28 2.59C3.69 2.59 4.04 2.72 4.34 3.02C4.63 3.31 4.79 3.67 4.79 4.09ZM11.81 4.09C11.81 4.5 11.67 4.86 11.37 5.16C11.08 5.44 10.72 5.6 10.3 5.6C9.89 5.6 9.53 5.44 9.24 5.16C8.95 4.86 8.8 4.5 8.8 4.09C8.8 3.67 8.95 3.31 9.24 3.02C9.53 2.72 9.89 2.59 10.3 2.59C10.72 2.59 11.08 2.72 11.37 3.02C11.67 3.31 11.81 3.67 11.81 4.09ZM4.79 11.12C4.79 11.53 4.63 11.9 4.34 12.19C4.04 12.48 3.69 12.63 3.28 12.63C2.87 12.63 2.5 12.48 2.2 12.19C1.91 11.9 1.77 11.53 1.77 11.12C1.77 10.7 1.91 10.35 2.2 10.06C2.5 9.76 2.87 9.62 3.28 9.62C3.69 9.62 4.04 9.76 4.34 10.06C4.63 10.35 4.79 10.7 4.79 11.12ZM11.81 11.12C11.81 11.53 11.67 11.9 11.37 12.19C11.08 12.48 10.72 12.63 10.3 12.63C9.89 12.63 9.53 12.48 9.24 12.19C8.95 11.9 8.8 11.53 8.8 11.12C8.8 10.7 8.95 10.35 9.24 10.06C9.53 9.76 9.89 9.62 10.3 9.62C10.72 9.62 11.08 9.76 11.37 10.06C11.67 10.35 11.81 10.7 11.81 11.12Z" fill="#000000" fill-opacity="0" fill-rule="nonzero"/>
		<path id="path" d="M4.34 5.16C4.04 5.44 3.69 5.6 3.28 5.6C2.87 5.6 2.5 5.44 2.2 5.16C1.91 4.86 1.77 4.5 1.77 4.09C1.77 3.67 1.91 3.31 2.2 3.02C2.5 2.72 2.87 2.59 3.28 2.59C3.69 2.59 4.04 2.72 4.34 3.02C4.63 3.31 4.79 3.67 4.79 4.09C4.79 4.5 4.63 4.86 4.34 5.16ZM11.37 5.16C11.08 5.44 10.72 5.6 10.3 5.6C9.89 5.6 9.53 5.44 9.24 5.16C8.95 4.86 8.8 4.5 8.8 4.09C8.8 3.67 8.95 3.31 9.24 3.02C9.53 2.72 9.89 2.59 10.3 2.59C10.72 2.59 11.08 2.72 11.37 3.02C11.67 3.31 11.81 3.67 11.81 4.09C11.81 4.5 11.67 4.86 11.37 5.16ZM4.34 12.19C4.04 12.48 3.69 12.63 3.28 12.63C2.87 12.63 2.5 12.48 2.2 12.19C1.91 11.9 1.77 11.53 1.77 11.12C1.77 10.7 1.91 10.35 2.2 10.06C2.5 9.76 2.87 9.62 3.28 9.62C3.69 9.62 4.04 9.76 4.34 10.06C4.63 10.35 4.79 10.7 4.79 11.12C4.79 11.53 4.63 11.9 4.34 12.19ZM11.37 12.19C11.08 12.48 10.72 12.63 10.3 12.63C9.89 12.63 9.53 12.48 9.24 12.19C8.95 11.9 8.8 11.53 8.8 11.12C8.8 10.7 8.95 10.35 9.24 10.06C9.53 9.76 9.89 9.62 10.3 9.62C10.72 9.62 11.08 9.76 11.37 10.06C11.67 10.35 11.81 10.7 11.81 11.12C11.81 11.53 11.67 11.9 11.37 12.19Z" fill="#000000" fill-opacity="0" fill-rule="nonzero"/>
		<path id="path" d="M3.28 5.6C2.87 5.6 2.5 5.44 2.2 5.16C1.91 4.86 1.77 4.5 1.77 4.09C1.77 3.67 1.91 3.31 2.2 3.02C2.5 2.72 2.87 2.59 3.28 2.59C3.69 2.59 4.04 2.72 4.34 3.02C4.63 3.31 4.79 3.67 4.79 4.09C4.79 4.5 4.63 4.86 4.34 5.16C4.04 5.44 3.69 5.6 3.28 5.6ZM10.3 5.6C9.89 5.6 9.53 5.44 9.24 5.16C8.95 4.86 8.8 4.5 8.8 4.09C8.8 3.67 8.95 3.31 9.24 3.02C9.53 2.72 9.89 2.59 10.3 2.59C10.72 2.59 11.08 2.72 11.37 3.02C11.67 3.31 11.81 3.67 11.81 4.09C11.81 4.5 11.67 4.86 11.37 5.16C11.08 5.44 10.72 5.6 10.3 5.6ZM3.28 12.63C2.87 12.63 2.5 12.48 2.2 12.19C1.91 11.9 1.77 11.53 1.77 11.12C1.77 10.7 1.91 10.35 2.2 10.06C2.5 9.76 2.87 9.62 3.28 9.62C3.69 9.62 4.04 9.76 4.34 10.06C4.63 10.35 4.79 10.7 4.79 11.12C4.79 11.53 4.63 11.9 4.34 12.19C4.04 12.48 3.69 12.63 3.28 12.63ZM10.3 12.63C9.89 12.63 9.53 12.48 9.24 12.19C8.95 11.9 8.8 11.53 8.8 11.12C8.8 10.7 8.95 10.35 9.24 10.06C9.53 9.76 9.89 9.62 10.3 9.62C10.72 9.62 11.08 9.76 11.37 10.06C11.67 10.35 11.81 10.7 11.81 11.12C11.81 11.53 11.67 11.9 11.37 12.19C11.08 12.48 10.72 12.63 10.3 12.63Z" fill="#000000" fill-opacity="0" fill-rule="nonzero"/>
		<path id="path" d="M2.2 5.16C1.91 4.86 1.77 4.5 1.77 4.09C1.77 3.67 1.91 3.31 2.2 3.02C2.5 2.72 2.87 2.59 3.28 2.59C3.69 2.59 4.04 2.72 4.34 3.02C4.63 3.31 4.79 3.67 4.79 4.09C4.79 4.5 4.63 4.86 4.34 5.16C4.04 5.44 3.69 5.6 3.28 5.6C2.87 5.6 2.5 5.44 2.2 5.16ZM9.24 5.16C8.95 4.86 8.8 4.5 8.8 4.09C8.8 3.67 8.95 3.31 9.24 3.02C9.53 2.72 9.89 2.59 10.3 2.59C10.72 2.59 11.08 2.72 11.37 3.02C11.67 3.31 11.81 3.67 11.81 4.09C11.81 4.5 11.67 4.86 11.37 5.16C11.08 5.44 10.72 5.6 10.3 5.6C9.89 5.6 9.53 5.44 9.24 5.16ZM2.2 12.19C1.91 11.9 1.77 11.53 1.77 11.12C1.77 10.7 1.91 10.35 2.2 10.06C2.5 9.76 2.87 9.62 3.28 9.62C3.69 9.62 4.04 9.76 4.34 10.06C4.63 10.35 4.79 10.7 4.79 11.12C4.79 11.53 4.63 11.9 4.34 12.19C4.04 12.48 3.69 12.63 3.28 12.63C2.87 12.63 2.5 12.48 2.2 12.19ZM9.24 12.19C8.95 11.9 8.8 11.53 8.8 11.12C8.8 10.7 8.95 10.35 9.24 10.06C9.53 9.76 9.89 9.62 10.3 9.62C10.72 9.62 11.08 9.76 11.37 10.06C11.67 10.35 11.81 10.7 11.81 11.12C11.81 11.53 11.67 11.9 11.37 12.19C11.08 12.48 10.72 12.63 10.3 12.63C9.89 12.63 9.53 12.48 9.24 12.19Z" stroke="#AFB1B3" stroke-opacity="1.000000" stroke-width="1.375000"/>
		<path id="path" d="M4.8 4.62C4.49 4.62 4.23 4.39 4.23 4.09C4.23 3.78 4.47 3.53 4.78 3.53L4.8 4.62ZM8.78 3.55C9.1 3.55 9.35 3.78 9.35 4.09C9.35 4.39 9.1 4.64 8.8 4.64L8.78 3.55ZM10.85 9.6C10.85 9.91 10.61 10.17 10.3 10.17C10 10.17 9.76 9.92 9.76 9.62L10.85 9.6ZM9.77 8.12C9.77 7.82 10 7.55 10.3 7.55C10.61 7.55 10.86 7.8 10.86 8.1L9.77 8.12ZM9.77 5.61C9.77 5.3 10 5.05 10.3 5.05C10.61 5.05 10.86 5.29 10.86 5.6L9.77 5.61ZM10.85 6.09C10.85 6.39 10.61 6.65 10.3 6.65C10 6.65 9.76 6.41 9.76 6.1L10.85 6.09ZM8.78 10.58C9.1 10.58 9.35 10.81 9.35 11.12C9.35 11.43 9.1 11.68 8.8 11.68L8.78 10.58ZM7.31 11.66C6.99 11.66 6.74 11.43 6.74 11.12C6.74 10.81 6.99 10.57 7.29 10.57L7.31 11.66ZM5.77 10.58C6.08 10.58 6.34 10.81 6.34 11.12C6.34 11.43 6.09 11.68 5.79 11.68L5.77 10.58ZM4.8 11.66C4.49 11.66 4.23 11.43 4.23 11.12C4.23 10.81 4.47 10.57 4.78 10.57L4.8 11.66ZM3.81 9.6C3.81 9.91 3.59 10.17 3.28 10.17C2.96 10.17 2.72 9.92 2.72 9.62L3.81 9.6ZM2.74 5.61C2.74 5.3 2.96 5.05 3.28 5.05C3.59 5.05 3.83 5.29 3.83 5.6L2.74 5.61Z" fill="#000000" fill-opacity="0" fill-rule="nonzero"/>
		<path id="path" d="" fill="#000000" fill-opacity="0" fill-rule="nonzero"/>
		<path id="path" d="M4.79 4.09L8.8 4.09M10.3 9.62L10.3 8.1M10.3 5.6L10.3 6.1M8.8 11.12L7.29 11.12M5.79 11.12L4.79 11.12M3.28 9.62L3.28 5.6" stroke="#AFB1B3" stroke-opacity="1.000000" stroke-width="1.375000"/>
	</g>
</svg>
