<svg width="19.000000" height="19.000000" viewBox="0 0 19 19" fill="none" xmlns="http://www.w3.org/2000/svg">
	<desc>
			Created with Pixso.
	</desc>
	<defs>
		<clipPath id="clip114_50">
			<rect id="structure" width="19.000000" height="19.000000" fill="white" fill-opacity="0"/>
		</clipPath>
	</defs>
	<g clip-path="url(#clip114_50)">
		<path id="path" d="M7.24 5.84C7.24 6.34 7.05 6.78 6.7 7.14C6.34 7.49 5.92 7.68 5.42 7.68C4.92 7.68 4.48 7.49 4.12 7.14C3.77 6.78 3.59 6.34 3.59 5.84C3.59 5.33 3.77 4.89 4.12 4.53C4.48 4.17 4.92 4 5.42 4C5.92 4 6.34 4.17 6.7 4.53C7.05 4.89 7.24 5.33 7.24 5.84ZM15.73 5.84C15.73 6.34 15.56 6.78 15.2 7.14C14.85 7.49 14.41 7.68 13.91 7.68C13.41 7.68 12.98 7.49 12.63 7.14C12.27 6.78 12.09 6.34 12.09 5.84C12.09 5.33 12.27 4.89 12.63 4.53C12.98 4.17 13.41 4 13.91 4C14.41 4 14.85 4.17 15.2 4.53C15.56 4.89 15.73 5.33 15.73 5.84ZM7.24 14.43C7.24 14.93 7.05 15.38 6.7 15.74C6.34 16.09 5.92 16.27 5.42 16.27C4.92 16.27 4.48 16.09 4.12 15.74C3.77 15.38 3.59 14.93 3.59 14.43C3.59 13.92 3.77 13.49 4.12 13.13C4.48 12.77 4.92 12.59 5.42 12.59C5.92 12.59 6.34 12.77 6.7 13.13C7.05 13.49 7.24 13.92 7.24 14.43ZM15.73 14.43C15.73 14.93 15.56 15.38 15.2 15.74C14.85 16.09 14.41 16.27 13.91 16.27C13.41 16.27 12.98 16.09 12.63 15.74C12.27 15.38 12.09 14.93 12.09 14.43C12.09 13.92 12.27 13.49 12.63 13.13C12.98 12.77 13.41 12.59 13.91 12.59C14.41 12.59 14.85 12.77 15.2 13.13C15.56 13.49 15.73 13.92 15.73 14.43Z" fill="#000000" fill-opacity="0" fill-rule="nonzero"/>
		<path id="path" d="M6.7 7.14C6.34 7.49 5.92 7.68 5.42 7.68C4.92 7.68 4.48 7.49 4.12 7.14C3.77 6.78 3.59 6.34 3.59 5.84C3.59 5.33 3.77 4.89 4.12 4.53C4.48 4.17 4.92 4 5.42 4C5.92 4 6.34 4.17 6.7 4.53C7.05 4.89 7.24 5.33 7.24 5.84C7.24 6.34 7.05 6.78 6.7 7.14ZM15.2 7.14C14.85 7.49 14.41 7.68 13.91 7.68C13.41 7.68 12.98 7.49 12.63 7.14C12.27 6.78 12.09 6.34 12.09 5.84C12.09 5.33 12.27 4.89 12.63 4.53C12.98 4.17 13.41 4 13.91 4C14.41 4 14.85 4.17 15.2 4.53C15.56 4.89 15.73 5.33 15.73 5.84C15.73 6.34 15.56 6.78 15.2 7.14ZM6.7 15.74C6.34 16.09 5.92 16.27 5.42 16.27C4.92 16.27 4.48 16.09 4.12 15.74C3.77 15.38 3.59 14.93 3.59 14.43C3.59 13.92 3.77 13.49 4.12 13.13C4.48 12.77 4.92 12.59 5.42 12.59C5.92 12.59 6.34 12.77 6.7 13.13C7.05 13.49 7.24 13.92 7.24 14.43C7.24 14.93 7.05 15.38 6.7 15.74ZM15.2 15.74C14.85 16.09 14.41 16.27 13.91 16.27C13.41 16.27 12.98 16.09 12.63 15.74C12.27 15.38 12.09 14.93 12.09 14.43C12.09 13.92 12.27 13.49 12.63 13.13C12.98 12.77 13.41 12.59 13.91 12.59C14.41 12.59 14.85 12.77 15.2 13.13C15.56 13.49 15.73 13.92 15.73 14.43C15.73 14.93 15.56 15.38 15.2 15.74Z" fill="#000000" fill-opacity="0" fill-rule="nonzero"/>
		<path id="path" d="M5.42 7.68C4.92 7.68 4.48 7.49 4.12 7.14C3.77 6.78 3.59 6.34 3.59 5.84C3.59 5.33 3.77 4.89 4.12 4.53C4.48 4.17 4.92 4 5.42 4C5.92 4 6.34 4.17 6.7 4.53C7.05 4.89 7.24 5.33 7.24 5.84C7.24 6.34 7.05 6.78 6.7 7.14C6.34 7.49 5.92 7.68 5.42 7.68ZM13.91 7.68C13.41 7.68 12.98 7.49 12.63 7.14C12.27 6.78 12.09 6.34 12.09 5.84C12.09 5.33 12.27 4.89 12.63 4.53C12.98 4.17 13.41 4 13.91 4C14.41 4 14.85 4.17 15.2 4.53C15.56 4.89 15.73 5.33 15.73 5.84C15.73 6.34 15.56 6.78 15.2 7.14C14.85 7.49 14.41 7.68 13.91 7.68ZM5.42 16.27C4.92 16.27 4.48 16.09 4.12 15.74C3.77 15.38 3.59 14.93 3.59 14.43C3.59 13.92 3.77 13.49 4.12 13.13C4.48 12.77 4.92 12.59 5.42 12.59C5.92 12.59 6.34 12.77 6.7 13.13C7.05 13.49 7.24 13.92 7.24 14.43C7.24 14.93 7.05 15.38 6.7 15.74C6.34 16.09 5.92 16.27 5.42 16.27ZM13.91 16.27C13.41 16.27 12.98 16.09 12.63 15.74C12.27 15.38 12.09 14.93 12.09 14.43C12.09 13.92 12.27 13.49 12.63 13.13C12.98 12.77 13.41 12.59 13.91 12.59C14.41 12.59 14.85 12.77 15.2 13.13C15.56 13.49 15.73 13.92 15.73 14.43C15.73 14.93 15.56 15.38 15.2 15.74C14.85 16.09 14.41 16.27 13.91 16.27Z" stroke="#CED0D6" stroke-opacity="1.000000" stroke-width="1.375000"/>
		<path id="path" d="M7.26 6.49C6.88 6.49 6.57 6.21 6.57 5.84C6.57 5.46 6.86 5.16 7.24 5.16L7.26 6.49ZM12.07 5.18C12.45 5.18 12.76 5.46 12.76 5.84C12.76 6.21 12.46 6.51 12.09 6.51L12.07 5.18ZM14.57 12.57C14.57 12.95 14.28 13.27 13.91 13.27C13.54 13.27 13.25 12.96 13.25 12.59L14.57 12.57ZM13.26 10.76C13.26 10.39 13.54 10.07 13.91 10.07C14.28 10.07 14.58 10.37 14.58 10.74L13.26 10.76ZM13.26 7.7C13.26 7.32 13.54 7.01 13.91 7.01C14.28 7.01 14.58 7.3 14.58 7.68L13.26 7.7ZM14.57 8.28C14.57 8.65 14.28 8.97 13.91 8.97C13.54 8.97 13.25 8.67 13.25 8.3L14.57 8.28ZM12.07 13.77C12.45 13.77 12.76 14.05 12.76 14.43C12.76 14.81 12.46 15.11 12.09 15.11L12.07 13.77ZM10.29 15.09C9.91 15.09 9.6 14.81 9.6 14.43C9.6 14.05 9.9 13.76 10.27 13.76L10.29 15.09ZM8.43 13.77C8.8 13.77 9.12 14.05 9.12 14.43C9.12 14.81 8.82 15.11 8.45 15.11L8.43 13.77ZM7.26 15.09C6.88 15.09 6.57 14.81 6.57 14.43C6.57 14.05 6.86 13.76 7.24 13.76L7.26 15.09ZM6.06 12.57C6.06 12.95 5.79 13.27 5.42 13.27C5.04 13.27 4.75 12.96 4.75 12.59L6.06 12.57ZM4.77 7.7C4.77 7.32 5.04 7.01 5.42 7.01C5.79 7.01 6.08 7.3 6.08 7.68L4.77 7.7Z" fill="#000000" fill-opacity="0" fill-rule="nonzero"/>
		<path id="path" d="" fill="#CED0D6" fill-opacity="0" fill-rule="nonzero"/>
		<path id="path" d="M7.24 5.84L12.09 5.84M13.91 12.59L13.91 10.74M13.91 7.68L13.91 8.3M12.09 14.43L10.27 14.43M8.45 14.43L7.24 14.43M5.42 12.59L5.42 7.68" stroke="#CED0D6" stroke-opacity="1.000000" stroke-width="1.375000"/>
	</g>
</svg>
