<svg width="20.500000" height="20.500000" viewBox="0 0 20.5 20.5" fill="none" xmlns="http://www.w3.org/2000/svg">
	<desc>
			Created with Pixso.
	</desc>
	<defs>
		<clipPath id="clip187_21">
			<rect id="svg" width="20.500000" height="20.500000" fill="white" fill-opacity="0"/>
		</clipPath>
	</defs>
	<g clip-path="url(#clip187_21)">
		<path id="path" d="M6.83 17.31L6.83 14.52L2.88 14.52C2.61 14.52 2.41 14.39 2.28 14.15C2.15 13.91 2.16 13.67 2.31 13.44L4.99 9.39L4.66 9.39C4.39 9.39 4.19 9.27 4.05 9.03C3.91 8.78 3.93 8.55 4.1 8.32L7.11 3.99C7.25 3.79 7.44 3.69 7.68 3.69C7.93 3.69 8.12 3.79 8.26 3.99L10.25 6.85L12.23 3.99C12.37 3.79 12.56 3.69 12.81 3.69C13.05 3.69 13.24 3.79 13.38 3.99L16.39 8.32C16.56 8.55 16.58 8.78 16.44 9.03C16.3 9.27 16.1 9.39 15.83 9.39L15.5 9.39L18.18 13.44C18.33 13.67 18.34 13.91 18.21 14.15C18.08 14.39 17.88 14.52 17.61 14.52L13.66 14.52L13.66 17.24C13.66 17.44 13.6 17.61 13.47 17.74C13.33 17.87 13.17 17.93 12.97 17.93L12.58 17.93C12.4 17.93 12.25 17.87 12.13 17.75C12.01 17.63 11.95 17.48 11.95 17.31L11.95 14.52L8.54 14.52L8.54 17.24C8.54 17.44 8.47 17.61 8.34 17.74C8.21 17.87 8.04 17.93 7.85 17.93L7.45 17.93C7.28 17.93 7.13 17.87 7.01 17.75C6.89 17.63 6.83 17.48 6.83 17.31ZM13.2 13.66L17.31 13.66L13.92 8.54L15.5 8.54L12.81 4.69L10.78 7.59L11.29 8.32C11.44 8.55 11.45 8.78 11.32 9.03C11.19 9.27 10.99 9.39 10.72 9.39L10.37 9.39L13.2 13.66ZM3.18 13.66L12.19 13.66L8.79 8.54L10.37 8.54L7.68 4.69L4.99 8.54L6.57 8.54L3.18 13.66ZM3.18 13.66L6.57 13.66L4.99 13.66L10.37 13.66L8.79 13.66L12.19 13.66L3.18 13.66ZM13.2 13.66L10.37 13.66L12.02 13.66L10.78 13.66L15.5 13.66L13.92 13.66L17.31 13.66L13.2 13.66ZM11.95 14.52L13.66 14.52L11.95 14.52Z" fill="#6C707E" fill-opacity="1.000000" fill-rule="nonzero"/>
		<path id="path" d="M6.83 14.52L2.88 14.52C2.61 14.52 2.41 14.39 2.28 14.15C2.15 13.91 2.16 13.67 2.31 13.44L4.99 9.39L4.66 9.39C4.39 9.39 4.19 9.27 4.05 9.03C3.91 8.78 3.93 8.55 4.1 8.32L7.11 3.99C7.25 3.79 7.44 3.69 7.68 3.69C7.93 3.69 8.12 3.79 8.26 3.99L10.25 6.85L12.23 3.99C12.37 3.79 12.56 3.69 12.81 3.69C13.05 3.69 13.24 3.79 13.38 3.99L16.39 8.32C16.56 8.55 16.58 8.78 16.44 9.03C16.3 9.27 16.1 9.39 15.83 9.39L15.5 9.39L18.18 13.44C18.33 13.67 18.34 13.91 18.21 14.15C18.08 14.39 17.88 14.52 17.61 14.52L13.66 14.52L11.95 14.52L8.54 14.52L8.54 17.24C8.54 17.44 8.47 17.61 8.34 17.74C8.21 17.87 8.04 17.93 7.85 17.93L7.45 17.93C7.28 17.93 7.13 17.87 7.01 17.75C6.89 17.63 6.83 17.48 6.83 17.31L6.83 14.52ZM13.66 14.52L13.66 17.24C13.66 17.44 13.6 17.61 13.47 17.74C13.33 17.87 13.17 17.93 12.97 17.93L12.58 17.93C12.4 17.93 12.25 17.87 12.13 17.75C12.01 17.63 11.95 17.48 11.95 17.31L11.95 14.52M3.18 13.66L6.57 13.66L4.99 13.66L10.37 13.66L13.2 13.66L17.31 13.66L13.92 8.54L15.5 8.54L12.81 4.69L10.78 7.59L11.29 8.32C11.44 8.55 11.45 8.78 11.32 9.03C11.19 9.27 10.99 9.39 10.72 9.39L10.37 9.39L13.2 13.66M12.19 13.66L8.79 8.54L10.37 8.54L7.68 4.69L4.99 8.54L6.57 8.54L3.18 13.66L12.19 13.66ZM10.37 13.66L8.79 13.66L12.19 13.66M10.37 13.66L12.02 13.66L10.78 13.66L15.5 13.66L13.92 13.66L17.31 13.66" stroke="#6C707E" stroke-opacity="1.000000" stroke-width="0.200000"/>
	</g>
</svg>
