<svg width="14.000000" height="14.000000" viewBox="0 0 14 14" fill="none" xmlns="http://www.w3.org/2000/svg" xmlns:xlink="http://www.w3.org/1999/xlink">
	<desc>
			Created with Pixso.
	</desc>
	<defs>
		<clipPath id="clip98_8">
			<rect id="rotate.svg" width="14.000000" height="14.000000" fill="white" fill-opacity="0"/>
		</clipPath>
	</defs>
	<g clip-path="url(#clip98_8)">
		<path id="path" d="M2.18 7C2.18 6.58 2.24 6.17 2.34 5.76C2.45 5.36 2.61 4.98 2.81 4.61C3.02 4.25 3.27 3.92 3.56 3.62C3.85 3.32 4.18 3.07 4.54 2.85C4.9 2.64 5.28 2.48 5.68 2.36C6.08 2.25 6.49 2.19 6.91 2.18C7.33 2.17 7.74 2.22 8.15 2.32C8.55 2.42 8.94 2.57 9.31 2.77C9.69 3 10 2.92 10.21 2.52C10.43 2.13 10.34 1.82 9.93 1.62C8.74 0.97 7.47 0.74 6.12 0.93C4.78 1.12 3.62 1.7 2.66 2.66C1.7 3.62 1.12 4.78 0.93 6.12C0.74 7.47 0.97 8.74 1.62 9.93C1.84 10.3 2.13 10.38 2.5 10.18C2.87 9.97 2.96 9.68 2.77 9.31C2.38 8.59 2.18 7.82 2.18 7ZM12.37 4.06C12.17 3.65 11.87 3.56 11.47 3.78C11.07 3.99 10.99 4.3 11.22 4.68C11.73 5.62 11.91 6.62 11.76 7.68C11.61 8.74 11.16 9.64 10.4 10.4C9.64 11.16 8.74 11.61 7.68 11.76C6.62 11.91 5.62 11.73 4.69 11.22C4.3 11.01 4 11.09 3.79 11.48C3.58 11.86 3.67 12.16 4.05 12.37C5.25 13.02 6.52 13.25 7.86 13.06C9.21 12.87 10.37 12.29 11.33 11.33C12.29 10.37 12.87 9.21 13.06 7.87C13.25 6.52 13.02 5.25 12.37 4.06Z" fill="#6C707E" fill-opacity="1.000000" fill-rule="evenodd"/>
		<path id="path" d="M8.85 8.85C9.36 8.34 9.62 7.72 9.62 7C9.62 6.27 9.36 5.65 8.85 5.14C8.34 4.63 7.72 4.37 7 4.37C6.27 4.37 5.65 4.63 5.14 5.14C4.63 5.65 4.37 6.27 4.37 7C4.37 7.72 4.63 8.34 5.14 8.85C5.65 9.36 6.27 9.62 7 9.62C7.72 9.62 8.34 9.36 8.85 8.85ZM7.92 7.92C8.18 7.67 8.31 7.36 8.31 7C8.31 6.63 8.18 6.32 7.92 6.07C7.67 5.81 7.36 5.68 7 5.68C6.63 5.68 6.32 5.81 6.07 6.07C5.81 6.32 5.68 6.63 5.68 7C5.68 7.36 5.81 7.67 6.07 7.92C6.32 8.18 6.63 8.31 7 8.31C7.36 8.31 7.67 8.18 7.92 7.92Z" fill="#50A5E6" fill-opacity="1.000000" fill-rule="evenodd"/>
		<path id="path" d="M2.42 6.39C2.45 6.2 2.49 6.01 2.54 5.81C2.59 5.62 2.65 5.43 2.73 5.25C2.8 5.06 2.89 4.88 2.99 4.71C3.09 4.54 3.2 4.37 3.31 4.21C3.43 4.05 3.56 3.9 3.7 3.76C3.85 3.62 3.99 3.49 4.15 3.36C4.31 3.24 4.47 3.13 4.64 3.03C4.81 2.92 4.99 2.83 5.17 2.76C5.36 2.68 5.54 2.61 5.74 2.56C5.93 2.5 6.12 2.46 6.32 2.43C6.52 2.4 6.72 2.38 6.92 2.38C7.12 2.38 7.31 2.39 7.51 2.41C7.71 2.43 7.9 2.47 8.1 2.51C8.29 2.56 8.48 2.62 8.67 2.69C8.85 2.77 9.03 2.85 9.21 2.95C9.43 3.07 9.63 3.12 9.82 3.09C9.84 3.08 9.86 3.08 9.88 3.07C9.9 3.07 9.91 3.06 9.93 3.06C10.11 2.99 10.27 2.84 10.39 2.62C10.51 2.39 10.55 2.18 10.51 1.99C10.51 1.98 10.5 1.96 10.5 1.94C10.49 1.92 10.49 1.9 10.48 1.89C10.41 1.71 10.26 1.56 10.03 1.44C9.41 1.11 8.78 0.88 8.12 0.76C7.47 0.64 6.79 0.63 6.1 0.73C5.4 0.83 4.76 1.03 4.16 1.33C3.56 1.63 3.02 2.02 2.52 2.52C2.02 3.02 1.63 3.56 1.33 4.16C1.03 4.76 0.83 5.4 0.73 6.1C0.63 6.79 0.64 7.47 0.76 8.12C0.88 8.78 1.11 9.41 1.45 10.03L1.45 10.03L1.45 10.04C1.57 10.24 1.72 10.38 1.9 10.44C1.91 10.45 1.93 10.46 1.95 10.46C1.97 10.47 1.99 10.47 2 10.47C2.19 10.51 2.39 10.47 2.6 10.35C2.81 10.24 2.95 10.09 3.02 9.92C3.03 9.9 3.03 9.88 3.04 9.87C3.04 9.85 3.05 9.83 3.05 9.81C3.09 9.63 3.06 9.43 2.95 9.21L2.95 9.21L2.95 9.21C2.76 8.86 2.62 8.51 2.52 8.14C2.43 7.77 2.38 7.39 2.38 7C2.38 6.79 2.4 6.59 2.42 6.39ZM9.93 1.62C9.34 1.29 8.72 1.07 8.09 0.96L8.09 0.96C7.45 0.84 6.8 0.83 6.12 0.93C5.45 1.03 4.83 1.22 4.25 1.51L4.25 1.51C3.67 1.8 3.14 2.18 2.66 2.66C2.18 3.14 1.8 3.67 1.51 4.25L1.51 4.25C1.22 4.83 1.03 5.45 0.93 6.12C0.83 6.8 0.84 7.45 0.96 8.09L0.96 8.09C1.07 8.72 1.29 9.34 1.62 9.93C1.84 10.3 2.13 10.38 2.5 10.18C2.87 9.97 2.96 9.68 2.77 9.31C2.57 8.94 2.43 8.57 2.33 8.19C2.23 7.8 2.18 7.41 2.18 7C2.18 6.79 2.2 6.58 2.22 6.37L2.22 6.37C2.25 6.17 2.29 5.96 2.34 5.76C2.4 5.56 2.46 5.36 2.54 5.17C2.62 4.98 2.71 4.79 2.81 4.61C2.92 4.43 3.03 4.26 3.16 4.09L3.16 4.09C3.28 3.93 3.42 3.77 3.56 3.62C3.71 3.47 3.86 3.33 4.03 3.21L4.03 3.21C4.19 3.08 4.36 2.96 4.54 2.85C4.72 2.75 4.91 2.65 5.1 2.57L5.1 2.57C5.29 2.49 5.48 2.42 5.68 2.36C6.08 2.25 6.49 2.19 6.91 2.18C7.33 2.17 7.74 2.22 8.15 2.32C8.35 2.37 8.55 2.43 8.74 2.51C8.93 2.58 9.12 2.67 9.31 2.77C9.5 2.89 9.67 2.92 9.82 2.88C9.98 2.84 10.11 2.72 10.21 2.52C10.32 2.32 10.35 2.15 10.31 2C10.26 1.85 10.14 1.72 9.93 1.62ZM12 3.48C11.81 3.44 11.6 3.48 11.37 3.6C11.15 3.72 11 3.88 10.93 4.06C10.93 4.08 10.92 4.09 10.92 4.11C10.91 4.13 10.91 4.15 10.9 4.17C10.87 4.36 10.92 4.56 11.04 4.78C11.29 5.23 11.46 5.7 11.54 6.17C11.63 6.65 11.64 7.14 11.56 7.65C11.49 8.16 11.35 8.63 11.13 9.06C10.91 9.5 10.62 9.9 10.26 10.26C9.9 10.62 9.5 10.91 9.06 11.13C8.63 11.35 8.16 11.49 7.65 11.56C7.14 11.64 6.65 11.63 6.17 11.54C5.69 11.46 5.23 11.29 4.78 11.04C4.56 10.92 4.36 10.88 4.17 10.92C4.16 10.92 4.14 10.93 4.12 10.93C4.1 10.94 4.08 10.94 4.07 10.95C3.89 11.02 3.74 11.16 3.62 11.38C3.5 11.6 3.46 11.8 3.5 11.99C3.5 12.01 3.5 12.03 3.51 12.04C3.51 12.06 3.52 12.08 3.53 12.1C3.6 12.28 3.74 12.42 3.96 12.54C4.57 12.88 5.21 13.11 5.87 13.23C6.52 13.35 7.2 13.36 7.89 13.26C8.59 13.16 9.23 12.96 9.83 12.66C10.43 12.36 10.97 11.97 11.47 11.47C11.97 10.97 12.36 10.43 12.66 9.83C12.96 9.23 13.16 8.59 13.26 7.89C13.36 7.19 13.35 6.51 13.23 5.85C13.11 5.2 12.88 4.57 12.55 3.96C12.43 3.73 12.28 3.58 12.1 3.51C12.09 3.5 12.07 3.5 12.05 3.49C12.03 3.49 12.01 3.48 12 3.48ZM12.37 4.06C12.27 3.85 12.14 3.73 11.99 3.68C11.84 3.64 11.67 3.67 11.47 3.78C11.07 3.99 10.99 4.3 11.22 4.68C11.73 5.62 11.91 6.62 11.76 7.68C11.69 8.21 11.53 8.7 11.31 9.15L11.31 9.15L11.31 9.15C11.08 9.61 10.78 10.02 10.4 10.4C10.02 10.78 9.61 11.08 9.15 11.31C8.7 11.53 8.21 11.69 7.68 11.76C7.15 11.84 6.64 11.83 6.14 11.74L6.14 11.74L6.14 11.74C5.64 11.65 5.15 11.47 4.69 11.22C4.49 11.11 4.32 11.08 4.17 11.12C4.03 11.17 3.9 11.29 3.79 11.48C3.69 11.67 3.66 11.84 3.7 11.99C3.74 12.14 3.86 12.26 4.05 12.37C5.25 13.02 6.52 13.25 7.86 13.06C8.54 12.96 9.16 12.77 9.74 12.48L9.74 12.48L9.74 12.48C10.32 12.19 10.85 11.81 11.33 11.33C11.81 10.85 12.19 10.32 12.48 9.74C12.77 9.16 12.96 8.54 13.06 7.87C13.25 6.52 13.02 5.25 12.37 4.06ZM8.08 9.61C8.41 9.48 8.72 9.27 8.99 8.99C9.27 8.72 9.48 8.41 9.61 8.08C9.75 7.75 9.82 7.39 9.82 7C9.82 6.6 9.75 6.24 9.61 5.91C9.48 5.58 9.27 5.27 8.99 5C8.72 4.72 8.41 4.51 8.08 4.38C7.75 4.24 7.39 4.17 7 4.17C6.6 4.17 6.24 4.24 5.91 4.38C5.58 4.51 5.27 4.72 5 5C4.72 5.27 4.51 5.58 4.38 5.91C4.24 6.24 4.17 6.6 4.17 7C4.17 7.39 4.24 7.75 4.38 8.08C4.51 8.41 4.72 8.72 5 8.99C5.27 9.27 5.58 9.48 5.91 9.61C6.24 9.75 6.6 9.82 7 9.82C7.39 9.82 7.75 9.75 8.08 9.61ZM8.85 8.85C9.36 8.34 9.62 7.72 9.62 7C9.62 6.27 9.36 5.65 8.85 5.14C8.59 4.88 8.31 4.69 8 4.56C7.69 4.43 7.36 4.37 7 4.37C6.63 4.37 6.3 4.43 5.99 4.56C5.68 4.69 5.4 4.88 5.14 5.14C4.88 5.4 4.69 5.68 4.56 5.99C4.43 6.3 4.37 6.63 4.37 7C4.37 7.36 4.43 7.69 4.56 8C4.69 8.31 4.88 8.59 5.14 8.85C5.4 9.11 5.68 9.3 5.99 9.43C6.3 9.56 6.63 9.62 7 9.62C7.36 9.62 7.69 9.56 8 9.43C8.31 9.3 8.59 9.11 8.85 8.85ZM7.92 7.92C8.05 7.79 8.15 7.65 8.21 7.5C8.28 7.34 8.31 7.18 8.31 7C8.31 6.63 8.18 6.32 7.92 6.07C7.79 5.94 7.65 5.84 7.5 5.78C7.34 5.71 7.18 5.68 7 5.68C6.81 5.68 6.65 5.71 6.49 5.78C6.34 5.84 6.2 5.94 6.07 6.07C5.81 6.32 5.68 6.63 5.68 7C5.68 7.18 5.71 7.34 5.78 7.5C5.84 7.65 5.94 7.79 6.07 7.92C6.2 8.05 6.34 8.15 6.49 8.21C6.65 8.28 6.81 8.31 7 8.31C7.18 8.31 7.34 8.28 7.5 8.21C7.65 8.15 7.79 8.05 7.92 7.92ZM8.03 7.42C7.97 7.55 7.89 7.67 7.78 7.78C7.67 7.89 7.55 7.97 7.42 8.03C7.29 8.08 7.15 8.11 7 8.11C6.84 8.11 6.7 8.08 6.57 8.03C6.44 7.97 6.32 7.89 6.21 7.78C6.1 7.67 6.02 7.55 5.96 7.42C5.91 7.29 5.88 7.15 5.88 7C5.88 6.84 5.91 6.7 5.96 6.57C6.02 6.44 6.1 6.32 6.21 6.21C6.32 6.1 6.44 6.02 6.57 5.96C6.7 5.91 6.84 5.88 7 5.88C7.15 5.88 7.29 5.91 7.42 5.96C7.55 6.02 7.67 6.1 7.78 6.21C7.89 6.32 7.97 6.44 8.03 6.57C8.08 6.7 8.11 6.84 8.11 7C8.11 7.15 8.08 7.29 8.03 7.42Z" fill="#6C707E" fill-opacity="1.000000" fill-rule="evenodd"/>
	</g>
</svg>
