<svg width="15.000000" height="15.000000" viewBox="0 0 15 15" fill="none" xmlns="http://www.w3.org/2000/svg">
	<desc>
			Created with Pixso.
	</desc>
	<defs>
		<clipPath id="clip151_6">
			<rect id="book_reader" width="15.000000" height="15.000000" fill="white" fill-opacity="0"/>
		</clipPath>
	</defs>
	<g clip-path="url(#clip151_6)">
		<circle id="circle" cx="7.600098" cy="2.000000" r="1.600000" fill="#AFB1B3" fill-opacity="1.000000"/>
		<path id="path" d="M11.46 4.37C10.61 4.37 9.84 4.6 9.13 5.05C8.41 5.5 7.88 6.11 7.52 6.87C7.16 6.11 6.62 5.5 5.91 5.05C5.2 4.6 4.42 4.37 3.58 4.37L1.87 4.37L1.87 10.62L3.58 10.62C4.42 10.62 5.2 10.85 5.91 11.3C6.62 11.75 7.16 12.36 7.52 13.12C7.84 12.36 8.34 11.76 9.02 11.3C9.7 10.84 10.45 10.61 11.27 10.6L13.14 10.6L13.12 4.37L11.46 4.37Z" fill="#AFB1B3" fill-opacity="1.000000" fill-rule="nonzero"/>
	</g>
</svg>
