<svg width="15.000000" height="15.000000" viewBox="0 0 15 15" fill="none" xmlns="http://www.w3.org/2000/svg" xmlns:xlink="http://www.w3.org/1999/xlink">
	<desc>
			Created with Pixso.
	</desc>
	<defs>
		<clipPath id="clip80_15">
			<rect id="material-symbols--package-2.svg" width="15.000000" height="15.000000" fill="white" fill-opacity="0"/>
		</clipPath>
	</defs>
	<g clip-path="url(#clip80_15)">
		<path id="path" d="M8.12 13.57L12.5 11.06C12.69 10.94 12.85 10.79 12.96 10.6C13.07 10.42 13.12 10.21 13.12 9.98L13.12 4.96L8.12 7.85L8.12 13.57ZM10.6 4.98L12.45 3.9L8.12 1.42C7.92 1.3 7.71 1.25 7.5 1.25C7.28 1.25 7.07 1.3 6.87 1.42L5.64 2.12L10.6 4.98Z" fill="#6C707E" fill-opacity="1.000000" fill-rule="nonzero"/>
		<path id="path" d="M9.35 5.71L7.5 6.78L2.53 3.92L4.4 2.84L9.35 5.71Z" fill="#389FD6" fill-opacity="1.000000" fill-rule="evenodd"/>
		<path id="path" d="M6.87 7.85L6.87 13.57L2.5 11.06C2.3 10.94 2.14 10.79 2.03 10.6C1.92 10.42 1.87 10.21 1.87 9.98L1.87 4.96L6.87 7.85Z" fill="#389FD6" fill-opacity="1.000000" fill-rule="evenodd"/>
	</g>
</svg>
