<svg width="15.000000" height="15.000000" viewBox="0 0 16 16" fill="none" xmlns="http://www.w3.org/2000/svg" xmlns:xlink="http://www.w3.org/1999/xlink">
	<desc>
			Created with Pixso.
	</desc>
	<defs>
		<clipPath id="clip76_13">
			<rect id="material-symbols--package-2.svg" width="16.000000" height="16.000000" fill="white" fill-opacity="0"/>
		</clipPath>
	</defs>
	<g clip-path="url(#clip76_13)">
		<path id="path" d="M7.33 14.48L7.33 8.38L2 5.3L2 10.65C2 10.89 2.05 11.11 2.17 11.31C2.29 11.51 2.45 11.67 2.66 11.8L7.33 14.48ZM8.66 14.48L13.33 11.8C13.54 11.67 13.7 11.51 13.82 11.31C13.94 11.11 14 10.89 14 10.65L14 5.3L8.66 8.38L8.66 14.48ZM11.31 5.31L13.28 4.16L8.66 1.51C8.45 1.39 8.23 1.33 8 1.33C7.76 1.33 7.54 1.39 7.33 1.51L6.01 2.26L11.31 5.31ZM8 7.23L9.98 6.1L4.7 3.03L2.7 4.18L8 7.23Z" fill="#C4C4C4" fill-opacity="1.000000" fill-rule="nonzero"/>
	</g>
</svg>
