<svg width="16.000000" height="16.000000" viewBox="0 0 16 16" fill="none" xmlns="http://www.w3.org/2000/svg">
	<desc>
			Created with Pixso.
	</desc>
	<defs>
		<clipPath id="clip85_5">
			<rect id="donate" width="16.000000" height="16.000000" fill="white" fill-opacity="0"/>
		</clipPath>
	</defs>
	<g clip-path="url(#clip85_5)">
		<path id="path" d="M9.33 1.8C9.98 1.35 10.55 1.33 10.66 1.33C11.21 1.33 11.69 1.52 12.08 1.91C12.45 2.29 12.66 2.79 12.66 3.33C12.66 3.86 12.45 4.36 12.08 4.74L9.81 7.12C9.68 7.26 9.52 7.33 9.33 7.33C9.14 7.33 8.98 7.26 8.85 7.12L6.57 4.73C6.2 4.36 6 3.86 6 3.33C6 2.79 6.2 2.29 6.58 1.91C6.96 1.54 7.48 1.33 8.02 1.33C8.15 1.33 8.69 1.37 9.33 1.8ZM11.12 3.81C11.26 3.67 11.33 3.51 11.33 3.33C11.33 3.15 11.26 2.98 11.13 2.86C11 2.73 10.85 2.66 10.67 2.66C10.62 2.67 10.32 2.7 9.96 2.98C9.91 3.03 9.86 3.08 9.8 3.13L9.33 3.6L8.86 3.13C8.8 3.08 8.75 3.03 8.69 2.98C8.32 2.68 8 2.66 7.98 2.66C7.8 2.66 7.65 2.73 7.52 2.86C7.4 2.98 7.33 3.15 7.33 3.33C7.33 3.51 7.4 3.67 7.52 3.8L9.33 5.69L11.12 3.81Z" fill="#FF5076" fill-opacity="1.000000" fill-rule="evenodd"/>
		<path id="path" d="M9.08 14L2.66 14C1.93 14 1.33 13.4 1.33 12.66L1.33 8.66C1.33 7.93 1.93 7.33 2.66 7.33L6.09 7.33C7.19 7.32 7.99 7.82 8.48 8.8L8.89 9.62L11.01 7.93C11.58 7.48 12.21 7.37 12.89 7.59L14.21 8.03C14.43 8.1 14.57 8.26 14.64 8.48C14.7 8.71 14.66 8.92 14.5 9.1L11.1 13.06C10.57 13.68 9.89 14 9.08 14ZM6.09 8.66L2.66 8.66L2.66 12.66L9.08 12.66C9.48 12.66 9.82 12.51 10.09 12.2L12.84 8.99L12.47 8.86C12.26 8.79 12.02 8.84 11.85 8.97L9.08 11.19C9.06 11.21 8.99 11.24 8.97 11.26C8.87 11.3 8.77 11.33 8.67 11.33L4.66 11.33L4.66 10L7.58 10L7.29 9.4C7.06 8.94 6.6 8.66 6.09 8.66Z" fill="#6E6E6E" fill-opacity="1.000000" fill-rule="evenodd"/>
	</g>
</svg>
