<svg width="16.000000" height="16.000000" viewBox="0 0 16 16" fill="none" xmlns="http://www.w3.org/2000/svg" xmlns:xlink="http://www.w3.org/1999/xlink">
	<desc>
			Created with Pixso.
	</desc>
	<defs>
		<clipPath id="clip147_1">
			<rect id="esc" width="16.000000" height="16.000000" fill="white" fill-opacity="0"/>
		</clipPath>
	</defs>
	<g clip-path="url(#clip147_1)">
		<path id="path" d="M8.29 13.8C11.33 13.8 13.8 11.33 13.8 8.29C13.8 5.41 11.49 3 8.68 2.8C8.35 2.77 8.11 2.97 8.11 3.25C8.11 3.5 8.29 3.71 8.61 3.73C11.03 3.91 12.85 5.93 12.85 8.29C12.85 10.85 10.84 12.86 8.29 12.86C5.93 12.86 3.9 11.04 3.73 8.61C3.7 8.29 3.5 8.11 3.25 8.11C2.96 8.11 2.77 8.36 2.8 8.68C3 11.5 5.4 13.8 8.29 13.8ZM7.88 8.5C8.17 8.5 8.38 8.29 8.38 8.01C8.38 7.88 8.32 7.75 8.22 7.65L5.33 4.76L4.26 3.81C4.88 3.89 5.65 3.88 5.93 3.88C6.18 3.88 6.37 3.68 6.37 3.43C6.38 3.4 6.37 3.37 6.37 3.34C6.36 3.31 6.35 3.29 6.34 3.26C6.33 3.23 6.32 3.2 6.3 3.18C6.28 3.16 6.26 3.13 6.24 3.11C6.22 3.09 6.2 3.07 6.18 3.06C6.15 3.04 6.13 3.03 6.1 3.01C6.07 3 6.04 2.99 6.01 2.99C5.98 2.98 5.96 2.98 5.93 2.98L3.43 2.98C3.07 2.98 2.87 3.17 2.87 3.54L2.87 6.03C2.87 6.28 3.07 6.48 3.31 6.48C3.34 6.48 3.37 6.48 3.4 6.47C3.43 6.47 3.46 6.46 3.49 6.45C3.51 6.43 3.54 6.42 3.56 6.4C3.59 6.39 3.61 6.37 3.63 6.35C3.65 6.33 3.67 6.3 3.69 6.28C3.7 6.26 3.72 6.23 3.73 6.2C3.74 6.18 3.75 6.15 3.75 6.12C3.76 6.09 3.76 6.06 3.76 6.03C3.76 5.77 3.76 4.94 3.71 4.37L4.64 5.44L7.54 8.34C7.65 8.44 7.76 8.5 7.88 8.5Z" fill="#6E6E6E" fill-opacity="1.000000" fill-rule="nonzero"/>
		<path id="path" d="M13.8 8.29C13.8 5.41 11.49 3 8.68 2.8C8.35 2.77 8.11 2.97 8.11 3.25C8.11 3.5 8.29 3.71 8.61 3.73C11.03 3.91 12.85 5.93 12.85 8.29C12.85 10.85 10.84 12.86 8.29 12.86C5.93 12.86 3.9 11.04 3.73 8.61C3.7 8.29 3.5 8.11 3.25 8.11C2.96 8.11 2.77 8.36 2.8 8.68C3 11.5 5.4 13.8 8.29 13.8C11.33 13.8 13.8 11.33 13.8 8.29ZM8.38 8.01C8.38 7.88 8.32 7.75 8.22 7.65L5.33 4.76L4.26 3.81C4.88 3.89 5.65 3.88 5.93 3.88C6.18 3.88 6.37 3.68 6.37 3.43C6.38 3.4 6.37 3.37 6.37 3.34C6.36 3.31 6.35 3.29 6.34 3.26C6.33 3.23 6.32 3.2 6.3 3.18C6.28 3.16 6.26 3.13 6.24 3.11C6.22 3.09 6.2 3.07 6.18 3.06C6.15 3.04 6.13 3.03 6.1 3.01C6.07 3 6.04 2.99 6.01 2.99C5.98 2.98 5.96 2.98 5.93 2.98L3.43 2.98C3.07 2.98 2.87 3.17 2.87 3.54L2.87 6.03C2.87 6.28 3.07 6.48 3.31 6.48C3.34 6.48 3.37 6.48 3.4 6.47C3.43 6.47 3.46 6.46 3.49 6.45C3.51 6.43 3.54 6.42 3.56 6.4C3.59 6.39 3.61 6.37 3.63 6.35C3.65 6.33 3.67 6.3 3.69 6.28C3.7 6.26 3.72 6.23 3.73 6.2C3.74 6.18 3.75 6.15 3.75 6.12C3.76 6.09 3.76 6.06 3.76 6.03C3.76 5.77 3.76 4.94 3.71 4.37L4.64 5.44L7.54 8.34C7.65 8.44 7.76 8.5 7.88 8.5C8.17 8.5 8.38 8.29 8.38 8.01Z" stroke="#6E6E6E" stroke-opacity="1.000000" stroke-width="0.800000"/>
	</g>
</svg>
