<svg width="16.000000" height="16.000000" viewBox="0 0 16 16" fill="none" xmlns="http://www.w3.org/2000/svg">
	<desc>
			Created with Pixso.
	</desc>
	<defs>
		<clipPath id="clip147_1">
			<rect id="escape.svg" width="16.000000" height="16.000000" fill="white" fill-opacity="0"/>
		</clipPath>
	</defs>
	<g clip-path="url(#clip147_1)">
		<path id="path" d="M7.99 14C11.3 14 14 11.3 14 7.99C14 4.85 11.48 2.22 8.41 2C8.06 1.97 7.79 2.19 7.79 2.49C7.79 2.77 7.99 2.99 8.34 3.02C10.98 3.21 12.97 5.42 12.97 7.99C12.97 10.78 10.78 12.97 7.99 12.97C5.41 12.97 3.2 10.99 3.01 8.34C2.98 7.99 2.76 7.79 2.49 7.79C2.18 7.79 1.97 8.07 2 8.41C2.22 11.49 4.84 14 7.99 14ZM7.55 8.22C7.86 8.22 8.08 7.99 8.08 7.68C8.08 7.55 8.02 7.4 7.91 7.29L4.76 4.14L3.6 3.1C4.27 3.19 5.11 3.18 5.41 3.18C5.68 3.18 5.9 2.96 5.9 2.69C5.9 2.66 5.9 2.62 5.89 2.59C5.89 2.56 5.88 2.53 5.86 2.5C5.85 2.47 5.84 2.44 5.82 2.41C5.8 2.39 5.78 2.36 5.76 2.34C5.73 2.32 5.71 2.3 5.68 2.28C5.66 2.26 5.63 2.25 5.6 2.23C5.57 2.22 5.54 2.21 5.51 2.21C5.47 2.2 5.44 2.2 5.41 2.2L2.69 2.2C2.29 2.2 2.08 2.41 2.08 2.81L2.08 5.53C2.08 5.8 2.29 6.02 2.56 6.02C2.59 6.02 2.62 6.01 2.66 6.01C2.69 6 2.72 5.99 2.75 5.98C2.78 5.97 2.81 5.95 2.83 5.93C2.86 5.91 2.88 5.89 2.91 5.87C2.93 5.85 2.95 5.82 2.97 5.8C2.99 5.77 3 5.74 3.01 5.71C3.03 5.68 3.04 5.65 3.04 5.62C3.05 5.59 3.05 5.56 3.05 5.53C3.05 5.24 3.05 4.33 2.99 3.71L4.01 4.88L7.17 8.04C7.29 8.16 7.41 8.22 7.55 8.22Z" fill="#AFB1B3" fill-opacity="1.000000" fill-rule="nonzero"/>
		<path id="path" d="M14 7.99C14 4.85 11.48 2.22 8.41 2C8.06 1.97 7.79 2.19 7.79 2.49C7.79 2.77 7.99 2.99 8.34 3.02C10.98 3.21 12.97 5.42 12.97 7.99C12.97 10.78 10.78 12.97 7.99 12.97C5.41 12.97 3.2 10.99 3.01 8.34C2.98 7.99 2.76 7.79 2.49 7.79C2.18 7.79 1.97 8.07 2 8.41C2.22 11.49 4.84 14 7.99 14C11.3 14 14 11.3 14 7.99ZM8.08 7.68C8.08 7.55 8.02 7.4 7.91 7.29L4.76 4.14L3.6 3.1C4.27 3.19 5.11 3.18 5.41 3.18C5.68 3.18 5.9 2.96 5.9 2.69C5.9 2.66 5.9 2.62 5.89 2.59C5.89 2.56 5.88 2.53 5.86 2.5C5.85 2.47 5.84 2.44 5.82 2.41C5.8 2.39 5.78 2.36 5.76 2.34C5.73 2.32 5.71 2.3 5.68 2.28C5.66 2.26 5.63 2.25 5.6 2.23C5.57 2.22 5.54 2.21 5.51 2.21C5.47 2.2 5.44 2.2 5.41 2.2L2.69 2.2C2.29 2.2 2.08 2.41 2.08 2.81L2.08 5.53C2.08 5.8 2.29 6.02 2.56 6.02C2.59 6.02 2.62 6.01 2.66 6.01C2.69 6 2.72 5.99 2.75 5.98C2.78 5.97 2.81 5.95 2.83 5.93C2.86 5.91 2.88 5.89 2.91 5.87C2.93 5.85 2.95 5.82 2.97 5.8C2.99 5.77 3 5.74 3.01 5.71C3.03 5.68 3.04 5.65 3.04 5.62C3.05 5.59 3.05 5.56 3.05 5.53C3.05 5.24 3.05 4.33 2.99 3.71L4.01 4.88L7.17 8.04C7.29 8.16 7.41 8.22 7.55 8.22C7.86 8.22 8.08 7.99 8.08 7.68Z" stroke="#AFB1B3" stroke-opacity="1.000000" stroke-width="0.800000"/>
	</g>
</svg>
