<svg width="16.000000" height="16.000000" viewBox="0 0 16 16" fill="none" xmlns="http://www.w3.org/2000/svg">
	<desc>
			Created with Pixso.
	</desc>
	<defs>
		<clipPath id="clip145_8">
			<rect id="escapee.svg" width="16.000000" height="16.000000" fill="white" fill-opacity="0"/>
		</clipPath>
	</defs>
	<g clip-path="url(#clip145_8)">
		<path id="path" d="M8 15.3C3.96 15.3 0.69 12.02 0.69 7.99C0.69 3.96 3.97 0.69 8 0.69C12.03 0.7 15.3 3.97 15.31 8L15.31 8C15.3 12.03 12.03 15.3 8 15.3ZM12.83 4.27L12.86 4.26C13.05 4.08 13.07 3.78 12.89 3.59L12.86 3.56C12.68 3.36 12.38 3.35 12.18 3.53L12.15 3.53C11.02 2.47 9.52 1.89 7.97 1.89C4.6 1.89 1.87 4.63 1.88 8.01C1.89 11.39 4.63 14.11 8 14.1C9.35 14.1 10.67 13.66 11.73 12.83C14.4 10.77 14.89 6.93 12.83 4.27ZM7.22 8.03C7.22 7.58 7.59 7.22 8.04 7.22C8.49 7.22 8.86 7.58 8.86 8.03C8.86 8.48 8.49 8.85 8.04 8.85C7.59 8.85 7.22 8.49 7.22 8.03ZM8 12.43C5.56 12.44 3.56 10.46 3.56 8.01C3.55 5.56 5.53 3.57 7.98 3.56C9.06 3.56 10.1 3.95 10.91 4.66L8.84 6.54C8.02 6.1 6.99 6.41 6.54 7.23C6.1 8.05 6.41 9.08 7.23 9.53C8.06 9.97 9.08 9.66 9.53 8.85C9.67 8.6 9.73 8.32 9.73 8.04C9.73 7.77 9.67 7.51 9.55 7.27L11.59 5.4C12.14 6.16 12.43 7.06 12.43 8C12.44 10.44 10.45 12.43 8 12.43Z" fill="#C75450" fill-opacity="1.000000" fill-rule="nonzero"/>
	</g>
</svg>
