<svg width="16.000000" height="16.000000" viewBox="0 0 16 16" fill="none" xmlns="http://www.w3.org/2000/svg">
	<desc>
			Created with Pixso.
	</desc>
	<defs>
		<clipPath id="clip132_2">
			<rect id="extract" width="16.000000" height="16.000000" fill="white" fill-opacity="0"/>
		</clipPath>
	</defs>
	<g clip-path="url(#clip132_2)">
		<path id="path" d="M8 14C7.16 14 6.38 13.84 5.65 13.52C4.93 13.2 4.29 12.78 3.75 12.24C3.21 11.7 2.79 11.06 2.47 10.34C2.15 9.61 2 8.83 2 8C1.99 7.16 2.15 6.38 2.47 5.65C2.79 4.93 3.22 4.29 3.75 3.75C4.29 3.21 4.92 2.79 5.65 2.47C6.38 2.15 7.16 2 8 2L8 3.33C6.69 3.33 5.59 3.78 4.69 4.69C3.78 5.59 3.33 6.7 3.33 8C3.33 9.29 3.78 10.4 4.69 11.3C5.59 12.21 6.7 12.66 8 12.66L8 14ZM10.66 11.33L9.73 10.38L11.45 8.66L6 8.66L6 7.33L11.45 7.33L9.73 5.6L10.66 4.66L14 8L10.66 11.33Z" fill="#6E6E6E" fill-opacity="1.000000" fill-rule="nonzero"/>
		<path id="path" d="M5.65 13.52C4.93 13.2 4.29 12.78 3.75 12.24C3.21 11.7 2.79 11.06 2.47 10.34C2.15 9.61 2 8.83 2 8C1.99 7.16 2.15 6.38 2.47 5.65C2.79 4.93 3.22 4.29 3.75 3.75C4.29 3.21 4.92 2.79 5.65 2.47C6.38 2.15 7.16 2 8 2L8 3.33C6.69 3.33 5.59 3.78 4.69 4.69C3.78 5.59 3.33 6.7 3.33 8C3.33 9.29 3.78 10.4 4.69 11.3C5.59 12.21 6.7 12.66 8 12.66L8 14C7.16 14 6.38 13.84 5.65 13.52ZM9.73 10.38L11.45 8.66L6 8.66L6 7.33L11.45 7.33L9.73 5.6L10.66 4.66L14 8L10.66 11.33L9.73 10.38Z" stroke="#6E6E6E" stroke-opacity="1.000000" stroke-width="0.700000"/>
	</g>
</svg>
