<svg width="21.000000" height="21.000000" viewBox="0 0 21 21" fill="none" xmlns="http://www.w3.org/2000/svg" xmlns:xlink="http://www.w3.org/1999/xlink">
	<desc>
			Created with Pixso.
	</desc>
	<defs>
		<clipPath id="clip106_29">
			<rect id="svg" width="21.000000" height="21.000000" fill="white" fill-opacity="0"/>
		</clipPath>
	</defs>
	<g clip-path="url(#clip106_29)">
		<path id="path" d="M18.07 12.74C18.07 12.74 16.4 14.54 16.4 15.65C16.4 16.11 16.56 16.51 16.89 16.83C17.21 17.16 17.61 17.32 18.07 17.32C18.53 17.32 18.92 17.16 19.25 16.83C19.57 16.51 19.73 16.11 19.73 15.65C19.73 14.54 18.07 12.74 18.07 12.74ZM6.58 11.49L10.57 7.49L14.56 11.49L6.58 11.49ZM16.03 10.6L8.58 3.15L7.41 4.33L9.39 6.31L5.1 10.6C4.61 11.07 4.61 11.88 5.1 12.37L9.68 16.95C9.93 17.19 10.25 17.32 10.57 17.32C10.88 17.32 11.21 17.19 11.45 16.95L16.03 12.37C16.53 11.88 16.53 11.07 16.03 10.6Z" fill="#6C707E" fill-opacity="1.000000" fill-rule="nonzero"/>
	</g>
</svg>
