<svg width="15.000000" height="15.000000" viewBox="0 0 15 15" fill="none" xmlns="http://www.w3.org/2000/svg">
	<desc>
			Created with Pixso.
	</desc>
	<defs>
		<clipPath id="clip161_1">
			<rect id="group.svg" width="15.000000" height="15.000000" fill="white" fill-opacity="0"/>
		</clipPath>
	</defs>
	<g clip-path="url(#clip161_1)">
		<path id="path" d="M5.62 3.75C5.62 4.13 5.48 4.46 5.21 4.74C4.93 5.01 4.6 5.15 4.21 5.15C3.83 5.15 3.49 5.01 3.22 4.74C2.94 4.46 2.81 4.13 2.81 3.75C2.81 3.36 2.94 3.03 3.22 2.75C3.49 2.48 3.83 2.34 4.21 2.34C4.6 2.34 4.93 2.48 5.21 2.75C5.48 3.03 5.62 3.36 5.62 3.75ZM7.03 3.75C7.03 4.52 6.75 5.18 6.2 5.73C5.65 6.28 4.99 6.56 4.21 6.56C3.44 6.56 2.77 6.28 2.22 5.73C1.68 5.18 1.4 4.52 1.4 3.75C1.4 2.97 1.68 2.31 2.22 1.76C2.77 1.21 3.44 0.93 4.21 0.93C4.99 0.93 5.65 1.21 6.2 1.76C6.75 2.31 7.03 2.97 7.03 3.75ZM10.78 8.9C11.16 8.9 11.5 8.76 11.77 8.49C12.05 8.21 12.18 7.88 12.18 7.5C12.18 7.11 12.05 6.78 11.77 6.5C11.5 6.23 11.16 6.09 10.78 6.09C10.39 6.09 10.06 6.23 9.78 6.5C9.51 6.78 9.37 7.11 9.37 7.5C9.37 7.88 9.51 8.21 9.78 8.49C10.06 8.76 10.39 8.9 10.78 8.9ZM10.78 10.31C11.55 10.31 12.22 10.03 12.77 9.48C13.31 8.93 13.59 8.27 13.59 7.5C13.59 6.72 13.31 6.06 12.77 5.51C12.22 4.96 11.55 4.68 10.78 4.68C10 4.68 9.34 4.96 8.79 5.51C8.24 6.06 7.96 6.72 7.96 7.5C7.96 8.27 8.24 8.93 8.79 9.48C9.34 10.03 10 10.31 10.78 10.31ZM4.21 12.65C4.6 12.65 4.93 12.51 5.21 12.24C5.48 11.96 5.62 11.63 5.62 11.25C5.62 10.86 5.48 10.53 5.21 10.25C4.93 9.98 4.6 9.84 4.21 9.84C3.83 9.84 3.49 9.98 3.22 10.25C2.94 10.53 2.81 10.86 2.81 11.25C2.81 11.63 2.94 11.96 3.22 12.24C3.49 12.51 3.83 12.65 4.21 12.65ZM4.21 14.06C4.99 14.06 5.65 13.78 6.2 13.23C6.75 12.68 7.03 12.02 7.03 11.25C7.03 10.47 6.75 9.81 6.2 9.26C5.65 8.71 4.99 8.43 4.21 8.43C3.44 8.43 2.77 8.71 2.22 9.26C1.68 9.81 1.4 10.47 1.4 11.25C1.4 12.02 1.68 12.68 2.22 13.23C2.77 13.78 3.44 14.06 4.21 14.06Z" fill="#AFB1B3" fill-opacity="1.000000" fill-rule="evenodd"/>
	</g>
</svg>
