<svg width="16.000000" height="16.000000" viewBox="0 0 16 16" fill="none" xmlns="http://www.w3.org/2000/svg" xmlns:xlink="http://www.w3.org/1999/xlink">
	<desc>
			Created with Pixso.
	</desc>
	<defs>
		<clipPath id="clip86_22">
			<rect id="json.svg" width="16.000000" height="16.000000" fill="white" fill-opacity="0"/>
		</clipPath>
	</defs>
	<g clip-path="url(#clip86_22)">
		<path id="path" d="M5.53 13C3.52 12.62 2.96 11.87 2.96 10.68C2.96 10.51 2.99 10.07 2.99 9.88C2.99 8.96 2.64 8.67 1.78 8.67L1.29 8.67L1.29 7.32L1.78 7.32C2.64 7.32 2.99 7.03 2.99 6.11C2.99 5.92 2.96 5.48 2.96 5.31C2.96 4.12 3.52 3.37 5.53 3L5.83 4.17C4.66 4.53 4.49 4.85 4.49 5.57C4.49 5.8 4.52 6.18 4.52 6.43C4.52 7.28 4.11 7.74 3.38 8C4.11 8.25 4.52 8.71 4.52 9.56C4.52 9.81 4.49 10.19 4.49 10.42C4.49 11.14 4.66 11.46 5.83 11.82L5.53 13Z" fill="#6E6E6E" fill-opacity="1.000000" fill-rule="evenodd"/>
		<path id="path" d="M2.96 10.68C2.96 10.51 2.99 10.07 2.99 9.88C2.99 8.96 2.64 8.67 1.78 8.67L1.29 8.67L1.29 7.32L1.78 7.32C2.64 7.32 2.99 7.03 2.99 6.11C2.99 5.92 2.96 5.48 2.96 5.31C2.96 4.12 3.52 3.37 5.53 3L5.83 4.17C4.66 4.53 4.49 4.85 4.49 5.57C4.49 5.8 4.52 6.18 4.52 6.43C4.52 7.28 4.11 7.74 3.38 8C4.11 8.25 4.52 8.71 4.52 9.56C4.52 9.81 4.49 10.19 4.49 10.42C4.49 11.14 4.66 11.46 5.83 11.82L5.53 13C3.52 12.62 2.96 11.87 2.96 10.68Z" stroke="#6E6E6E" stroke-opacity="1.000000" stroke-width="0.400000"/>
		<path id="path" d="M10.46 13C12.48 12.62 13.04 11.87 13.04 10.68C13.04 10.51 13 10.07 13 9.88C13 8.96 13.36 8.67 14.21 8.67L14.7 8.67L14.7 7.32L14.21 7.32C13.36 7.32 13 7.03 13 6.11C13 5.92 13.04 5.48 13.04 5.31C13.04 4.12 12.48 3.37 10.46 3L10.17 4.17C11.33 4.53 11.51 4.85 11.51 5.57C11.51 5.8 11.47 6.18 11.47 6.43C11.47 7.28 11.88 7.74 12.62 8C11.88 8.25 11.47 8.71 11.47 9.56C11.47 9.81 11.51 10.19 11.51 10.42C11.51 11.14 11.33 11.46 10.17 11.82L10.46 13Z" fill="#6E6E6E" fill-opacity="1.000000" fill-rule="evenodd"/>
		<path id="path" d="M13.04 10.68C13.04 10.51 13 10.07 13 9.88C13 8.96 13.36 8.67 14.21 8.67L14.7 8.67L14.7 7.32L14.21 7.32C13.36 7.32 13 7.03 13 6.11C13 5.92 13.04 5.48 13.04 5.31C13.04 4.12 12.48 3.37 10.46 3L10.17 4.17C11.33 4.53 11.51 4.85 11.51 5.57C11.51 5.8 11.47 6.18 11.47 6.43C11.47 7.28 11.88 7.74 12.62 8C11.88 8.25 11.47 8.71 11.47 9.56C11.47 9.81 11.51 10.19 11.51 10.42C11.51 11.14 11.33 11.46 10.17 11.82L10.46 13C12.48 12.62 13.04 11.87 13.04 10.68Z" stroke="#6E6E6E" stroke-opacity="1.000000" stroke-width="0.400000"/>
	</g>
</svg>
