<svg width="16.000000" height="16.000000" viewBox="0 0 16 16" fill="none" xmlns="http://www.w3.org/2000/svg" xmlns:xlink="http://www.w3.org/1999/xlink">
	<desc>
			Created with Pixso.
	</desc>
	<defs>
		<clipPath id="clip106_33">
			<rect id="minify" width="16.000000" height="16.000000" fill="white" fill-opacity="0"/>
		</clipPath>
	</defs>
	<g clip-path="url(#clip106_33)">
		<path id="path" d="M2.75 5.75C3.2 5.75 3.5 5.44 3.5 5L3.5 3.5L5 3.5C5.45 3.5 5.75 3.19 5.75 2.75C5.75 2.3 5.45 2 5 2L2.75 2C2.29 2 2 2.3 2 2.75L2 5C2 5.44 2.29 5.75 2.75 5.75ZM13.25 10.25C12.8 10.25 12.5 10.55 12.5 11L12.5 12.5L11 12.5C10.55 12.5 10.25 12.8 10.25 13.25C10.25 13.7 10.55 14 11 14L13.25 14C13.7 14 14 13.7 14 13.25L14 11C14 10.55 13.7 10.25 13.25 10.25ZM13.25 7.25C13.25 6.8 12.95 6.5 12.5 6.5L10.55 6.5L13.77 3.27C14.07 2.97 14.07 2.52 13.77 2.22C13.47 1.92 13.02 1.92 12.72 2.22L9.5 5.44L9.5 3.5C9.5 3.05 9.2 2.75 8.75 2.75C8.29 2.75 8 3.05 8 3.5L8 7.25C8 7.69 8.29 8 8.75 8L12.5 8C12.95 8 13.25 7.69 13.25 7.25ZM6.5 8.75L2.75 8.75C2.29 8.75 2 9.05 2 9.5L2 13.25C2 13.7 2.29 14 2.75 14L6.5 14C6.95 14 7.25 13.7 7.25 13.25L7.25 9.5C7.25 9.05 6.95 8.75 6.5 8.75ZM5.75 12.5L3.5 12.5L3.5 10.25L5.75 10.25L5.75 12.5Z" fill="#CED0D6" fill-opacity="1.000000" fill-rule="nonzero"/>
		<path id="path" d="M3.5 5L3.5 3.5L5 3.5C5.45 3.5 5.75 3.19 5.75 2.75C5.75 2.3 5.45 2 5 2L2.75 2C2.29 2 2 2.3 2 2.75L2 5C2 5.44 2.29 5.75 2.75 5.75C3.2 5.75 3.5 5.44 3.5 5ZM12.5 11L12.5 12.5L11 12.5C10.55 12.5 10.25 12.8 10.25 13.25C10.25 13.7 10.55 14 11 14L13.25 14C13.7 14 14 13.7 14 13.25L14 11C14 10.55 13.7 10.25 13.25 10.25C12.8 10.25 12.5 10.55 12.5 11ZM12.5 6.5L10.55 6.5L13.77 3.27C14.07 2.97 14.07 2.52 13.77 2.22C13.47 1.92 13.02 1.92 12.72 2.22L9.5 5.44L9.5 3.5C9.5 3.05 9.2 2.75 8.75 2.75C8.29 2.75 8 3.05 8 3.5L8 7.25C8 7.69 8.29 8 8.75 8L12.5 8C12.95 8 13.25 7.69 13.25 7.25C13.25 6.8 12.95 6.5 12.5 6.5ZM2.75 8.75C2.29 8.75 2 9.05 2 9.5L2 13.25C2 13.7 2.29 14 2.75 14L6.5 14C6.95 14 7.25 13.7 7.25 13.25L7.25 9.5C7.25 9.05 6.95 8.75 6.5 8.75L2.75 8.75ZM3.5 12.5L3.5 10.25L5.75 10.25L5.75 12.5L3.5 12.5Z" stroke="#CED0D6" stroke-opacity="1.000000" stroke-width="0.400000"/>
	</g>
</svg>
