<svg width="16.000000" height="16.000000" viewBox="0 0 16 16" fill="none" xmlns="http://www.w3.org/2000/svg" xmlns:xlink="http://www.w3.org/1999/xlink">
	<desc>
			Created with Pixso.
	</desc>
	<defs>
		<clipPath id="clip87_17">
			<rect id="tabler--window-minimize (1).svg" width="16.000000" height="16.000000" fill="white" fill-opacity="0"/>
		</clipPath>
	</defs>
	<g clip-path="url(#clip87_17)">
		<path id="path" d="M2 11.33C2 10.88 2.22 10.66 2.66 10.66L4.66 10.66C5.11 10.66 5.33 10.88 5.33 11.33L5.33 13.33C5.33 13.77 5.11 14 4.66 14L2.66 14C2.22 14 2 13.77 2 13.33L2 11.33ZM3.34 7.98L3.36 8C3.36 8.39 3.05 8.7 2.66 8.7C2.27 8.7 1.96 8.39 1.96 8L1.98 7.98L3.34 7.98ZM8.02 14.01L8 14.03C7.6 14.03 7.29 13.72 7.29 13.33C7.29 12.94 7.6 12.63 8 12.63L8.02 12.65L8.02 14.01Z" fill="#000000" fill-opacity="0" fill-rule="nonzero"/>
		<path id="path" d="M2.66 10.66L4.66 10.66C5.11 10.66 5.33 10.88 5.33 11.33L5.33 13.33C5.33 13.77 5.11 14 4.66 14L2.66 14C2.22 14 2 13.77 2 13.33L2 11.33C2 10.88 2.22 10.66 2.66 10.66ZM2.66 8L2.66 4C2.66 3.63 2.79 3.31 3.05 3.05C3.31 2.79 3.63 2.66 4 2.66L12 2.66C12.36 2.66 12.68 2.79 12.94 3.05C13.2 3.31 13.33 3.63 13.33 4L13.33 12C13.33 12.36 13.2 12.68 12.94 12.94C12.68 13.2 12.36 13.33 12 13.33L8 13.33" stroke="#6C707E" stroke-opacity="1.000000" stroke-width="1.400000" stroke-linejoin="round" stroke-linecap="round"/>
		<path id="path" d="M9.97 7.98L10 7.96C10.39 7.96 10.7 8.27 10.7 8.66C10.7 9.05 10.39 9.36 10 9.36L9.97 9.34L9.97 7.98ZM6.65 6.02L6.63 6C6.63 5.6 6.94 5.3 7.33 5.3C7.72 5.3 8.03 5.6 8.03 6L8.01 6.02L6.65 6.02ZM10.17 4.86L10.17 4.83C10.44 4.56 10.88 4.56 11.16 4.83C11.43 5.11 11.43 5.55 11.16 5.82L11.13 5.82L10.17 4.86Z" fill="#000000" fill-opacity="0" fill-rule="nonzero"/>
		<path id="path" d="M10 8.66L7.33 8.66L7.33 6M7.33 8.66L10.66 5.33" stroke="#6C707E" stroke-opacity="1.000000" stroke-width="1.400000" stroke-linejoin="round"/>
	</g>
</svg>
