<svg width="17.000000" height="17.000000" viewBox="0 0 17 17" fill="none" xmlns="http://www.w3.org/2000/svg">
	<desc>
			Created with Pixso.
	</desc>
	<defs>
		<clipPath id="clip192_1">
			<rect id="open.svg" width="17.000000" height="17.000000" fill="white" fill-opacity="0"/>
		</clipPath>
	</defs>
	<g clip-path="url(#clip192_1)">
		<path id="path" d="M11.68 6.9C11.38 6.9 11.13 6.79 10.93 6.58C10.72 6.38 10.62 6.13 10.62 5.84C10.61 5.54 10.72 5.29 10.93 5.08C11.13 4.87 11.38 4.78 11.68 4.78C11.97 4.77 12.22 4.87 12.43 5.08C12.64 5.29 12.75 5.54 12.75 5.84C12.73 6.13 12.64 6.38 12.43 6.58C12.22 6.79 11.97 6.9 11.68 6.9ZM5.31 6.9C5.01 6.9 4.76 6.79 4.55 6.58C4.34 6.38 4.25 6.13 4.25 5.84C4.23 5.54 4.34 5.29 4.55 5.08C4.76 4.87 5.01 4.78 5.31 4.78C5.59 4.77 5.85 4.87 6.05 5.08C6.26 5.29 6.37 5.54 6.37 5.84C6.36 6.13 6.26 6.38 6.05 6.58C5.85 6.79 5.59 6.9 5.31 6.9ZM8.5 8.85C8.2 8.85 7.94 8.74 7.74 8.54C7.53 8.33 7.43 8.08 7.43 7.78C7.42 7.49 7.53 7.23 7.74 7.03C7.94 6.83 8.2 6.72 8.5 6.72C8.78 6.72 9.04 6.82 9.24 7.03C9.45 7.24 9.56 7.49 9.56 7.78C9.55 8.07 9.45 8.33 9.24 8.54C9.04 8.74 8.78 8.85 8.5 8.85ZM8.5 4.95C8.2 4.95 7.94 4.84 7.74 4.64C7.53 4.44 7.43 4.18 7.43 3.88C7.42 3.59 7.53 3.34 7.74 3.13C7.94 2.93 8.2 2.82 8.5 2.82C8.78 2.82 9.04 2.93 9.24 3.13C9.45 3.34 9.56 3.6 9.56 3.88C9.55 4.18 9.45 4.43 9.24 4.64C9.04 4.85 8.78 4.95 8.5 4.95ZM8.5 14.16C8.25 14.16 8.02 14.14 7.77 14.1C7.53 14.07 7.29 14.02 7.07 13.97L7.07 11.43C7.07 11.01 7.21 10.66 7.49 10.35C7.77 10.06 8.1 9.91 8.5 9.91C8.88 9.91 9.22 10.06 9.49 10.35C9.77 10.66 9.91 11.01 9.91 11.43L9.91 13.97C9.68 14.02 9.45 14.07 9.21 14.1C8.96 14.14 8.73 14.16 8.5 14.16ZM6.01 13.6C5.78 13.5 5.55 13.39 5.33 13.28C5.12 13.15 4.9 13.02 4.7 12.88C4.37 12.65 4.11 12.34 3.92 11.96C3.71 11.59 3.62 11.18 3.62 10.76C3.62 10.45 3.59 10.16 3.52 9.9C3.46 9.63 3.34 9.38 3.18 9.14C3.06 8.99 2.84 8.76 2.51 8.44C2.19 8.13 1.89 7.84 1.62 7.57C1.49 7.44 1.43 7.27 1.43 7.07C1.43 6.87 1.49 6.71 1.62 6.58C1.75 6.44 1.92 6.38 2.12 6.38C2.31 6.38 2.48 6.44 2.61 6.58L5.32 9.14C5.55 9.36 5.73 9.61 5.84 9.9C5.96 10.18 6.01 10.48 6.01 10.79L6.01 13.6ZM10.97 13.6L10.97 10.79C10.97 10.48 11.02 10.18 11.15 9.89C11.27 9.59 11.44 9.35 11.66 9.14L14.37 6.58C14.51 6.44 14.68 6.38 14.87 6.38C15.07 6.38 15.23 6.44 15.36 6.58C15.49 6.71 15.55 6.87 15.56 7.07C15.56 7.27 15.49 7.44 15.36 7.57C15.09 7.84 14.8 8.13 14.47 8.44C14.14 8.74 13.92 8.98 13.81 9.14C13.64 9.38 13.52 9.63 13.46 9.9C13.39 10.16 13.36 10.45 13.36 10.76C13.36 11.18 13.27 11.59 13.06 11.97C12.87 12.35 12.61 12.66 12.27 12.9C12.08 13.03 11.87 13.15 11.65 13.28C11.44 13.39 11.2 13.5 10.97 13.6Z" fill="#007BFF" fill-opacity="1.000000" fill-rule="nonzero"/>
	</g>
</svg>
