<svg xmlns="http://www.w3.org/2000/svg" width="17" height="17" viewBox="0 0 24 24">
    <path fill="#6C707E"
          d="m21.6 23l-2.7-2.7q-.55.325-1.15.513T16.5 21q-1.875 0-3.187-1.312T12 16.5t1.313-3.187T16.5 12t3.188 1.313T21 16.5q0 .65-.187 1.25T20.3 18.9l2.7 2.7zm-5.1-4q1.05 0 1.775-.725T19 16.5t-.725-1.775T16.5 14t-1.775.725T14 16.5t.725 1.775T16.5 19m4.5-9h-2V5h-2v3H7V5H5v14h5v2H5q-.825 0-1.412-.587T3 19V5q0-.825.588-1.412T5 3h4.175q.275-.875 1.075-1.437T12 1q1 0 1.788.563T14.85 3H19q.825 0 1.413.588T21 5zm-9-5q.425 0 .713-.288T13 4t-.288-.712T12 3t-.712.288T11 4t.288.713T12 5"/>
</svg>