<svg width="14.000000" height="14.000000" viewBox="0 0 14 14" fill="none" xmlns="http://www.w3.org/2000/svg" xmlns:xlink="http://www.w3.org/1999/xlink">
	<desc>
			Created with Pixso.
	</desc>
	<defs>
		<clipPath id="clip98_4">
			<rect id="rotate.svg" width="14.000000" height="14.000000" fill="white" fill-opacity="0"/>
		</clipPath>
	</defs>
	<g clip-path="url(#clip98_4)">
		<path id="path" d="M2.18 7C2.18 6.58 2.24 6.17 2.34 5.76C2.45 5.36 2.61 4.98 2.81 4.61C3.02 4.25 3.27 3.92 3.56 3.62C3.85 3.32 4.18 3.07 4.54 2.85C4.9 2.64 5.28 2.48 5.68 2.36C6.08 2.25 6.49 2.19 6.91 2.18C7.33 2.17 7.74 2.22 8.15 2.32C8.55 2.42 8.94 2.57 9.31 2.77C9.69 3 10 2.92 10.21 2.52C10.43 2.13 10.34 1.82 9.93 1.62C8.74 0.97 7.47 0.74 6.12 0.93C4.78 1.12 3.62 1.7 2.66 2.66C1.7 3.62 1.12 4.78 0.93 6.12C0.74 7.47 0.97 8.74 1.62 9.93C1.84 10.3 2.13 10.38 2.5 10.18C2.87 9.97 2.96 9.68 2.77 9.31C2.38 8.59 2.18 7.82 2.18 7ZM12.37 4.06C12.17 3.65 11.87 3.56 11.47 3.78C11.07 3.99 10.99 4.3 11.22 4.68C11.73 5.62 11.91 6.62 11.76 7.68C11.61 8.74 11.16 9.64 10.4 10.4C9.64 11.16 8.74 11.61 7.68 11.76C6.62 11.91 5.62 11.73 4.69 11.22C4.3 11.01 4 11.09 3.79 11.48C3.58 11.86 3.67 12.16 4.05 12.37C5.25 13.02 6.52 13.25 7.86 13.06C9.21 12.87 10.37 12.29 11.33 11.33C12.29 10.37 12.87 9.21 13.06 7.87C13.25 6.52 13.02 5.25 12.37 4.06Z" fill="#6E6E6E" fill-opacity="1.000000" fill-rule="evenodd"/>
		<path id="path" d="M8.85 8.85C9.36 8.34 9.62 7.72 9.62 7C9.62 6.27 9.36 5.65 8.85 5.14C8.34 4.63 7.72 4.37 7 4.37C6.27 4.37 5.65 4.63 5.14 5.14C4.63 5.65 4.37 6.27 4.37 7C4.37 7.72 4.63 8.34 5.14 8.85C5.65 9.36 6.27 9.62 7 9.62C7.72 9.62 8.34 9.36 8.85 8.85ZM7.92 7.92C8.18 7.67 8.31 7.36 8.31 7C8.31 6.63 8.18 6.32 7.92 6.07C7.67 5.81 7.36 5.68 7 5.68C6.63 5.68 6.32 5.81 6.07 6.07C5.81 6.32 5.68 6.63 5.68 7C5.68 7.36 5.81 7.67 6.07 7.92C6.32 8.18 6.63 8.31 7 8.31C7.36 8.31 7.67 8.18 7.92 7.92Z" fill="#50A5E6" fill-opacity="1.000000" fill-rule="evenodd"/>
		<path id="path" d="M2.42 6.39Q2.46 6.1 2.54 5.81Q2.61 5.52 2.73 5.25Q2.84 4.97 2.99 4.71Q3.14 4.45 3.31 4.21Q3.49 3.97 3.7 3.76Q3.92 3.55 4.15 3.36Q4.38 3.18 4.64 3.03Q4.9 2.87 5.17 2.76Q5.45 2.64 5.74 2.56Q6.03 2.47 6.32 2.43Q6.61 2.39 6.92 2.38Q7.22 2.38 7.51 2.41Q7.81 2.44 8.1 2.51Q8.39 2.59 8.67 2.69Q8.94 2.8 9.21 2.95Q9.54 3.14 9.82 3.09Q9.85 3.08 9.88 3.07Q9.9 3.07 9.93 3.06Q10.2 2.96 10.39 2.62Q10.58 2.28 10.51 1.99Q10.51 1.97 10.5 1.94Q10.49 1.91 10.48 1.89Q10.37 1.62 10.03 1.44Q9.11 0.94 8.12 0.76Q7.14 0.58 6.1 0.73Q5.05 0.88 4.16 1.33Q3.27 1.78 2.52 2.52Q1.78 3.27 1.33 4.16Q0.88 5.05 0.73 6.1Q0.58 7.14 0.76 8.12Q0.94 9.11 1.45 10.03L1.45 10.03L1.45 10.04Q1.63 10.35 1.9 10.44Q1.92 10.45 1.95 10.46Q1.98 10.47 2 10.47Q2.28 10.53 2.6 10.35Q2.91 10.18 3.02 9.92Q3.03 9.89 3.04 9.87Q3.05 9.84 3.05 9.81Q3.11 9.54 2.95 9.21L2.95 9.21L2.95 9.21Q2.66 8.69 2.52 8.14Q2.38 7.58 2.38 7Q2.38 6.69 2.42 6.39ZM9.93 1.62Q9.04 1.13 8.09 0.96L8.09 0.96Q7.14 0.79 6.12 0.93Q5.11 1.07 4.25 1.51L4.25 1.51Q3.38 1.94 2.66 2.66Q1.94 3.38 1.51 4.25L1.51 4.25Q1.07 5.11 0.93 6.12Q0.79 7.13 0.96 8.09L0.96 8.09Q1.13 9.04 1.62 9.93C1.84 10.3 2.13 10.38 2.5 10.18C2.87 9.97 2.96 9.68 2.77 9.31Q2.48 8.77 2.33 8.19Q2.18 7.61 2.18 7Q2.18 6.68 2.22 6.37L2.22 6.37Q2.26 6.07 2.34 5.76Q2.42 5.46 2.54 5.17Q2.66 4.88 2.81 4.61Q2.97 4.34 3.16 4.09L3.16 4.09Q3.34 3.84 3.56 3.62Q3.78 3.4 4.03 3.21L4.03 3.21Q4.27 3.01 4.54 2.85Q4.81 2.69 5.1 2.57L5.1 2.57Q5.38 2.45 5.68 2.36C6.08 2.25 6.49 2.19 6.91 2.18C7.33 2.17 7.74 2.22 8.15 2.32Q8.45 2.4 8.74 2.51Q9.03 2.62 9.31 2.77Q9.6 2.94 9.82 2.88Q10.05 2.82 10.21 2.52Q10.38 2.22 10.31 2Q10.24 1.77 9.93 1.62ZM12 3.48Q11.71 3.41 11.37 3.6Q11.03 3.79 10.93 4.06Q10.92 4.09 10.92 4.11Q10.91 4.14 10.9 4.17Q10.85 4.45 11.04 4.78Q11.41 5.46 11.54 6.17Q11.67 6.89 11.56 7.65Q11.46 8.41 11.13 9.06Q10.8 9.72 10.26 10.26Q9.72 10.8 9.06 11.13Q8.41 11.45 7.65 11.56Q6.89 11.67 6.17 11.54Q5.46 11.41 4.78 11.04Q4.45 10.86 4.17 10.92Q4.15 10.92 4.12 10.93Q4.09 10.94 4.07 10.95Q3.8 11.05 3.62 11.38Q3.44 11.71 3.5 11.99Q3.5 12.02 3.51 12.04Q3.52 12.07 3.53 12.1Q3.63 12.36 3.96 12.54Q4.88 13.05 5.87 13.23Q6.85 13.41 7.89 13.26Q8.94 13.11 9.83 12.66Q10.72 12.21 11.47 11.47Q12.21 10.72 12.66 9.83Q13.11 8.94 13.26 7.89Q13.41 6.84 13.23 5.85Q13.05 4.88 12.55 3.96Q12.37 3.62 12.1 3.51Q12.08 3.5 12.05 3.49Q12.02 3.48 12 3.48ZM12.37 4.06Q12.22 3.75 11.99 3.68Q11.77 3.61 11.47 3.78C11.07 3.99 10.99 4.3 11.22 4.68C11.73 5.62 11.91 6.62 11.76 7.68Q11.65 8.47 11.31 9.15L11.31 9.15L11.31 9.15Q10.97 9.83 10.4 10.4Q9.83 10.97 9.15 11.31Q8.47 11.65 7.68 11.76Q6.89 11.87 6.14 11.74L6.14 11.74L6.14 11.74Q5.39 11.6 4.69 11.22Q4.4 11.06 4.17 11.12Q3.95 11.19 3.79 11.48Q3.64 11.77 3.7 11.99Q3.77 12.21 4.05 12.37C5.25 13.02 6.52 13.25 7.86 13.06Q8.87 12.92 9.74 12.48L9.74 12.48L9.74 12.48Q10.61 12.05 11.33 11.33Q12.05 10.61 12.48 9.74Q12.91 8.88 13.06 7.87C13.25 6.52 13.02 5.25 12.37 4.06ZM8.08 9.61Q8.58 9.41 8.99 8.99Q9.41 8.58 9.61 8.08Q9.82 7.58 9.82 7Q9.82 6.41 9.61 5.91Q9.41 5.41 8.99 5Q8.58 4.58 8.08 4.38Q7.58 4.17 7 4.17Q6.41 4.17 5.91 4.38Q5.41 4.58 5 5Q4.58 5.41 4.38 5.91Q4.17 6.41 4.17 7Q4.17 7.58 4.38 8.08Q4.58 8.58 5 8.99Q5.41 9.41 5.91 9.61Q6.41 9.82 7 9.82Q7.58 9.82 8.08 9.61ZM8.85 8.85C9.36 8.34 9.62 7.72 9.62 7C9.62 6.27 9.36 5.65 8.85 5.14Q8.47 4.75 8 4.56Q7.54 4.37 7 4.37Q6.45 4.37 5.99 4.56Q5.52 4.75 5.14 5.14Q4.75 5.52 4.56 5.99Q4.37 6.45 4.37 7Q4.37 7.54 4.56 8Q4.75 8.47 5.14 8.85Q5.52 9.24 5.99 9.43Q6.45 9.62 7 9.62Q7.54 9.62 8 9.43Q8.47 9.24 8.85 8.85ZM7.92 7.92Q8.12 7.73 8.21 7.5Q8.31 7.27 8.31 7C8.31 6.63 8.18 6.32 7.92 6.07Q7.73 5.87 7.5 5.78Q7.27 5.68 7 5.68Q6.72 5.68 6.49 5.78Q6.26 5.87 6.07 6.07C5.81 6.32 5.68 6.63 5.68 7Q5.68 7.27 5.78 7.5Q5.87 7.73 6.07 7.92Q6.26 8.12 6.49 8.21Q6.72 8.31 7 8.31Q7.27 8.31 7.5 8.21Q7.73 8.12 7.92 7.92ZM8.03 7.42Q7.94 7.62 7.78 7.78Q7.62 7.94 7.42 8.03Q7.23 8.11 7 8.11Q6.76 8.11 6.57 8.03Q6.37 7.94 6.21 7.78Q6.05 7.62 5.96 7.42Q5.88 7.23 5.88 7Q5.88 6.76 5.96 6.57Q6.05 6.37 6.21 6.21Q6.37 6.05 6.57 5.96Q6.76 5.88 7 5.88Q7.23 5.88 7.42 5.96Q7.62 6.05 7.78 6.21Q7.94 6.37 8.03 6.57Q8.11 6.76 8.11 7Q8.11 7.23 8.03 7.42Z" fill="#1E88E5" fill-opacity="1.000000" fill-rule="evenodd"/>
	</g>
</svg>
