<svg width="16.000000" height="16.000000" viewBox="0 0 16 16" fill="none" xmlns="http://www.w3.org/2000/svg" xmlns:xlink="http://www.w3.org/1999/xlink">
	<desc>
			Created with Pixso.
	</desc>
	<defs>
		<clipPath id="clip202_5">
			<rect id="svg" width="16.000000" height="16.000000" fill="white" fill-opacity="0"/>
		</clipPath>
	</defs>
	<g clip-path="url(#clip202_5)">
		<path id="path" d="M4.66 14.33C4.26 14.33 3.88 14.25 3.51 14.1C3.15 13.95 2.82 13.73 2.54 13.45C2.26 13.17 2.04 12.84 1.89 12.48C1.74 12.11 1.66 11.73 1.66 11.33C1.66 10.93 1.74 10.55 1.89 10.18C2.04 9.81 2.26 9.49 2.54 9.21C2.82 8.93 3.15 8.71 3.51 8.56C3.88 8.4 4.26 8.33 4.66 8.33C5.06 8.33 5.44 8.4 5.81 8.56C6.18 8.71 6.5 8.93 6.78 9.21C7.06 9.49 7.28 9.81 7.43 10.18C7.58 10.55 7.66 10.93 7.66 11.33C7.66 11.73 7.58 12.11 7.43 12.48C7.28 12.84 7.06 13.17 6.78 13.45C6.5 13.73 6.18 13.95 5.81 14.1C5.44 14.25 5.06 14.33 4.66 14.33ZM11.33 7.66C10.93 7.66 10.55 7.59 10.18 7.43C9.81 7.28 9.49 7.06 9.21 6.78C8.93 6.5 8.71 6.18 8.56 5.81C8.4 5.44 8.33 5.06 8.33 4.66C8.33 4.26 8.4 3.88 8.56 3.51C8.71 3.15 8.93 2.82 9.21 2.54C9.49 2.26 9.81 2.04 10.18 1.89C10.55 1.74 10.93 1.66 11.33 1.66C11.73 1.66 12.11 1.74 12.48 1.89C12.84 2.04 13.17 2.26 13.45 2.54C13.73 2.82 13.95 3.15 14.1 3.51C14.25 3.88 14.33 4.26 14.33 4.66C14.33 5.06 14.25 5.44 14.1 5.81C13.95 6.18 13.73 6.5 13.45 6.78C13.17 7.06 12.84 7.28 12.48 7.43C12.11 7.59 11.73 7.66 11.33 7.66ZM4.66 13C5.12 13 5.51 12.83 5.84 12.51C6.17 12.18 6.33 11.79 6.33 11.33C6.33 10.87 6.17 10.48 5.84 10.15C5.51 9.82 5.12 9.66 4.66 9.66C4.2 9.66 3.81 9.82 3.48 10.15C3.16 10.48 3 10.87 3 11.33C3 11.79 3.16 12.18 3.48 12.51C3.81 12.83 4.2 13 4.66 13ZM11.33 6.33C11.79 6.33 12.18 6.17 12.51 5.84C12.83 5.51 13 5.12 13 4.66C13 4.2 12.83 3.81 12.51 3.48C12.18 3.16 11.79 2.99 11.33 3C10.87 3 10.48 3.16 10.15 3.48C9.83 3.81 9.66 4.2 9.66 4.66C9.66 5.12 9.83 5.51 10.15 5.84C10.48 6.17 10.87 6.33 11.33 6.33ZM2 5.33C2 4.89 2.08 4.46 2.25 4.05C2.42 3.64 2.66 3.28 2.97 2.97C3.28 2.66 3.64 2.42 4.05 2.25C4.46 2.08 4.89 2 5.33 2L7.33 2L7.33 3.33L5.33 3.33C4.78 3.33 4.3 3.52 3.91 3.91C3.52 4.3 3.33 4.78 3.33 5.33L3.33 7.33L2 7.33L2 5.33ZM14 8.66L12.66 8.66L12.66 10.66C12.66 11.21 12.47 11.69 12.08 12.08C11.69 12.47 11.21 12.66 10.66 12.66L8.66 12.66L8.66 14L10.66 14C11.1 14 11.53 13.91 11.94 13.74C12.35 13.57 12.71 13.33 13.02 13.02C13.33 12.71 13.57 12.35 13.74 11.94C13.91 11.53 14 11.1 14 10.66L14 8.66Z" fill="#6C707E" fill-opacity="1.000000" fill-rule="nonzero"/>
	</g>
</svg>
