<svg width="17.000000" height="17.000000" viewBox="0 0 17 17" fill="none" xmlns="http://www.w3.org/2000/svg">
	<desc>
			Created with Pixso.
	</desc>
	<defs>
		<clipPath id="clip151_12">
			<rect id="book_reader" width="17.000000" height="17.000000" fill="white" fill-opacity="0"/>
		</clipPath>
	</defs>
	<g clip-path="url(#clip151_12)">
		<circle id="circle" cx="8.613281" cy="2.266357" r="1.813334" fill="#6C707E" fill-opacity="1.000000"/>
		<path id="path" d="M12.99 4.95C12.03 4.95 11.15 5.21 10.34 5.72C9.54 6.24 8.93 6.92 8.52 7.79C8.11 6.92 7.51 6.24 6.7 5.72C5.9 5.21 5.02 4.95 4.06 4.95L2.12 4.95L2.12 12.04L4.06 12.04C5.02 12.04 5.9 12.3 6.7 12.81C7.51 13.32 8.11 14.01 8.52 14.87C8.88 14.01 9.45 13.32 10.22 12.81C10.99 12.29 11.84 12.02 12.77 12.01L14.89 12.01L14.87 4.95L12.99 4.95Z" fill="#6C707E" fill-opacity="1.000000" fill-rule="nonzero"/>
	</g>
</svg>
