<svg width="14.000000" height="14.000000" viewBox="0 0 14 14" fill="none" xmlns="http://www.w3.org/2000/svg">
	<desc>
			Created with Pixso.
	</desc>
	<defs>
		<clipPath id="clip98_9">
			<rect id="rotate.svg" width="14.000000" height="14.000000" fill="white" fill-opacity="0"/>
		</clipPath>
	</defs>
	<g clip-path="url(#clip98_9)">
		<path id="path" d="M2.18 7C2.18 6.58 2.24 6.17 2.34 5.76C2.45 5.36 2.61 4.98 2.81 4.61C3.02 4.25 3.27 3.92 3.56 3.62C3.85 3.32 4.18 3.07 4.54 2.85C4.9 2.64 5.28 2.48 5.68 2.36C6.08 2.25 6.49 2.19 6.91 2.18C7.33 2.17 7.74 2.22 8.15 2.32C8.55 2.42 8.94 2.57 9.31 2.77C9.69 3 10 2.92 10.21 2.52C10.43 2.13 10.34 1.82 9.93 1.62C8.74 0.97 7.47 0.74 6.12 0.93C4.78 1.12 3.62 1.7 2.66 2.66C1.7 3.62 1.12 4.78 0.93 6.12C0.74 7.47 0.97 8.74 1.62 9.93C1.84 10.3 2.13 10.38 2.5 10.18C2.87 9.97 2.96 9.68 2.77 9.31C2.38 8.59 2.18 7.82 2.18 7ZM12.37 4.06C12.17 3.65 11.87 3.56 11.47 3.78C11.07 3.99 10.99 4.3 11.22 4.68C11.73 5.62 11.91 6.62 11.76 7.68C11.61 8.74 11.16 9.64 10.4 10.4C9.64 11.16 8.74 11.61 7.68 11.76C6.62 11.91 5.62 11.73 4.69 11.22C4.3 11.01 4 11.09 3.79 11.48C3.58 11.86 3.67 12.16 4.05 12.37C5.25 13.02 6.52 13.25 7.86 13.06C9.21 12.87 10.37 12.29 11.33 11.33C12.29 10.37 12.87 9.21 13.06 7.87C13.25 6.52 13.02 5.25 12.37 4.06Z" fill="#CED0D6" fill-opacity="1.000000" fill-rule="evenodd"/>
		<path id="path" d="M8.85 8.85C9.36 8.34 9.62 7.72 9.62 7C9.62 6.27 9.36 5.65 8.85 5.14C8.34 4.63 7.72 4.37 7 4.37C6.27 4.37 5.65 4.63 5.14 5.14C4.63 5.65 4.37 6.27 4.37 7C4.37 7.72 4.63 8.34 5.14 8.85C5.65 9.36 6.27 9.62 7 9.62C7.72 9.62 8.34 9.36 8.85 8.85ZM7.92 7.92C8.18 7.67 8.31 7.36 8.31 7C8.31 6.63 8.18 6.32 7.92 6.07C7.67 5.81 7.36 5.68 7 5.68C6.63 5.68 6.32 5.81 6.07 6.07C5.81 6.32 5.68 6.63 5.68 7C5.68 7.36 5.81 7.67 6.07 7.92C6.32 8.18 6.63 8.31 7 8.31C7.36 8.31 7.67 8.18 7.92 7.92Z" fill="#1E88E5" fill-opacity="1.000000" fill-rule="evenodd"/>
		<path id="path" d="" fill="#CED0D6" fill-opacity="0" fill-rule="evenodd"/>
	</g>
</svg>
